<svg width="25" height="25" viewBox="0 0 25 25" fill="none" xmlns="http://www.w3.org/2000/svg">
<path d="M21.0064 13.2707C18.1461 14.4251 15.0897 15.0156 12.0053 15.0098C8.82226 15.0077 5.78567 14.3857 3.00641 13.2589M12.0072 12.0098L12.0172 12.0098M16.0112 6.01244L16.0125 4.01244C16.0128 3.482 15.8025 2.97316 15.4276 2.59784C15.0528 2.22252 14.5442 2.01147 14.0138 2.01113L10.0138 2.0085C9.48336 2.00815 8.97452 2.21853 8.5992 2.59336C8.22388 2.96818 8.01283 3.47675 8.01248 4.00719L8.01117 6.00719L16.0112 6.01244ZM5.00198 20.0052L19.002 20.0144C19.5324 20.0148 20.0413 19.8044 20.4166 19.4295C20.7919 19.0547 21.0029 18.5461 21.0033 18.0157L21.0099 8.01572C21.0102 7.48529 20.7998 6.97644 20.425 6.60112C20.0502 6.2258 19.5416 6.01475 19.0112 6.01441L5.01117 6.00522C4.48074 6.00487 3.97189 6.21525 3.59657 6.59008C3.22126 6.9649 3.01021 7.47347 3.00986 8.00391L3.0033 18.0039C3.00295 18.5343 3.21333 19.0432 3.58816 19.4185C3.96298 19.7938 4.47155 20.0049 5.00198 20.0052Z" stroke="white" stroke-width="2" stroke-linecap="round" stroke-linejoin="round"/>
</svg>
