<svg width="170" height="155" viewBox="0 0 170 155" fill="none" xmlns="http://www.w3.org/2000/svg">
<path d="M24.8952 139.592C58.0908 160.133 111.909 160.133 145.105 139.592C178.3 119.052 178.297 85.7549 145.105 65.2186C111.913 44.6823 58.087 44.6823 24.8952 65.2186C-8.29652 85.7549 -8.30031 119.056 24.8952 139.592Z" fill="#FAFAFA"/>
<path d="M75.3001 102.414C82.2757 98.0782 93.5839 98.0782 100.559 102.414C106.472 106.095 107.368 111.702 103.259 115.972C103.492 116.038 103.715 116.135 103.924 116.263L125.948 129.964C126.882 130.545 126.882 131.49 125.948 132.071L124.566 132.93C124.047 133.214 123.47 133.353 122.888 133.335C122.307 133.318 121.738 133.143 121.235 132.827L100.73 118.361C100.646 118.302 100.568 118.235 100.495 118.16C93.5155 122.459 82.2681 122.447 75.3039 118.124C68.3398 113.8 68.3056 106.753 75.3001 102.414Z" fill="#E6E6E6"/>
<path d="M26.2739 86.6411L54.3432 104.134C54.6932 104.326 55.0803 104.426 55.4729 104.426C55.8655 104.426 56.2525 104.326 56.6026 104.134L105.431 73.7655C106.054 73.3811 106.054 72.7512 105.431 72.3626L77.3621 54.8694C77.0121 54.6779 76.625 54.5781 76.2324 54.5781C75.8398 54.5781 75.4528 54.6779 75.1028 54.8694L26.2739 85.2382C25.6512 85.6227 25.6512 86.2525 26.2739 86.6411Z" fill="#E6E6E6"/>
<path d="M151.265 119.723L158.772 115.052C159.68 114.487 159.68 113.571 158.772 113.007L106.534 80.5193C106.024 80.2408 105.461 80.0957 104.889 80.0957C104.318 80.0957 103.755 80.2408 103.245 80.5193L95.7343 85.1901C94.8268 85.7546 94.8268 86.6707 95.7343 87.2352L147.977 119.723C148.486 120.001 149.05 120.146 149.621 120.146C150.192 120.146 150.756 120.001 151.265 119.723Z" fill="#E6E6E6"/>
<path d="M26.199 129.001C18.538 129.001 12.3276 125.346 12.3276 120.838C12.3276 116.329 18.538 112.674 26.199 112.674C33.8599 112.674 40.0703 116.329 40.0703 120.838C40.0703 125.346 33.8599 129.001 26.199 129.001Z" fill="#E6E6E6"/>
<path d="M20.125 112.729C19.9921 110.917 18.496 107.273 16.5746 105.073C14.6532 102.872 11.7862 101.392 9.89142 102.279C8.1257 103.097 8.51302 105.653 10.8445 107.159C13.176 108.664 16.6391 110.517 17.8277 113.367L20.125 116.795V112.729Z" fill="#0077B5"/>
<path opacity="0.1" d="M20.125 112.729C19.9921 110.917 18.496 107.273 16.5746 105.073C14.6532 102.872 11.7862 101.392 9.89142 102.279C8.1257 103.097 8.51302 105.653 10.8445 107.159C13.176 108.664 16.6391 110.517 17.8277 113.367L20.125 116.795V112.729Z" fill="black"/>
<path d="M20.4321 115.188C20.4047 115.188 20.3779 115.179 20.356 115.161C20.334 115.143 20.3181 115.118 20.3106 115.09C18.7234 109.008 13.7072 104.386 10.8479 103.519C10.8197 103.506 10.7968 103.483 10.7835 103.453C10.7703 103.423 10.7676 103.389 10.776 103.358C10.7845 103.326 10.8034 103.299 10.8292 103.281C10.855 103.263 10.886 103.256 10.9162 103.261C13.8287 104.149 18.9398 108.844 20.5498 115.02C20.5544 115.037 20.5558 115.055 20.5538 115.073C20.5519 115.09 20.5467 115.107 20.5385 115.122C20.5304 115.138 20.5194 115.151 20.5064 115.161C20.4933 115.172 20.4784 115.18 20.4625 115.184L20.4321 115.188Z" fill="white"/>
<path d="M19.8744 119.211C19.5288 118.217 18.2492 116.638 16.2784 115.411C14.0988 114.058 11.4331 113.579 10.742 112.434C9.9104 111.064 10.9319 109.612 13.0773 109.71C15.2228 109.808 19.1795 112.601 20.125 117.244L19.8744 119.211Z" fill="#0077B5"/>
<path d="M20.2067 118.12C20.1832 118.121 20.1602 118.113 20.1406 118.1C20.121 118.086 20.1056 118.066 20.0966 118.043C17.9397 112.901 14.0513 111.368 12.297 111.273C12.2648 111.273 12.2339 111.26 12.2111 111.235C12.1883 111.211 12.1755 111.177 12.1755 111.143C12.1755 111.108 12.1883 111.075 12.2111 111.05C12.2339 111.026 12.2648 111.012 12.297 111.012C14.2374 111.114 18.1068 112.685 20.3092 117.932C20.3161 117.948 20.3198 117.966 20.3203 117.983C20.3207 118.001 20.3178 118.018 20.3118 118.035C20.3058 118.051 20.2967 118.066 20.2852 118.079C20.2736 118.091 20.2598 118.101 20.2447 118.108C20.2328 118.115 20.2199 118.119 20.2067 118.12Z" fill="white"/>
<path d="M158.155 102.629C158.155 102.629 158.535 98.8704 160.289 95.9501C162.044 93.0297 164.413 91.2137 166.638 91.0215C168.864 90.8293 170.66 93.0379 168.279 94.5553C165.898 96.0728 161.668 97.6147 159.72 103.279L158.155 102.629Z" fill="#0077B5"/>
<path opacity="0.1" d="M158.155 102.629C158.155 102.629 158.535 98.8704 160.289 95.9501C162.044 93.0297 164.413 91.2137 166.638 91.0215C168.864 90.8293 170.66 93.0379 168.279 94.5553C165.898 96.0728 161.668 97.6147 159.72 103.279L158.155 102.629Z" fill="black"/>
<path d="M158.809 101.657H158.786C158.771 101.65 158.758 101.641 158.747 101.629C158.736 101.617 158.727 101.603 158.721 101.587C158.715 101.572 158.712 101.555 158.712 101.538C158.712 101.521 158.715 101.504 158.722 101.489C161.068 95.2557 165.557 92.6544 167.577 92.1472C167.606 92.1438 167.636 92.1523 167.66 92.171C167.684 92.1897 167.701 92.2173 167.708 92.2485C167.715 92.2798 167.71 92.3126 167.696 92.3407C167.681 92.3687 167.658 92.3901 167.63 92.4008C165.636 92.8916 161.254 95.452 158.942 101.583C158.93 101.609 158.911 101.631 158.887 101.644C158.863 101.658 158.835 101.662 158.809 101.657Z" fill="white"/>
<path d="M169.488 101.624C169.272 102.148 168.729 102.418 168.254 102.63C167.741 102.78 167.289 103.107 166.967 103.563C166.431 104.557 167.309 105.955 166.735 106.921C166.601 107.116 166.43 107.28 166.234 107.401C166.038 107.522 165.821 107.598 165.596 107.624C165.229 107.682 164.858 107.718 164.487 107.735C164.311 107.73 164.135 107.715 163.959 107.69C163.449 107.566 162.915 107.628 162.441 107.866C161.708 108.307 161.484 109.305 161.039 110.074C160.763 110.528 160.399 110.911 159.973 111.199C159.546 111.487 159.067 111.673 158.567 111.743C158.142 111.835 157.702 111.804 157.292 111.653L157.219 111.604C157.173 111.551 157.13 111.495 157.09 111.436V111.412C156.961 110.896 157.174 110.36 157.181 109.829V109.731C157.181 109.113 157.143 108.504 157.132 107.882C157.107 106.745 157.097 105.608 157.102 104.471C157.102 103.735 157.026 102.925 157.314 102.229C157.637 101.465 158.434 101.448 158.734 100.696C158.856 100.397 158.921 100.078 159.038 99.7753C159.219 99.3324 159.51 98.9516 159.878 98.6746C160.246 98.3976 160.678 98.2351 161.127 98.2048C162.524 98.127 163.785 99.3418 165.167 99.2314C165.526 99.1793 165.882 99.1069 166.234 99.0146C167.373 98.7855 168.668 99.1332 169.302 100.16C169.442 100.369 169.532 100.612 169.565 100.867C169.597 101.122 169.571 101.382 169.488 101.624Z" fill="#0077B5"/>
<path d="M156.961 109.044C156.946 109.041 156.931 109.033 156.919 109.023C156.906 109.013 156.896 109.001 156.888 108.986C156.88 108.972 156.875 108.955 156.873 108.939C156.871 108.922 156.873 108.905 156.877 108.889C158.795 101.101 166.408 99.9807 168.178 100.116C168.193 100.117 168.209 100.121 168.222 100.128C168.236 100.136 168.249 100.146 168.259 100.158C168.269 100.171 168.277 100.186 168.282 100.201C168.287 100.217 168.289 100.234 168.288 100.251C168.29 100.268 168.289 100.285 168.284 100.302C168.28 100.318 168.272 100.334 168.262 100.347C168.251 100.36 168.239 100.37 168.224 100.378C168.21 100.385 168.194 100.389 168.178 100.39C166.435 100.255 158.985 101.355 157.101 108.979C157.089 109.006 157.068 109.027 157.042 109.039C157.017 109.051 156.988 109.053 156.961 109.044Z" fill="white"/>
<path d="M165.413 105.103C165.389 105.098 165.366 105.085 165.349 105.066C164.646 104.41 163.817 103.929 162.922 103.657C162.027 103.386 161.087 103.331 160.169 103.495C160.138 103.499 160.106 103.489 160.081 103.469C160.055 103.448 160.038 103.418 160.033 103.385C160.031 103.368 160.032 103.351 160.036 103.335C160.04 103.319 160.047 103.303 160.056 103.29C160.066 103.277 160.078 103.266 160.091 103.257C160.105 103.249 160.12 103.244 160.135 103.242C161.089 103.073 162.065 103.134 162.995 103.419C163.924 103.703 164.784 104.206 165.512 104.89C165.523 104.902 165.532 104.916 165.538 104.931C165.544 104.947 165.547 104.963 165.547 104.98C165.547 104.997 165.544 105.013 165.538 105.029C165.532 105.044 165.523 105.058 165.512 105.07C165.499 105.083 165.483 105.092 165.466 105.098C165.449 105.103 165.431 105.105 165.413 105.103Z" fill="white"/>
<path d="M27.3018 80.9636L54.4218 97.8678C54.7605 98.0513 55.1343 98.1468 55.5135 98.1468C55.8926 98.1468 56.2665 98.0513 56.6052 97.8678L103.805 68.5216C104.409 68.1494 104.409 67.54 103.805 67.1678L76.666 50.2594C76.328 50.076 75.9548 49.9805 75.5762 49.9805C75.1977 49.9805 74.8245 50.076 74.4864 50.2594L27.3018 79.6057C26.717 79.982 26.717 80.5873 27.3018 80.9636Z" fill="#37474F"/>
<path d="M41.8122 88.7099C42.2828 88.9674 42.8032 89.1017 43.3311 89.1017C43.859 89.1017 44.3794 88.9674 44.85 88.7099C45.6854 88.1904 45.6854 87.3479 44.85 86.8284C44.38 86.5689 43.8593 86.4336 43.3311 86.4336C42.8029 86.4336 42.2823 86.5689 41.8122 86.8284C40.973 87.3479 40.973 88.1904 41.8122 88.7099Z" fill="#263238"/>
<path d="M54.4448 97.8618L27.3059 80.9575C26.7666 80.6221 26.7097 80.0986 27.135 79.7305C26.8652 79.9602 26.6436 80.2488 26.4846 80.5773C26.3256 80.9057 26.2328 81.2667 26.2122 81.6364V82.7408C26.2316 83.1504 26.3409 83.5493 26.5309 83.9048C26.721 84.2603 26.9866 84.5622 27.3059 84.7858L54.4258 101.69C54.761 101.882 55.136 101.979 55.5156 101.972V98.1562C55.1414 98.1561 54.7732 98.0549 54.4448 97.8618Z" fill="#455A64"/>
<path d="M103.801 72.3407C104.119 72.1166 104.384 71.8145 104.574 71.459C104.763 71.1036 104.872 70.7049 104.891 70.2956V69.1913C104.871 68.8208 104.778 68.4591 104.619 68.1299C104.46 67.8007 104.238 67.5115 103.968 67.2812C104.393 67.6575 104.348 68.177 103.801 68.5083L56.62 97.8545C56.2837 98.0472 55.9073 98.1444 55.5264 98.1368V101.953C55.9073 101.96 56.2837 101.863 56.62 101.671L103.801 72.3407Z" fill="#263238"/>
<path d="M58.975 94.3251L33.3929 78.3738C33.3125 78.346 33.2423 78.2915 33.1925 78.218C33.1426 78.1444 33.1158 78.0558 33.1158 77.9648C33.1158 77.8738 33.1426 77.7851 33.1925 77.7116C33.2423 77.6381 33.3125 77.5835 33.3929 77.5558L71.206 53.997C71.4083 53.886 71.6321 53.8281 71.8591 53.8281C72.0861 53.8281 72.3099 53.886 72.5122 53.997L98.1057 69.9482C98.1861 69.976 98.2564 70.0306 98.3062 70.1041C98.356 70.1776 98.3828 70.2662 98.3828 70.3572C98.3828 70.4483 98.356 70.5369 98.3062 70.6104C98.2564 70.6839 98.1861 70.7385 98.1057 70.7663L60.2851 94.3251C60.0821 94.4361 59.8577 94.4939 59.63 94.4939C59.4024 94.4939 59.178 94.4361 58.975 94.3251Z" fill="#FAFAFA"/>
<path d="M94.1364 70.6737L81.9168 78.3058C81.662 78.4449 81.3804 78.5173 81.0947 78.5173C80.8091 78.5173 80.5274 78.4449 80.2726 78.3058L58.7802 64.9435C58.681 64.9073 58.5949 64.8385 58.5338 64.7468C58.4728 64.6551 58.44 64.5451 58.44 64.4323C58.44 64.3194 58.4728 64.2095 58.5338 64.1178C58.5949 64.0261 58.681 63.9573 58.7802 63.921L71.0149 56.3053C71.2697 56.1662 71.5514 56.0938 71.837 56.0938C72.1227 56.0938 72.4043 56.1662 72.6591 56.3053L94.1364 69.6512C94.2356 69.6874 94.3217 69.7563 94.3827 69.848C94.4437 69.9397 94.4766 70.0496 94.4766 70.1625C94.4766 70.2753 94.4437 70.3853 94.3827 70.477C94.3217 70.5687 94.2356 70.6375 94.1364 70.6737Z" fill="#EBEBEB"/>
<path d="M85.1548 67.0323L82.0183 67.6908C81.8224 67.7348 81.6188 67.7148 81.4335 67.6336L78.7755 66.4065C78.354 66.2102 77.754 66.4065 77.7616 66.7297L77.8034 68.7747C77.8034 68.9056 77.7046 69.0283 77.5338 69.106L74.8301 70.2962C74.401 70.4843 74.5036 70.8974 75.0086 70.9956L78.1793 71.6132C78.2623 71.6217 78.3427 71.6495 78.4148 71.6947C78.4869 71.7399 78.5491 71.8014 78.597 71.875L79.5805 73.8423C79.74 74.1531 80.4045 74.2186 80.7197 73.9527L82.6183 72.2717C82.7703 72.1535 82.955 72.0944 83.1423 72.104L86.4573 72.1286C86.9851 72.1286 87.2889 71.7604 86.9737 71.4987L84.9916 69.8626C84.9633 69.8453 84.9385 69.822 84.9187 69.7943C84.8988 69.7666 84.8842 69.7349 84.8757 69.7011C84.8673 69.6672 84.8651 69.6319 84.8693 69.5972C84.8736 69.5625 84.8841 69.529 84.9004 69.4986L85.9637 67.5477C86.1307 67.2205 85.6561 66.926 85.1548 67.0323Z" fill="#FAFAFA"/>
<path d="M78.1789 62.722L71.4502 58.5379C71.3181 58.4541 71.1698 58.4045 71.0168 58.3931C70.8639 58.3818 70.7107 58.4089 70.5692 58.4724C70.3565 58.6074 70.4059 58.8528 70.6755 59.0205L77.4005 63.2046C77.5329 63.2873 77.6812 63.3361 77.8339 63.3475C77.9866 63.3588 78.1397 63.3323 78.2814 63.2701C78.4941 63.1351 78.4447 62.8897 78.1789 62.722Z" fill="#FAFAFA"/>
<path d="M76.4773 63.7787L69.7524 59.5945C69.6203 59.5107 69.472 59.4611 69.319 59.4498C69.1661 59.4384 69.0129 59.4656 68.8714 59.5291C68.6587 59.664 68.7043 59.9094 68.9777 60.0771L75.7026 64.2613C75.8351 64.3439 75.9834 64.3928 76.1361 64.4041C76.2888 64.4155 76.4419 64.389 76.5836 64.3267C76.8 64.1918 76.7507 63.9463 76.4773 63.7787Z" fill="#FAFAFA"/>
<path d="M74.785 64.8348L68.0601 60.6506C67.9284 60.5659 67.7799 60.5158 67.6269 60.5044C67.4738 60.4931 67.3204 60.5207 67.1791 60.5852C66.9627 60.7202 67.012 60.9656 67.2854 61.1333L74.0028 65.3174C74.1352 65.4 74.2835 65.4489 74.4362 65.4602C74.5889 65.4716 74.742 65.4451 74.8837 65.3829C75.104 65.2479 75.0584 65.0025 74.785 64.8348Z" fill="#FAFAFA"/>
<path d="M73.0972 65.8795L66.3685 61.6994C66.2375 61.6147 66.0897 61.5646 65.9372 61.5533C65.7848 61.5419 65.632 61.5696 65.4914 61.634C65.2749 61.7649 65.3243 62.0103 65.5939 62.1821L72.3226 66.3621C72.4543 66.4468 72.6027 66.4969 72.7558 66.5083C72.9089 66.5197 73.0623 66.492 73.2036 66.4275C73.4162 66.2967 73.3668 66.0513 73.0972 65.8795Z" fill="#FAFAFA"/>
<path d="M71.3959 66.944L64.671 62.7639C64.5393 62.6792 64.3909 62.6291 64.2378 62.6177C64.0847 62.6064 63.9313 62.634 63.79 62.6985C63.5774 62.8294 63.623 63.0748 63.8964 63.2465L70.6213 67.4266C70.753 67.5113 70.9014 67.5614 71.0545 67.5728C71.2076 67.5842 71.361 67.5565 71.5023 67.492C71.7263 67.3612 71.6693 67.1158 71.3959 66.944Z" fill="#FAFAFA"/>
<path d="M69.7054 67.9908L62.9957 63.8108C62.864 63.7261 62.7156 63.676 62.5625 63.6646C62.4094 63.6532 62.256 63.6809 62.1147 63.7453C61.9021 63.8762 61.9477 64.1216 62.2211 64.2934L68.9308 68.4817C69.0625 68.5664 69.211 68.6165 69.364 68.6278C69.5171 68.6392 69.6705 68.6115 69.8118 68.5471C70.0244 68.408 69.9788 68.1626 69.7054 67.9908Z" fill="#FAFAFA"/>
<path d="M79.0502 80.0647L78.4957 80.4123C78.3425 80.4951 78.1735 80.5382 78.0021 80.5382C77.8307 80.5382 77.6617 80.4951 77.5085 80.4123L64.5978 72.3917C64.3244 72.2199 64.3244 71.9459 64.5978 71.7782L65.156 71.4305C65.3092 71.3478 65.4783 71.3047 65.6497 71.3047C65.8211 71.3047 65.9901 71.3478 66.1433 71.4305L79.0539 79.4512C79.1137 79.4729 79.1656 79.5144 79.2022 79.5698C79.2388 79.6251 79.2582 79.6915 79.2578 79.7594C79.2574 79.8274 79.2371 79.8934 79.1998 79.9482C79.1625 80.003 79.1102 80.0438 79.0502 80.0647Z" fill="#E0E0E0"/>
<path d="M55.9213 65.6691L55.3669 66.0167C55.0935 66.1844 55.0935 66.4584 55.3669 66.6302L60.5501 69.8532C60.7034 69.936 60.8724 69.9791 61.0438 69.9791C61.2152 69.9791 61.3842 69.936 61.5374 69.8532L62.0918 69.5055C62.3652 69.3379 62.3652 69.0638 62.0918 68.892L56.9238 65.6691C56.7686 65.5836 56.5968 65.5391 56.4225 65.5391C56.2483 65.5391 56.0765 65.5836 55.9213 65.6691Z" fill="#E0E0E0"/>
<path d="M75.6263 82.1844L63.3763 89.796C63.1215 89.9351 62.8399 90.0076 62.5542 90.0076C62.2686 90.0076 61.9869 89.9351 61.7321 89.796L40.2397 76.4338C40.1405 76.3975 40.0543 76.3287 39.9933 76.237C39.9323 76.1453 39.8995 76.0353 39.8995 75.9225C39.8995 75.8097 39.9323 75.6997 39.9933 75.608C40.0543 75.5163 40.1405 75.4475 40.2397 75.4112L52.4744 67.7955C52.7292 67.6565 53.0109 67.584 53.2965 67.584C53.5822 67.584 53.8638 67.6565 54.1186 67.7955L75.6263 81.166C75.7241 81.2031 75.8089 81.272 75.8688 81.3632C75.9287 81.4544 75.9609 81.5634 75.9609 81.6752C75.9609 81.7869 75.9287 81.8959 75.8688 81.9871C75.8089 82.0784 75.7241 82.1473 75.6263 82.1844Z" fill="#EBEBEB"/>
<path d="M66.6475 78.5478L63.5071 79.2104C63.3112 79.2541 63.1077 79.2342 62.9224 79.1532L60.2643 77.9262C59.839 77.7298 59.239 77.9262 59.2466 78.2452L59.2884 80.2902C59.2884 80.4211 59.1934 80.5438 59.0226 80.6174L56.3151 81.8076C55.8861 81.9999 55.9924 82.413 56.4936 82.5111L59.6605 83.1205C59.7433 83.1301 59.8233 83.1584 59.8953 83.2035C59.9672 83.2486 60.0296 83.3095 60.0782 83.3823L61.0617 85.3496C61.2174 85.6605 61.8819 85.7259 62.2009 85.4601L64.0995 83.7791C64.2529 83.6608 64.4389 83.6018 64.6273 83.6114L67.9423 83.6359C68.4663 83.6359 68.7739 83.2678 68.4587 83.006L66.4766 81.37C66.4204 81.3341 66.3792 81.2762 66.3615 81.2085C66.3438 81.1407 66.351 81.0682 66.3816 81.006L67.4487 79.055C67.6195 78.7401 67.1449 78.4456 66.6475 78.5478Z" fill="#FAFAFA"/>
<path d="M59.6588 74.2337L52.9338 70.0496C52.8018 69.9658 52.6534 69.9162 52.5005 69.9049C52.3476 69.8935 52.1944 69.9206 52.0529 69.9841C51.8364 70.1191 51.8858 70.3645 52.1592 70.5322L58.8841 74.7164C59.0166 74.799 59.1648 74.8478 59.3176 74.8592C59.4703 74.8705 59.6233 74.8441 59.7651 74.7818C59.9587 74.6468 59.9322 74.4014 59.6588 74.2337Z" fill="#FAFAFA"/>
<path d="M57.9588 75.2904L51.2187 71.1062C51.0866 71.0224 50.9383 70.9729 50.7854 70.9615C50.6325 70.9501 50.4792 70.9773 50.3377 71.0408C50.1251 71.1758 50.1744 71.4212 50.444 71.5889L57.1728 75.773C57.3043 75.8578 57.4523 75.9086 57.6052 75.9214C57.7581 75.9342 57.9116 75.9086 58.0537 75.8466C58.2778 75.7035 58.2284 75.4581 57.9588 75.2904Z" fill="#FAFAFA"/>
<path d="M56.2663 76.3461L49.5414 72.1702C49.4097 72.0854 49.2613 72.0353 49.1082 72.024C48.9551 72.0126 48.8017 72.0403 48.6605 72.1047C48.4478 72.2356 48.4934 72.481 48.7668 72.6528L55.4917 76.8328C55.6242 76.9155 55.7724 76.9643 55.9251 76.9757C56.0778 76.987 56.2309 76.9605 56.3727 76.8983C56.5891 76.7633 56.5397 76.5179 56.2663 76.3461Z" fill="#FAFAFA"/>
<path d="M54.5648 77.399L47.8399 73.219C47.7082 73.1343 47.5597 73.0842 47.4067 73.0728C47.2536 73.0614 47.1002 73.0891 46.9589 73.1535C46.7425 73.2844 46.7919 73.5298 47.0653 73.7016L53.7902 77.8939C53.9219 77.9787 54.0703 78.0288 54.2234 78.0401C54.3765 78.0515 54.5299 78.0238 54.6711 77.9594C54.8838 77.8162 54.8382 77.5708 54.5648 77.399Z" fill="#FAFAFA"/>
<path d="M52.8785 78.4537L46.1498 74.2736C46.0187 74.1889 45.8709 74.1389 45.7185 74.1275C45.566 74.1161 45.4132 74.1438 45.2726 74.2082C45.0562 74.3391 45.1055 74.5845 45.3751 74.7563L52.1039 78.9363C52.2356 79.0211 52.384 79.0711 52.5371 79.0825C52.6901 79.0939 52.8435 79.0662 52.9848 79.0018C53.1975 78.8709 53.1481 78.6255 52.8785 78.4537Z" fill="#FAFAFA"/>
<path d="M51.1804 79.526L44.4555 75.3459C44.3237 75.2612 44.1753 75.2111 44.0222 75.1998C43.8692 75.1884 43.7158 75.216 43.5745 75.2805C43.3619 75.4114 43.4074 75.6568 43.6808 75.8286L50.4058 80.0086C50.5375 80.0934 50.6859 80.1434 50.839 80.1548C50.992 80.1662 51.1454 80.1385 51.2867 80.0741C51.5032 79.935 51.4538 79.6773 51.1804 79.526Z" fill="#FAFAFA"/>
<path d="M60.5364 91.5764L59.9783 91.9241C59.825 92.0068 59.656 92.0499 59.4846 92.0499C59.3132 92.0499 59.1442 92.0068 58.991 91.9241L46.0803 83.9034C46.0205 83.8821 45.9683 83.841 45.9314 83.7859C45.8945 83.7308 45.8746 83.6646 45.8746 83.5967C45.8746 83.5287 45.8945 83.4625 45.9314 83.4075C45.9683 83.3524 46.0205 83.3113 46.0803 83.2899L46.6385 82.9423C46.7917 82.8595 46.9608 82.8164 47.1322 82.8164C47.3036 82.8164 47.4726 82.8595 47.6258 82.9423L60.5364 90.9629C60.5963 90.9842 60.6484 91.0254 60.6854 91.0804C60.7223 91.1355 60.7422 91.2017 60.7422 91.2697C60.7422 91.3376 60.7223 91.4038 60.6854 91.4589C60.6484 91.5139 60.5963 91.5551 60.5364 91.5764Z" fill="#E0E0E0"/>
<path d="M37.3972 77.1824L36.839 77.5301C36.5656 77.6978 36.5656 77.9718 36.839 78.1436L42.0222 81.3666C42.1754 81.4493 42.3445 81.4924 42.5159 81.4924C42.6873 81.4924 42.8563 81.4493 43.0095 81.3666L43.5677 81.0189C43.6276 80.9976 43.6797 80.9565 43.7166 80.9014C43.7536 80.8463 43.7734 80.7801 43.7734 80.7122C43.7734 80.6442 43.7536 80.578 43.7166 80.523C43.6797 80.4679 43.6276 80.4268 43.5677 80.4054L38.3807 77.1824C38.2281 77.0997 38.0597 77.0566 37.8889 77.0566C37.7181 77.0566 37.5497 77.0997 37.3972 77.1824Z" fill="#E0E0E0"/>
<path d="M87.9472 59.9768C88.0512 60.0317 88.1655 60.0603 88.2813 60.0603C88.3972 60.0603 88.5115 60.0317 88.6155 59.9768C88.6548 59.9619 88.6889 59.9343 88.713 59.8976C88.7371 59.861 88.75 59.8172 88.75 59.7723C88.75 59.7274 88.7371 59.6836 88.713 59.647C88.6889 59.6104 88.6548 59.5827 88.6155 59.5678C88.5115 59.5129 88.3972 59.4844 88.2813 59.4844C88.1655 59.4844 88.0512 59.5129 87.9472 59.5678C87.7611 59.6782 87.7611 59.8623 87.9472 59.9768Z" fill="#263238"/>
<path d="M89.0175 63.2416C89.2247 63.3545 89.4537 63.4133 89.6859 63.4133C89.918 63.4133 90.147 63.3545 90.3542 63.2416C90.4296 63.2085 90.4942 63.1519 90.5396 63.079C90.5851 63.0062 90.6094 62.9204 90.6094 62.8326C90.6094 62.7449 90.5851 62.6591 90.5396 62.5862C90.4942 62.5134 90.4296 62.4568 90.3542 62.4236C90.147 62.3108 89.918 62.252 89.6859 62.252C89.4537 62.252 89.2247 62.3108 89.0175 62.4236C88.9421 62.4568 88.8775 62.5134 88.8321 62.5862C88.7866 62.6591 88.7623 62.7449 88.7623 62.8326C88.7623 62.9204 88.7866 63.0062 88.8321 63.079C88.8775 63.1519 88.9421 63.2085 89.0175 63.2416Z" fill="#263238"/>
<path d="M88.0584 61.7976C88.3052 61.6422 88.29 61.3886 88.028 61.225L83.6308 58.4888C83.4879 58.4101 83.3298 58.3691 83.1694 58.3691C83.009 58.3691 82.8509 58.4101 82.708 58.4888C82.465 58.6401 82.4764 58.8978 82.7384 59.0614L87.1356 61.7935C87.2784 61.8718 87.4363 61.913 87.5966 61.9137C87.7568 61.9144 87.915 61.8747 88.0584 61.7976Z" fill="#263238"/>
<path d="M98.7216 21.7891V22.7503L101.805 24.6685L106.43 27.5316L147.258 52.9514C147.5 53.1149 147.7 53.3414 147.839 53.6099C147.989 53.8741 148.073 54.1757 148.082 54.4852V112.932C148.082 116.11 150.155 117.399 152.707 115.795C155.259 114.192 157.336 110.343 157.336 107.165V48.7141C157.32 48.4067 157.237 48.1076 157.094 47.8411C156.951 47.5746 156.752 47.3482 156.512 47.1803L111.063 18.9138L106.662 16.1816C106.515 16.4482 106.434 16.751 106.426 17.061V17.9526L154.97 48.2192C155.198 48.3715 155.387 48.5823 155.521 48.8327C155.687 49.1073 155.78 49.4255 155.79 49.753V108.122C155.79 110.241 154.408 112.814 152.703 113.873C150.998 114.932 149.62 114.073 149.62 111.955V53.5077C149.607 53.2015 149.527 52.903 149.386 52.6364C149.245 52.3699 149.049 52.1429 148.811 51.9739L98.9608 20.9711C98.8175 21.2173 98.7352 21.4989 98.7216 21.7891Z" fill="#E0E0E0"/>
<path d="M103.352 18.969V21.783L150.331 51.0107C150.573 51.176 150.774 51.4003 150.92 51.6653C151.066 51.9304 151.152 52.2288 151.17 52.5363V110.983C151.17 112.043 151.858 112.472 152.708 111.94C153.156 111.627 153.529 111.205 153.797 110.708C154.065 110.21 154.22 109.652 154.25 109.077V50.6262C154.24 50.3173 154.158 50.0162 154.011 49.7509C153.869 49.4842 153.67 49.2583 153.43 49.0924L103.583 18.0938C103.439 18.3599 103.359 18.6609 103.352 18.969Z" fill="#E0E0E0"/>
<path d="M146.299 54.5558C146.446 54.8194 146.528 55.1193 146.538 55.427V113.371C146.537 113.792 146.562 114.213 146.614 114.631C146.629 114.74 146.644 114.846 146.659 114.95C146.659 115.048 146.693 115.142 146.712 115.24C146.731 115.338 146.75 115.412 146.773 115.494C146.796 115.576 146.811 115.653 146.834 115.731C147.085 116.726 147.677 117.582 148.49 118.128C149.595 118.811 151.075 118.729 152.704 117.719C156.122 115.6 158.875 110.218 158.875 105.702V47.754C158.866 47.4463 158.783 47.1464 158.636 46.8828L157.09 47.8399C157.24 48.104 157.324 48.4057 157.333 48.7152V107.162C157.333 110.34 155.26 114.205 152.704 115.792C150.149 117.379 148.079 116.095 148.079 112.929V54.4699C148.07 54.1604 147.986 53.8588 147.836 53.5946L146.299 54.5558Z" fill="#EBEBEB"/>
<path d="M149.387 52.6307C149.534 52.8945 149.617 53.1943 149.626 53.5019V111.949C149.626 114.068 151.009 114.927 152.71 113.867C154.411 112.808 155.797 110.235 155.797 108.117V49.7308C155.786 49.4033 155.693 49.0851 155.527 48.8105L154.008 49.7513C154.156 50.0166 154.238 50.3177 154.248 50.6265V109.074C154.218 109.648 154.063 110.206 153.795 110.704C153.527 111.201 153.154 111.624 152.706 111.937C151.855 112.468 151.168 112.039 151.168 110.98V52.5366C151.159 52.2271 151.075 51.9255 150.925 51.6613L149.387 52.6307Z" fill="#EBEBEB"/>
<path d="M106.656 16.1766L111.049 18.9088L156.506 47.1753C156.749 47.3377 156.949 47.5644 157.087 47.8338L158.633 46.8767C158.495 46.6061 158.295 46.3781 158.052 46.2141L112.599 17.9476L111.722 17.3996L110.833 16.8597L110.074 16.3852L109.622 16.103L108.783 15.5836C108.538 15.4434 108.266 15.3674 107.989 15.3617C107.712 15.356 107.437 15.4208 107.188 15.5508C106.963 15.7062 106.78 15.9219 106.656 16.1766Z" fill="#FAFAFA"/>
<path d="M95.8739 22.8913L100.267 25.6235L107.98 30.417L145.717 53.8899C145.96 54.0549 146.161 54.2826 146.301 54.5525L147.82 53.5914C147.684 53.3312 147.491 53.1108 147.258 52.9492L106.434 27.5458L101.809 24.6827L98.7257 22.7645L98.008 22.3187L97.9283 22.2737C97.6912 22.1514 97.4317 22.0879 97.1688 22.0879C96.9059 22.0879 96.6464 22.1514 96.4094 22.2737L96.3296 22.3269C96.1417 22.4773 95.9862 22.6699 95.8739 22.8913Z" fill="#FAFAFA"/>
<path d="M103.577 18.0914L153.424 49.0901C153.664 49.2559 153.863 49.4819 154.005 49.7486L155.523 48.8079C155.39 48.5575 155.201 48.3467 154.973 48.1944L106.429 17.9278L105.715 17.482C105.47 17.3418 105.198 17.2658 104.921 17.2601C104.644 17.2544 104.37 17.3192 104.12 17.4493C103.89 17.6087 103.703 17.8301 103.577 18.0914Z" fill="#FAFAFA"/>
<path d="M98.9494 20.9712L148.811 51.9739C149.055 52.1378 149.256 52.3658 149.396 52.6365L150.938 51.6754C150.792 51.4024 150.582 51.1754 150.33 51.0169L103.335 21.7892L101.057 20.3822C100.812 20.2427 100.54 20.1673 100.263 20.1624C99.9855 20.1574 99.7112 20.2229 99.462 20.3536C99.2447 20.5087 99.0682 20.7214 98.9494 20.9712Z" fill="#FAFAFA"/>
<path d="M95.6478 23.7679V81.7119C95.6478 84.0883 96.4073 85.7529 97.6338 86.4891L148.562 118.163C148.112 117.871 147.721 117.483 147.413 117.023C147.106 116.563 146.888 116.041 146.774 115.488C146.751 115.406 146.732 115.32 146.713 115.234C146.694 115.148 146.679 115.042 146.66 114.944C146.641 114.846 146.63 114.735 146.615 114.625C146.563 114.207 146.538 113.786 146.539 113.365V55.4209C146.529 55.1133 146.447 54.8133 146.299 54.5497C146.159 54.2798 145.958 54.0521 145.715 53.8872L107.977 30.4183L100.265 25.6247L95.8719 22.8926C95.7288 23.1588 95.6517 23.4602 95.6478 23.7679Z" fill="#F5F5F5"/>
<path d="M141.09 54.8538L133.496 50.1216C133.04 49.8393 132.675 50.0643 132.675 50.6328V62.0155C132.69 62.3227 132.772 62.6218 132.915 62.8883C133.057 63.1549 133.256 63.3814 133.496 63.5493L141.09 68.2815C141.546 68.5637 141.914 68.3347 141.914 67.7702V56.3876C141.899 56.0801 141.816 55.7809 141.673 55.5143C141.529 55.2478 141.33 55.0215 141.09 54.8538Z" fill="#455A64"/>
<path d="M141.914 72.6269L100.266 46.7285V48.6468L141.914 74.5451V72.6269Z" fill="#0077B5"/>
<path opacity="0.4" d="M141.914 72.6269L100.266 46.7285V48.6468L141.914 74.5451V72.6269Z" fill="white"/>
<path d="M141.42 78.0665L133.15 72.9253C132.88 72.7535 132.66 72.8926 132.66 73.232V91.1875C132.669 91.3715 132.718 91.5507 132.803 91.7106C132.888 91.8705 133.007 92.0065 133.15 92.1077L141.42 97.2489C141.694 97.4207 141.914 97.2817 141.914 96.9422V78.9868C141.905 78.8023 141.856 78.6227 141.77 78.4628C141.684 78.3028 141.564 78.167 141.42 78.0665Z" fill="#F0F0F0"/>
<path d="M141.42 99.1638L133.15 94.0185C132.88 93.8508 132.66 93.9898 132.66 94.3252V108.379L141.914 114.146V100.096C141.907 99.9097 141.858 99.7277 141.772 99.5654C141.687 99.4032 141.566 99.2655 141.42 99.1638Z" fill="#F0F0F0"/>
<path d="M130.616 71.3538L122.349 66.2125C122.076 66.0449 121.855 66.1798 121.855 66.5193V90.2417C121.865 90.4261 121.914 90.6056 122 90.7655C122.086 90.9254 122.205 91.0612 122.349 91.162L130.616 96.3032C130.889 96.4709 131.109 96.3359 131.109 95.9965V72.274C131.1 72.0898 131.05 71.9106 130.964 71.7508C130.878 71.591 130.759 71.455 130.616 71.3538Z" fill="#F0F0F0"/>
<path d="M119.819 64.6491L111.552 59.4956C111.279 59.3238 111.059 59.4629 111.059 59.8024V77.7578C111.068 77.9423 111.117 78.1218 111.203 78.2818C111.289 78.4417 111.408 78.5775 111.552 78.678L119.819 83.8315C120.092 84.0033 120.312 83.8643 120.312 83.5248V65.5694C120.304 65.3849 120.254 65.2053 120.168 65.0453C120.083 64.8854 119.963 64.7496 119.819 64.6491Z" fill="#F0F0F0"/>
<path d="M109.022 57.9317L100.755 52.7905C100.482 52.6187 100.262 52.7578 100.262 53.0973V76.8197C100.272 77.004 100.321 77.1832 100.407 77.343C100.493 77.5028 100.612 77.6387 100.755 77.74L109.022 82.8812C109.295 83.0489 109.516 82.9139 109.516 82.5744V58.852C109.507 58.6675 109.457 58.488 109.371 58.328C109.286 58.168 109.166 58.0322 109.022 57.9317Z" fill="#F0F0F0"/>
<path d="M130.616 98.2169L122.349 93.0757C122.076 92.9039 121.855 93.043 121.855 93.3824V101.677L131.109 107.436V99.1372C131.1 98.9527 131.051 98.7731 130.965 98.6132C130.879 98.4532 130.76 98.3174 130.616 98.2169Z" fill="#F0F0F0"/>
<path d="M120.328 86.6647V100.718L111.074 94.9634V80.9099C111.074 80.5705 111.294 80.4355 111.568 80.6032L119.834 85.7444C119.978 85.8452 120.098 85.981 120.184 86.1409C120.269 86.3008 120.319 86.4803 120.328 86.6647Z" fill="#F0F0F0"/>
<path d="M109.026 84.7931L100.755 79.6518C100.482 79.4801 100.262 79.6191 100.262 79.9586V88.2533L109.516 94.008V85.7133C109.507 85.5293 109.458 85.3501 109.373 85.1902C109.288 85.0303 109.169 84.8943 109.026 84.7931Z" fill="#F0F0F0"/>
<path d="M129.061 99.1639L123.878 95.9409C123.604 95.7691 123.384 95.9082 123.384 96.2477V100.8C123.393 100.984 123.443 101.164 123.528 101.324C123.614 101.484 123.734 101.62 123.878 101.72L129.061 104.935C129.334 105.103 129.555 104.968 129.555 104.628V100.101C129.548 99.9132 129.5 99.7304 129.414 99.5674C129.328 99.4044 129.207 99.266 129.061 99.1639Z" fill="#E0E0E0"/>
<path d="M107.483 85.7557L102.3 82.5327C102.03 82.3609 101.806 82.5 101.806 82.8395V87.3672C101.816 87.5514 101.866 87.7304 101.952 87.8902C102.037 88.0499 102.157 88.186 102.3 88.2874L107.483 91.5104C107.756 91.6781 107.977 91.5431 107.977 91.2037V86.676C107.968 86.4915 107.918 86.3119 107.832 86.1519C107.747 85.992 107.627 85.8562 107.483 85.7557Z" fill="#E0E0E0"/>
<path d="M139.874 79.0307L134.69 75.8036C134.417 75.6359 134.197 75.775 134.197 76.1104V80.6422C134.207 80.8264 134.256 81.0056 134.342 81.1654C134.428 81.3252 134.547 81.4612 134.69 81.5624L139.874 84.7854C140.143 84.9531 140.367 84.8181 140.367 84.4787V79.9387C140.356 79.7564 140.306 79.5794 140.22 79.4218C140.134 79.2641 140.016 79.1302 139.874 79.0307Z" fill="#E0E0E0"/>
<path d="M140.037 85.8437L134.523 82.4162C134.341 82.3058 134.197 82.3958 134.197 82.6208V82.7639C134.202 82.8866 134.235 83.0061 134.292 83.1127C134.349 83.2193 134.428 83.31 134.523 83.3774L140.037 86.8049C140.219 86.9194 140.367 86.8049 140.367 86.6004V86.4572C140.361 86.3342 140.327 86.2146 140.27 86.108C140.213 86.0014 140.133 85.9109 140.037 85.8437Z" fill="#E0E0E0"/>
<path d="M140.037 87.7637L134.523 84.3362C134.341 84.2257 134.197 84.3157 134.197 84.5407V84.6838C134.202 84.8065 134.235 84.9261 134.292 85.0327C134.349 85.1393 134.428 85.2299 134.523 85.2973L140.037 88.7248C140.219 88.8393 140.367 88.7248 140.367 88.5203V88.3772C140.361 88.2542 140.327 88.1345 140.27 88.0279C140.213 87.9214 140.133 87.8308 140.037 87.7637Z" fill="#E0E0E0"/>
<path d="M140.037 89.6836L134.523 86.2561C134.341 86.1457 134.197 86.2356 134.197 86.4606V86.6038C134.202 86.7265 134.235 86.846 134.292 86.9526C134.349 87.0592 134.428 87.1499 134.523 87.2173L140.037 90.6447C140.219 90.7593 140.367 90.6652 140.367 90.4402V90.2971C140.361 90.1741 140.327 90.0544 140.27 89.9479C140.213 89.8413 140.133 89.7508 140.037 89.6836Z" fill="#E0E0E0"/>
<path d="M140.037 91.5957L134.523 88.1682C134.341 88.0578 134.197 88.1478 134.197 88.3727V88.524C134.202 88.6468 134.235 88.7663 134.292 88.8729C134.349 88.9795 134.428 89.0702 134.523 89.1375L140.037 92.565C140.219 92.6796 140.367 92.5855 140.367 92.3605V92.2051C140.36 92.0828 140.327 91.964 140.269 91.8582C140.212 91.7523 140.132 91.6625 140.037 91.5957Z" fill="#E0E0E0"/>
<path d="M140.037 93.5234L134.523 90.0959C134.341 89.9855 134.197 90.0755 134.197 90.3004V90.4436C134.202 90.5663 134.235 90.6858 134.292 90.7924C134.349 90.899 134.428 90.9897 134.523 91.0571L140.037 94.4846C140.219 94.5991 140.367 94.505 140.367 94.2801V94.1369C140.361 94.0139 140.327 93.8943 140.27 93.7877C140.213 93.6811 140.133 93.5906 140.037 93.5234Z" fill="#E0E0E0"/>
<path d="M129.061 72.3162L123.878 69.0933C123.604 68.9215 123.384 69.0605 123.384 69.4V73.9277C123.393 74.1121 123.443 74.2916 123.529 74.4515C123.615 74.6114 123.734 74.7472 123.878 74.848L129.061 78.071C129.334 78.2387 129.555 78.1037 129.555 77.7642V73.2365C129.546 73.052 129.496 72.8724 129.411 72.7125C129.325 72.5525 129.205 72.4167 129.061 72.3162Z" fill="#E0E0E0"/>
<path d="M129.244 79.1275L123.73 75.7C123.548 75.5855 123.4 75.6755 123.4 75.9045V76.0436C123.406 76.1667 123.439 76.2864 123.497 76.3931C123.554 76.4997 123.634 76.5902 123.73 76.6571L129.244 80.0846C129.422 80.1991 129.57 80.0846 129.57 79.8801V79.741C129.565 79.6183 129.532 79.4988 129.475 79.3922C129.418 79.2856 129.339 79.1949 129.244 79.1275Z" fill="#E0E0E0"/>
<path d="M129.244 81.0553L123.73 77.6278C123.548 77.5132 123.4 77.6032 123.4 77.8323V77.9713C123.406 78.0944 123.439 78.2142 123.497 78.3208C123.554 78.4274 123.634 78.5179 123.73 78.5848L129.244 82.0123C129.422 82.1268 129.57 82.0328 129.57 81.8078V81.6688C129.565 81.546 129.532 81.4265 129.475 81.3199C129.418 81.2133 129.339 81.1226 129.244 81.0553Z" fill="#E0E0E0"/>
<path d="M129.244 82.9718L123.73 79.5321C123.548 79.4175 123.4 79.5075 123.4 79.7366V79.8756C123.406 79.9987 123.439 80.1185 123.497 80.2251C123.554 80.3317 123.634 80.4222 123.73 80.4891L129.244 83.9166C129.422 84.0311 129.57 83.9371 129.57 83.7121V83.5731C129.563 83.4525 129.529 83.3354 129.473 83.2311C129.416 83.1267 129.338 83.038 129.244 82.9718Z" fill="#E0E0E0"/>
<path d="M129.244 84.8951L123.73 81.4676C123.548 81.3531 123.4 81.4431 123.4 81.6721V81.8112C123.406 81.9343 123.439 82.054 123.497 82.1606C123.554 82.2673 123.634 82.3577 123.73 82.4247L129.244 85.8522C129.422 85.9667 129.57 85.8726 129.57 85.6477V85.5086C129.565 85.3859 129.532 85.2664 129.475 85.1598C129.418 85.0532 129.339 84.9625 129.244 84.8951Z" fill="#E0E0E0"/>
<path d="M129.244 86.8072L123.73 83.3797C123.548 83.2652 123.4 83.3552 123.4 83.5842V83.7233C123.406 83.8464 123.439 83.9661 123.497 84.0728C123.554 84.1794 123.634 84.2699 123.73 84.3368L129.244 87.7643C129.422 87.8788 129.57 87.7847 129.57 87.5598V87.4207C129.565 87.298 129.532 87.1785 129.475 87.0719C129.418 86.9653 129.339 86.8746 129.244 86.8072Z" fill="#E0E0E0"/>
<path d="M129.244 88.7264L123.73 85.2989C123.548 85.1844 123.4 85.2785 123.4 85.5034V85.6425C123.405 85.7657 123.438 85.8857 123.496 85.9924C123.553 86.0992 123.634 86.1895 123.73 86.256L129.244 89.6835C129.422 89.798 129.57 89.708 129.57 89.479V89.3481C129.565 89.2242 129.532 89.1034 129.476 88.9954C129.419 88.8874 129.34 88.7953 129.244 88.7264Z" fill="#E0E0E0"/>
<path d="M129.244 90.6463L123.73 87.2188C123.548 87.1043 123.4 87.1984 123.4 87.4233V87.5624C123.405 87.6856 123.438 87.8056 123.496 87.9124C123.553 88.0191 123.634 88.1095 123.73 88.1759L129.244 91.6034C129.422 91.7179 129.57 91.6279 129.57 91.3989V91.2598C129.564 91.1373 129.531 91.0182 129.474 90.9117C129.417 90.8052 129.339 90.7144 129.244 90.6463Z" fill="#E0E0E0"/>
<path d="M129.244 92.5662L123.73 89.1387C123.548 89.0242 123.4 89.1183 123.4 89.3432V89.4823C123.405 89.6055 123.438 89.7255 123.496 89.8323C123.553 89.939 123.634 90.0294 123.73 90.0958L129.244 93.5233C129.422 93.6378 129.57 93.5478 129.57 93.3188V93.1797C129.564 93.0572 129.531 92.9381 129.474 92.8316C129.417 92.7252 129.339 92.6343 129.244 92.5662Z" fill="#E0E0E0"/>
<path d="M139.874 100.14L134.69 96.913C134.417 96.7453 134.197 96.8844 134.197 97.2197V101.752C134.206 101.936 134.255 102.115 134.341 102.275C134.427 102.435 134.547 102.571 134.69 102.672L139.874 105.895C140.143 106.062 140.367 105.928 140.367 105.588V101.06C140.358 100.876 140.308 100.696 140.223 100.537C140.137 100.377 140.017 100.241 139.874 100.14Z" fill="#E0E0E0"/>
<path d="M140.037 106.939L134.523 103.512C134.341 103.402 134.197 103.492 134.197 103.716V103.86C134.202 103.982 134.235 104.102 134.292 104.208C134.349 104.315 134.428 104.406 134.523 104.473L140.037 107.901C140.219 108.015 140.367 107.921 140.367 107.696V107.553C140.361 107.43 140.327 107.31 140.27 107.204C140.213 107.097 140.133 107.007 140.037 106.939Z" fill="#E0E0E0"/>
<path d="M140.037 108.875L134.523 105.447C134.341 105.337 134.197 105.427 134.197 105.652V105.795C134.202 105.918 134.235 106.037 134.292 106.144C134.349 106.251 134.428 106.341 134.523 106.409L140.037 109.836C140.219 109.951 140.367 109.857 140.367 109.632V109.488C140.361 109.365 140.327 109.246 140.27 109.139C140.213 109.033 140.133 108.942 140.037 108.875Z" fill="#E0E0E0"/>
<path d="M140.037 110.792L134.523 107.344C134.341 107.234 134.197 107.324 134.197 107.548V107.692C134.202 107.814 134.235 107.934 134.292 108.04C134.349 108.147 134.428 108.238 134.523 108.305L140.037 111.733C140.219 111.847 140.367 111.753 140.367 111.528V111.389C140.359 111.269 140.325 111.152 140.268 111.048C140.21 110.945 140.131 110.857 140.037 110.792Z" fill="#E0E0E0"/>
<path d="M118.28 65.6035L113.097 62.3805C112.823 62.2128 112.603 62.3478 112.603 62.6873V67.215C112.612 67.3995 112.661 67.579 112.747 67.739C112.833 67.8989 112.953 68.0347 113.097 68.1353L118.28 71.3541C118.549 71.5218 118.773 71.3828 118.773 71.0474V66.5238C118.763 66.3397 118.713 66.1607 118.627 66.001C118.542 65.8413 118.423 65.7052 118.28 65.6035Z" fill="#E0E0E0"/>
<path d="M118.427 72.4164L112.914 68.989C112.735 68.8785 112.587 68.989 112.587 69.1935V69.3366C112.594 69.4591 112.627 69.5783 112.684 69.6847C112.74 69.7912 112.819 69.882 112.914 69.9501L118.427 73.394C118.61 73.5044 118.758 73.394 118.758 73.1895V73.0463C118.754 72.9205 118.721 72.7976 118.664 72.688C118.606 72.5783 118.525 72.4852 118.427 72.4164Z" fill="#E0E0E0"/>
<path d="M118.427 74.3364L112.914 70.9089C112.735 70.7984 112.587 70.9089 112.587 71.1134V71.2565C112.594 71.379 112.627 71.4982 112.684 71.6046C112.74 71.7111 112.819 71.8019 112.914 71.87L118.427 75.2975C118.61 75.408 118.758 75.2975 118.758 75.093V74.9499C118.751 74.8269 118.718 74.7072 118.661 74.6007C118.603 74.4941 118.523 74.4035 118.427 74.3364Z" fill="#E0E0E0"/>
<path d="M118.427 76.2597L112.914 72.8323C112.735 72.7218 112.587 72.8118 112.587 73.0368V73.1799C112.594 73.3024 112.627 73.4216 112.684 73.528C112.74 73.6345 112.819 73.7253 112.914 73.7934L118.427 77.2168C118.61 77.3273 118.758 77.2168 118.758 77.0123V76.8692C118.751 76.7469 118.717 76.6281 118.66 76.5222C118.602 76.4164 118.523 76.3265 118.427 76.2597Z" fill="#E0E0E0"/>
<path d="M118.427 78.1719L112.914 74.7444C112.735 74.6339 112.587 74.7239 112.587 74.9489V75.092C112.594 75.2145 112.627 75.3337 112.684 75.4401C112.74 75.5466 112.819 75.6374 112.914 75.7055L118.427 79.1208C118.61 79.2312 118.758 79.1412 118.758 78.9162V78.7731C118.75 78.6522 118.715 78.535 118.658 78.4307C118.601 78.3264 118.522 78.2378 118.427 78.1719Z" fill="#E0E0E0"/>
<path d="M118.427 80.0955L112.925 76.6721C112.747 76.5617 112.599 76.6517 112.599 76.8766V77.0198C112.605 77.1423 112.638 77.2614 112.695 77.3679C112.752 77.4743 112.83 77.5652 112.925 77.6333L118.427 81.0567C118.61 81.1671 118.758 81.0771 118.758 80.8522V80.709C118.751 80.586 118.718 80.4664 118.661 80.3598C118.603 80.2532 118.523 80.1627 118.427 80.0955Z" fill="#E0E0E0"/>
<path d="M107.483 58.8924L102.3 55.6694C102.03 55.4976 101.806 55.6367 101.806 55.9762V60.5039C101.816 60.6881 101.866 60.8672 101.952 61.0269C102.037 61.1867 102.157 61.3227 102.3 61.4242L107.483 64.6471C107.756 64.8148 107.977 64.6799 107.977 64.3404V59.8127C107.968 59.6282 107.918 59.4486 107.832 59.2887C107.747 59.1287 107.627 58.9929 107.483 58.8924Z" fill="#E0E0E0"/>
<path d="M107.65 65.709L102.136 62.2815C101.954 62.1711 101.806 62.261 101.806 62.486V62.6291C101.813 62.7521 101.846 62.8718 101.903 62.9784C101.961 63.0849 102.041 63.1755 102.136 63.2427L107.65 66.6701C107.828 66.7847 107.977 66.6906 107.977 66.4656V66.3225C107.97 66.2 107.937 66.0808 107.88 65.9744C107.824 65.8679 107.745 65.7771 107.65 65.709Z" fill="#E0E0E0"/>
<path d="M107.65 67.633L102.136 64.2014C101.954 64.091 101.806 64.181 101.806 64.4059V64.5491C101.813 64.6721 101.846 64.7917 101.903 64.8983C101.961 65.0049 102.041 65.0954 102.136 65.1626L107.65 68.5901C107.828 68.7046 107.977 68.6105 107.977 68.3855V68.2465C107.971 68.1238 107.938 68.0043 107.881 67.8976C107.825 67.791 107.745 67.7004 107.65 67.633Z" fill="#E0E0E0"/>
<path d="M107.65 69.5451L102.136 66.1135C101.954 66.0031 101.806 66.0931 101.806 66.318V66.4448C101.813 66.5678 101.846 66.6874 101.903 66.794C101.961 66.9006 102.041 66.9911 102.136 67.0583L107.65 70.4858C107.828 70.6003 107.977 70.5063 107.977 70.2813V70.1422C107.968 70.0223 107.935 69.9061 107.878 69.8025C107.821 69.6989 107.743 69.6108 107.65 69.5451Z" fill="#E0E0E0"/>
<path d="M107.65 71.4615L102.136 68.03C101.954 67.9195 101.806 68.03 101.806 68.2345V68.3776C101.813 68.5006 101.846 68.6203 101.903 68.7268C101.961 68.8334 102.041 68.924 102.136 68.9911L107.65 72.4186C107.828 72.5331 107.977 72.4186 107.977 72.2141V72.0751C107.971 71.9523 107.938 71.8328 107.881 71.7262C107.825 71.6196 107.745 71.5289 107.65 71.4615Z" fill="#E0E0E0"/>
<path d="M107.65 73.4029L102.136 69.9714C101.954 69.8609 101.806 69.9714 101.806 70.1759V70.319C101.813 70.442 101.846 70.5617 101.903 70.6682C101.961 70.7748 102.041 70.8654 102.136 70.9325L107.65 74.3437C107.828 74.4582 107.977 74.3437 107.977 74.1392V74.0001C107.968 73.8802 107.935 73.764 107.878 73.6604C107.821 73.5568 107.743 73.4687 107.65 73.4029Z" fill="#E0E0E0"/>
<path d="M107.65 75.2955L102.136 71.868C101.954 71.7535 101.806 71.8435 101.806 72.0725V72.2116C101.812 72.3347 101.845 72.4544 101.903 72.561C101.96 72.6677 102.04 72.7581 102.136 72.8251L107.65 76.2566C107.828 76.3712 107.977 76.2566 107.977 76.0521V75.9131C107.971 75.7897 107.939 75.6695 107.882 75.5622C107.825 75.4549 107.746 75.3635 107.65 75.2955Z" fill="#E0E0E0"/>
<path d="M107.65 77.2205L102.136 73.8094C101.954 73.6949 101.806 73.7849 101.806 74.0139V74.153C101.812 74.2761 101.845 74.3958 101.903 74.5024C101.96 74.6091 102.04 74.6995 102.136 74.7665L107.65 78.194C107.828 78.3085 107.977 78.194 107.977 77.9895V77.8504C107.973 77.7249 107.941 77.6023 107.884 77.4927C107.828 77.3831 107.747 77.2898 107.65 77.2205Z" fill="#E0E0E0"/>
<path d="M107.65 79.1275L102.136 75.7C101.954 75.5855 101.806 75.6755 101.806 75.9045V76.0436C101.812 76.1667 101.845 76.2864 101.903 76.3931C101.96 76.4997 102.04 76.5902 102.136 76.6571L107.65 80.0846C107.828 80.1991 107.977 80.1091 107.977 79.8801V79.741C107.97 79.6184 107.938 79.499 107.881 79.3924C107.824 79.2859 107.745 79.1951 107.65 79.1275Z" fill="#E0E0E0"/>
<path d="M118.28 86.7051L113.097 83.4821C112.823 83.3144 112.603 83.4494 112.603 83.7888V88.3166C112.612 88.501 112.661 88.6806 112.747 88.8406C112.833 89.0005 112.953 89.1363 113.097 89.2368L118.28 92.4639C118.549 92.6316 118.773 92.4925 118.773 92.1571V87.6253C118.763 87.4412 118.713 87.2623 118.627 87.1025C118.542 86.9428 118.423 86.8068 118.28 86.7051Z" fill="#E0E0E0"/>
<path d="M118.427 93.5234L112.914 90.0959C112.735 89.9855 112.587 90.0755 112.587 90.3004V90.4436C112.594 90.5661 112.627 90.6852 112.684 90.7917C112.74 90.8982 112.819 90.989 112.914 91.0571L118.427 94.4846C118.61 94.595 118.758 94.505 118.758 94.2801V94.1369C118.751 94.0139 118.718 93.8943 118.661 93.7877C118.603 93.6811 118.523 93.5906 118.427 93.5234Z" fill="#E0E0E0"/>
<path d="M118.427 95.4399L112.914 92.0124C112.735 91.902 112.587 92.0124 112.587 92.2169V92.3601C112.594 92.4825 112.627 92.6017 112.684 92.7082C112.74 92.8146 112.819 92.9055 112.914 92.9736L118.427 96.401C118.61 96.5115 118.758 96.4215 118.758 96.1965V96.0534C118.751 95.9304 118.718 95.8108 118.661 95.7042C118.603 95.5976 118.523 95.5071 118.427 95.4399Z" fill="#E0E0E0"/>
<path d="M118.427 97.3676L112.914 93.9401C112.735 93.8297 112.587 93.9401 112.587 94.1446V94.2878C112.594 94.4103 112.627 94.5294 112.684 94.6359C112.74 94.7423 112.819 94.8332 112.914 94.9013L118.427 98.3288C118.61 98.4392 118.758 98.3492 118.758 98.1243V97.9811C118.751 97.8581 118.718 97.7385 118.661 97.6319C118.603 97.5253 118.523 97.4348 118.427 97.3676Z" fill="#E0E0E0"/>
<path d="M58.9059 6.99541L60.4475 6.03424C60.5595 5.97818 60.6833 5.95543 60.8062 5.96838C60.9291 5.98133 61.0465 6.02949 61.1462 6.10787L80.7666 18.3372C81.0534 18.5394 81.2921 18.8113 81.4635 19.1309C81.635 19.4506 81.7345 19.8091 81.7539 20.1777V63.737C81.767 63.8688 81.7471 64.002 81.6964 64.1228C81.6456 64.2436 81.5659 64.3477 81.4653 64.4241L79.9464 65.3812H79.9236C79.8145 65.4287 79.6961 65.4457 79.5792 65.4307C79.4624 65.4156 79.351 65.3691 79.2553 65.2953L74.0721 62.0723V65.4303C74.0721 66.0233 73.9847 66.3669 73.8404 66.461L72.3215 67.414C72.1469 67.5162 71.8924 67.2545 71.6077 66.596L67.9319 58.2113L59.6653 53.0415C59.3786 52.8392 59.1399 52.5674 58.9684 52.2477C58.7969 51.928 58.6975 51.5695 58.678 51.2009V7.67845C58.6591 7.55313 58.6701 7.42469 58.7099 7.3052C58.7498 7.18571 58.8172 7.0791 58.9059 6.99541Z" fill="#0077B5"/>
<path opacity="0.4" d="M58.943 6.97519C59.0522 6.93317 59.169 6.91979 59.284 6.93615C59.3989 6.95251 59.5085 6.99814 59.6038 7.06926L79.2279 19.3027C79.513 19.4937 79.7482 19.7597 79.9114 20.0757L81.4531 19.1145C81.291 18.7977 81.0555 18.5314 80.7696 18.3415L61.1492 6.1081C61.0175 6.02092 60.8671 5.97163 60.7125 5.96494C60.6211 5.96309 60.5307 5.98706 60.4505 6.03447L58.943 6.97519Z" fill="white"/>
<path opacity="0.2" d="M73.819 66.481C73.9595 66.387 74.0469 66.0434 74.0469 65.4503V62.0965L72.4938 61.123V66.3992C72.4938 66.9637 72.4141 67.3072 72.2887 67.4218L73.819 66.481Z" fill="black"/>
<path opacity="0.1" d="M79.9125 65.3845L81.4542 64.4274C81.5526 64.3499 81.6306 64.2462 81.6805 64.1265C81.7305 64.0067 81.7506 63.875 81.739 63.7443V20.1769C81.7251 19.7987 81.6205 19.4309 81.4352 19.1094L79.8935 20.0705C80.0778 20.3923 80.1811 20.7602 80.1935 21.1381V64.6973C80.2078 64.8284 80.1893 64.9613 80.1399 65.0821C80.0905 65.2029 80.012 65.3073 79.9125 65.3845Z" fill="black"/>
<path d="M76.3126 21.3213L62.5324 12.7322C62.0767 12.4499 61.7084 12.679 61.7084 13.2434V22.6792C61.7239 22.9873 61.8066 23.287 61.9497 23.5542C62.0929 23.8214 62.2925 24.0485 62.5324 24.2171L76.3126 32.8062C76.7645 33.0884 77.1328 32.8594 77.1328 32.295V22.8551C77.1171 22.5481 77.0347 22.2494 76.8923 21.983C76.7498 21.7166 76.5513 21.4899 76.3126 21.3213Z" fill="#455A64"/>
<path d="M61.7084 26.6011C61.7284 26.8991 61.8135 27.1877 61.9567 27.4436C62.0999 27.6995 62.2971 27.9153 62.5324 28.0735L76.3126 36.6422C76.7645 36.9245 77.1328 36.724 77.1328 36.1923C77.1123 35.8955 77.0274 35.6081 76.8849 35.353C76.7425 35.098 76.5465 34.8826 76.3126 34.724L62.5324 26.1553C62.0767 25.8731 61.7084 26.0735 61.7084 26.6011Z" fill="#455A64"/>
<path d="M61.7084 30.4488C61.7284 30.7468 61.8135 31.0355 61.9567 31.2913C62.0999 31.5472 62.2971 31.763 62.5324 31.9213L76.3126 40.5104C76.7645 40.7926 77.1328 40.5922 77.1328 40.0605C77.1123 39.7637 77.0274 39.4762 76.8849 39.2212C76.7425 38.9662 76.5465 38.7507 76.3126 38.5922L62.5324 30.003C62.0767 29.7085 61.7084 29.9089 61.7084 30.4488Z" fill="#455A64"/>
<path d="M61.7084 34.273C61.7284 34.571 61.8135 34.8596 61.9567 35.1155C62.0999 35.3713 62.2971 35.5872 62.5324 35.7454L76.3126 44.3346C76.7645 44.6168 77.1328 44.4164 77.1328 43.8847C77.1123 43.5879 77.0274 43.3004 76.8849 43.0454C76.7425 42.7903 76.5465 42.5749 76.3126 42.4163L62.5324 33.8272C62.0767 33.545 61.7084 33.7454 61.7084 34.273Z" fill="#455A64"/>
<path d="M61.7084 38.1108C61.7284 38.4088 61.8135 38.6974 61.9567 38.9533C62.0999 39.2091 62.2971 39.425 62.5324 39.5832L76.3126 48.1519C76.7645 48.4341 77.1328 48.2337 77.1328 47.702C77.1123 47.4052 77.0274 47.1177 76.8849 46.8627C76.7425 46.6077 76.5465 46.3922 76.3126 46.2337L62.5324 37.6445C62.0767 37.4032 61.7084 37.5832 61.7084 38.1108Z" fill="#455A64"/>
<path d="M77.1328 51.539C77.1328 52.0666 76.7531 52.267 76.3126 51.9848L74.8697 51.0891C74.6358 50.9305 74.4398 50.715 74.2973 50.46C74.1549 50.205 74.07 49.9175 74.0494 49.6207C74.0494 49.089 74.4292 48.8886 74.8697 49.1708L76.3126 50.0665C76.5469 50.2255 76.7433 50.4416 76.8858 50.6974C77.0282 50.9531 77.1129 51.2414 77.1328 51.539Z" fill="#455A64"/>
<path d="M71.9531 48.3295C71.9531 48.8571 71.5734 49.0575 71.1291 48.7753L62.5245 43.4173C62.2893 43.259 62.0921 43.0432 61.9489 42.7873C61.8057 42.5315 61.7206 42.2428 61.7006 41.9449C61.7006 41.4172 62.0803 41.2168 62.5245 41.499L71.1291 46.857C71.3644 47.0153 71.5616 47.2311 71.7048 47.487C71.848 47.7429 71.9331 48.0315 71.9531 48.3295Z" fill="#455A64"/>
<path d="M77.1328 55.3925C77.1328 55.9201 76.7531 56.1205 76.3126 55.8383L74.8697 54.9426C74.6358 54.784 74.4398 54.5686 74.2973 54.3135C74.1549 54.0585 74.07 53.771 74.0494 53.4742C74.0494 52.9425 74.4292 52.7421 74.8697 53.0243L76.3126 53.92C76.5469 54.079 76.7433 54.2951 76.8858 54.5509C77.0282 54.8067 77.1129 55.095 77.1328 55.3925Z" fill="#455A64"/>
<path d="M71.9531 52.1615C71.9531 52.6891 71.5734 52.8895 71.1291 52.6073L62.5245 47.2493C62.2893 47.0911 62.0921 46.8752 61.9489 46.6194C61.8057 46.3635 61.7206 46.0749 61.7006 45.7769C61.7006 45.2493 62.0803 45.0489 62.5245 45.3311L71.1291 50.6891C71.3644 50.8473 71.5616 51.0632 71.7048 51.319C71.848 51.5749 71.9331 51.8635 71.9531 52.1615Z" fill="#455A64"/>
<path d="M77.1328 59.2108C77.1328 59.7385 76.7531 59.9389 76.3126 59.6567L74.8697 58.7609C74.6358 58.6024 74.4398 58.3869 74.2973 58.1319C74.1549 57.8769 74.07 57.5894 74.0494 57.2926C74.0494 56.7609 74.4292 56.5605 74.8697 56.8427L76.3126 57.7384C76.5469 57.8974 76.7433 58.1135 76.8858 58.3692C77.0282 58.625 77.1129 58.9133 77.1328 59.2108Z" fill="#455A64"/>
<path d="M71.9531 56.0012C71.9531 56.5288 71.5734 56.7293 71.1291 56.447L62.5245 51.0891C62.2898 50.9312 62.0929 50.716 61.9497 50.4609C61.8065 50.2058 61.7212 49.918 61.7006 49.6207C61.7006 49.089 62.0803 48.8886 62.5245 49.1708L71.1291 54.5288C71.3644 54.6871 71.5616 54.9029 71.7048 55.1587C71.848 55.4146 71.9331 55.7033 71.9531 56.0012Z" fill="#455A64"/>
<path d="M40.386 18.4915L41.9049 17.5303C42.0168 17.4743 42.1407 17.4515 42.2636 17.4645C42.3864 17.4774 42.5038 17.5256 42.6036 17.604L62.2354 29.8292C62.5221 30.0314 62.7608 30.3033 62.9323 30.6229C63.1038 30.9426 63.2032 31.3011 63.2227 31.6697V75.229C63.2357 75.3608 63.2159 75.4941 63.1651 75.6149C63.1144 75.7357 63.0346 75.8397 62.9341 75.9161L61.3962 76.8732H61.3772C61.2675 76.921 61.1484 76.9382 61.0309 76.9232C60.9134 76.9082 60.8013 76.8614 60.7051 76.7873L55.5218 73.5643V76.9223C55.5218 77.5154 55.4345 77.8589 55.294 77.953L53.7751 78.906H53.7561C53.5814 79.0082 53.327 78.7465 53.046 78.088L49.3665 69.7033L41.0999 64.5335C40.8131 64.3312 40.5744 64.0594 40.403 63.7397C40.2315 63.42 40.132 63.0615 40.1126 62.6929V19.1745C40.0989 19.0449 40.117 18.9137 40.1649 18.7939C40.2129 18.674 40.2891 18.5698 40.386 18.4915Z" fill="#0077B5"/>
<path opacity="0.4" d="M40.4314 18.4634C40.5406 18.4214 40.6574 18.408 40.7724 18.4244C40.8873 18.4407 40.9969 18.4864 41.0921 18.5575L60.7201 30.7909C61.0052 30.9819 61.2404 31.248 61.4036 31.5639L62.9453 30.6028C62.7821 30.2868 62.5468 30.0208 62.2618 29.8297L42.6376 17.5963C42.5062 17.5083 42.3556 17.4589 42.2009 17.4532C42.1107 17.4518 42.0217 17.4758 41.9427 17.5227L40.4314 18.4634Z" fill="white"/>
<path opacity="0.2" d="M55.2956 77.9707C55.4361 77.8767 55.5234 77.5331 55.5234 76.94V73.5862L53.9818 72.625V77.8971C53.9818 78.4615 53.902 78.8051 53.7729 78.9196L55.2956 77.9707Z" fill="black"/>
<path opacity="0.1" d="M61.4003 76.8782L62.9382 75.9212C63.0371 75.8443 63.1156 75.7407 63.1656 75.6208C63.2156 75.5009 63.2354 75.3689 63.223 75.2381V31.6788C63.2106 31.301 63.1072 30.9331 62.923 30.6113L61.3813 31.5725C61.5655 31.8943 61.6689 32.2622 61.6813 32.64V76.1993C61.6942 76.3291 61.675 76.4603 61.6256 76.5795C61.5763 76.6987 61.4985 76.8018 61.4003 76.8782Z" fill="black"/>
<path d="M57.7932 32.8018L44.013 24.2126C43.5611 23.9304 43.1928 24.1595 43.1928 24.7239V34.1842C43.2081 34.4918 43.2904 34.7912 43.4328 35.0584C43.5753 35.3255 43.774 35.5528 44.013 35.7221L57.7932 44.3112C58.2489 44.5935 58.6172 44.3644 58.6172 43.8V34.3356C58.6017 34.0281 58.519 33.7289 58.3758 33.4623C58.2326 33.1958 58.033 32.9695 57.7932 32.8018Z" fill="#455A64"/>
<path d="M43.1928 38.0894C43.2127 38.3869 43.2973 38.6752 43.4398 38.931C43.5823 39.1868 43.7786 39.4029 44.013 39.5618L57.7932 48.1305C58.2489 48.4127 58.6172 48.2123 58.6172 47.6806C58.5965 47.3834 58.5112 47.0955 58.368 46.8404C58.2249 46.5853 58.0279 46.3701 57.7932 46.2123L44.013 37.6436C43.5611 37.3614 43.1928 37.5618 43.1928 38.0894Z" fill="#455A64"/>
<path d="M43.1928 41.9239C43.2127 42.2214 43.2973 42.5097 43.4398 42.7655C43.5823 43.0213 43.7786 43.2374 44.013 43.3963L57.7932 51.965C58.2489 52.2473 58.6172 52.0468 58.6172 51.5151C58.5965 51.2179 58.5112 50.93 58.368 50.6749C58.2249 50.4198 58.0279 50.2047 57.7932 50.0468L44.013 41.4945C43.5611 41.1959 43.1928 41.3963 43.1928 41.9239Z" fill="#455A64"/>
<path d="M43.1928 45.7613C43.2144 46.0567 43.2999 46.3425 43.4423 46.596C43.5847 46.8495 43.7801 47.0637 44.013 47.2214L57.7932 55.8106C58.2489 56.0928 58.6172 55.8924 58.6172 55.3607C58.5965 55.0634 58.5112 54.7756 58.368 54.5205C58.2249 54.2654 58.0279 54.0502 57.7932 53.8923L44.013 45.3155C43.5611 45.0332 43.1928 45.2337 43.1928 45.7613Z" fill="#455A64"/>
<path d="M43.1928 49.5987C43.2127 49.8962 43.2973 50.1845 43.4398 50.4403C43.5823 50.6961 43.7786 50.9122 44.013 51.0712L57.7932 59.6603C58.2489 59.9425 58.6172 59.7421 58.6172 59.2104C58.5965 58.9132 58.5112 58.6253 58.368 58.3702C58.2249 58.1151 58.0279 57.8999 57.7932 57.7421L44.013 49.1529C43.5611 48.8584 43.1928 49.0711 43.1928 49.5987Z" fill="#455A64"/>
<path d="M58.6172 63.0272C58.6172 63.5549 58.2375 63.7553 57.7932 63.4731L56.354 62.5773C56.1193 62.4195 55.9223 62.2043 55.7792 61.9492C55.636 61.6941 55.5507 61.4063 55.53 61.109C55.53 60.5773 55.9098 60.3769 56.354 60.6591L57.7932 61.5548C58.0284 61.7131 58.2257 61.9289 58.3689 62.1848C58.512 62.4406 58.5971 62.7293 58.6172 63.0272Z" fill="#455A64"/>
<path d="M53.4375 59.8236C53.4375 60.3512 53.0578 60.5516 52.6135 60.2694L44.0089 54.9114C43.7746 54.7525 43.5783 54.5364 43.4358 54.2806C43.2933 54.0248 43.2087 53.7365 43.1887 53.439C43.1887 52.9114 43.5685 52.711 44.0089 52.9932L52.6173 58.3512C52.8516 58.5101 53.048 58.7262 53.1905 58.982C53.3329 59.2378 53.4176 59.5261 53.4375 59.8236Z" fill="#455A64"/>
<path d="M58.6172 66.8593C58.6172 67.3869 58.2375 67.5873 57.7932 67.3051L56.354 66.4094C56.1193 66.2515 55.9223 66.0363 55.7792 65.7812C55.636 65.5261 55.5507 65.2383 55.53 64.941C55.53 64.4093 55.9098 64.2089 56.354 64.4911L57.7932 65.3868C58.0284 65.5451 58.2257 65.7609 58.3689 66.0168C58.512 66.2726 58.5971 66.5613 58.6172 66.8593Z" fill="#455A64"/>
<path d="M53.4375 63.6576C53.4375 64.1852 53.0578 64.3856 52.6135 64.1034L44.0089 58.7454C43.7746 58.5865 43.5783 58.3704 43.4358 58.1146C43.2933 57.8588 43.2087 57.5705 43.1887 57.273C43.1887 56.7454 43.5685 56.545 44.0089 56.8272L52.6173 62.1852C52.8516 62.3441 53.048 62.5602 53.1905 62.816C53.3329 63.0718 53.4176 63.3601 53.4375 63.6576Z" fill="#455A64"/>
<path d="M58.6172 70.705C58.6172 71.2326 58.2375 71.433 57.7932 71.1508L56.354 70.2551C56.1193 70.0972 55.9223 69.882 55.7792 69.6269C55.636 69.3718 55.5507 69.084 55.53 68.7867C55.53 68.255 55.9098 68.0546 56.354 68.3368L57.7932 69.2325C58.0284 69.3908 58.2257 69.6066 58.3689 69.8625C58.512 70.1184 58.5971 70.407 58.6172 70.705Z" fill="#455A64"/>
<path d="M53.4375 67.4895C53.4375 68.0171 53.0578 68.2175 52.6135 67.9353L44.0089 62.5773C43.7751 62.4188 43.5791 62.2033 43.4366 61.9483C43.2941 61.6933 43.2092 61.4058 43.1887 61.109C43.1887 60.5773 43.5685 60.3769 44.0089 60.6591L52.6173 66.0334C52.8497 66.1908 53.0448 66.4043 53.1872 66.6571C53.3295 66.9098 53.4153 67.1948 53.4375 67.4895Z" fill="#455A64"/>
<path d="M20.3222 1.61155L22.3651 0.351803H22.3841C23.2841 -0.192177 24.5182 -0.110375 25.8852 0.736271C28.6382 2.45001 30.8672 6.61371 30.8672 10.0371C30.8672 11.7427 30.3128 12.9451 29.4128 13.5055L27.5674 14.6425L27.1269 13.8245C26.6241 13.7058 26.1412 13.5043 25.6953 13.2274C22.9461 11.5177 20.7133 7.35401 20.7133 3.93062C20.7148 3.46887 20.7671 3.00894 20.869 2.56044L20.3222 1.61155Z" fill="#0077B5"/>
<path d="M30.8516 9.9994C30.8516 11.7091 30.2972 12.9115 29.3972 13.4719L27.5518 14.6089L27.1113 13.8154C26.6089 13.6933 26.1263 13.4906 25.6797 13.2142C24.1064 12.1476 22.8289 10.6444 21.9812 8.86236L29.196 4.36328C30.2095 6.04688 30.7815 7.99429 30.8516 9.9994Z" fill="#263238"/>
<path d="M20.3135 1.60671L22.3413 0.34697H22.3603C23.2602 -0.201099 24.4943 -0.119297 25.8613 0.731438C27.2294 1.63855 28.3733 2.88891 29.1953 4.37569L21.9805 8.87477C21.1954 7.37289 20.7577 5.68936 20.7047 3.96668C20.7061 3.50494 20.7584 3.04501 20.8603 2.59651L20.3135 1.60671Z" fill="#455A64"/>
<path d="M23.9477 1.91391C26.6969 3.62356 28.9297 7.78726 28.9297 11.2311C28.9297 14.6749 26.6969 16.041 23.9477 14.3273C21.1985 12.6135 18.9467 8.43349 18.9467 5.0101C18.9467 1.5867 21.1947 0.187899 23.9477 1.91391Z" fill="#37474F"/>
<path d="M23.5821 4.74523C23.4346 4.68985 23.2761 4.67716 23.1226 4.70842C22.9975 4.73967 22.8822 4.80598 22.7885 4.90066C22.698 4.99561 22.6291 5.11179 22.5872 5.24013C22.5392 5.37078 22.511 5.50887 22.5037 5.64914C22.5012 5.71742 22.5156 5.78518 22.5455 5.84546C22.5684 5.89922 22.6054 5.94468 22.6518 5.97635L23.0315 6.20948C23.0923 6.25038 23.1378 6.25856 23.1682 6.23811C23.2053 6.21247 23.2344 6.17542 23.2517 6.13177C23.2779 6.07898 23.3136 6.03228 23.3566 5.99438C23.3996 5.95648 23.4491 5.9281 23.5024 5.9109C23.5873 5.89773 23.6738 5.90326 23.7567 5.92717C23.8396 5.95107 23.9171 5.99285 23.9846 6.04996C24.0812 6.10839 24.1706 6.17986 24.2504 6.26265C24.3339 6.34552 24.4078 6.43889 24.4706 6.54078C24.5335 6.63923 24.5833 6.7466 24.6187 6.8598C24.6533 6.96774 24.6712 7.08102 24.6719 7.19519C24.6799 7.29902 24.6588 7.40305 24.6112 7.49376C24.5889 7.52539 24.5603 7.55108 24.5273 7.56881C24.4944 7.58655 24.4581 7.59586 24.4213 7.59602C24.3076 7.60147 24.1937 7.58906 24.0833 7.5592L23.5821 7.43241C23.4051 7.38199 23.2221 7.35994 23.0391 7.36697C22.9009 7.3696 22.7674 7.42136 22.6594 7.51421C22.5569 7.61411 22.4853 7.74544 22.4543 7.8905C22.4114 8.09027 22.391 8.29489 22.3936 8.49992C22.3963 8.73035 22.4244 8.95962 22.4771 9.18296C22.5324 9.42046 22.6113 9.65084 22.7125 9.87009C22.8172 10.0958 22.9445 10.3084 23.0923 10.5041C23.2386 10.7012 23.4055 10.8796 23.5897 11.0358V11.637C23.5909 11.704 23.6065 11.7698 23.6353 11.8292C23.6546 11.8841 23.689 11.9312 23.734 11.9642L24.1707 12.2342C24.1847 12.248 24.203 12.2556 24.2219 12.2556C24.2409 12.2556 24.2592 12.248 24.2732 12.2342C24.2884 12.2152 24.3 12.1931 24.3071 12.1692C24.3143 12.1453 24.317 12.1201 24.315 12.0951V11.4898C24.46 11.5446 24.6133 11.5696 24.7668 11.5634C24.902 11.557 25.0331 11.5118 25.1466 11.4325C25.2572 11.3466 25.3449 11.231 25.401 11.0971C25.4704 10.9226 25.5065 10.7348 25.5073 10.545C25.5108 10.4766 25.4963 10.4085 25.4655 10.3486C25.4438 10.2941 25.4083 10.2474 25.363 10.2137L24.9833 9.98053C24.9225 9.94371 24.877 9.93145 24.8428 9.94781C24.8052 9.97363 24.777 10.0126 24.763 10.0582C24.7364 10.119 24.706 10.1778 24.6719 10.2341C24.6359 10.2874 24.5855 10.3274 24.5276 10.3486C24.4527 10.3675 24.3747 10.3675 24.2998 10.3486C24.1784 10.3183 24.0628 10.2657 23.958 10.1932C23.8485 10.1249 23.7443 10.0469 23.6467 9.96008C23.5498 9.87225 23.462 9.77352 23.3846 9.66559C23.3102 9.55868 23.2489 9.44182 23.2024 9.31794C23.156 9.19596 23.1328 9.06525 23.134 8.93347C23.1286 8.88462 23.1326 8.83511 23.1456 8.78798C23.1587 8.74085 23.1806 8.6971 23.21 8.65943C23.2418 8.6322 23.2783 8.61204 23.3174 8.6001C23.3565 8.58817 23.3974 8.5847 23.4378 8.5899C23.5661 8.59747 23.6934 8.6194 23.8175 8.65534C23.9694 8.69624 24.1403 8.73305 24.3378 8.77395C24.4919 8.81313 24.6508 8.82555 24.8086 8.81076C24.9314 8.8018 25.0478 8.74849 25.139 8.65943C25.2343 8.55326 25.3024 8.42216 25.3364 8.27906C25.3836 8.06614 25.4053 7.84759 25.401 7.62873C25.4012 7.39539 25.3732 7.16301 25.3174 6.93751C25.2645 6.70803 25.1908 6.48472 25.0972 6.27083C25.0042 6.05746 24.8896 5.85583 24.7554 5.66959C24.6271 5.48803 24.482 5.32086 24.3226 5.1706V4.56936C24.321 4.50288 24.3068 4.43746 24.2808 4.37713C24.2591 4.32264 24.2236 4.27585 24.1783 4.24215L23.7416 3.97221C23.7282 3.95869 23.7106 3.95117 23.6922 3.95117C23.6739 3.95117 23.6562 3.95869 23.6428 3.97221C23.6264 3.99046 23.6138 4.01234 23.6059 4.03635C23.598 4.06036 23.5951 4.08592 23.5973 4.11127L23.5821 4.74523Z" fill="#FAFAFA"/>
<path d="M20.3222 41.6262L22.3651 40.3665H22.3841C23.2841 39.8184 24.5182 39.9002 25.8852 40.751C28.6382 42.4606 30.8672 46.6243 30.8672 50.0477C30.8672 51.7574 30.3128 52.9557 29.4128 53.5202L27.5674 54.6531L27.1269 53.8597C26.6246 53.739 26.142 53.5377 25.6953 53.2625C22.9461 51.5488 20.7133 47.3851 20.7133 43.9617C20.715 43.4999 20.7673 43.04 20.869 42.5915L20.3222 41.6262Z" fill="#0077B5"/>
<path d="M30.8516 50.039C30.8516 51.7487 30.2972 52.9471 29.3972 53.5115L27.5518 54.6444L27.1113 53.851C26.6089 53.7288 26.1263 53.5261 25.6797 53.2497C24.1051 52.1814 22.8273 50.6751 21.9812 48.8897L29.196 44.3906C30.2104 46.0783 30.7824 48.0299 30.8516 50.039Z" fill="#263238"/>
<path d="M20.3133 41.6262L22.3411 40.3665H22.36C23.26 39.8184 24.4941 39.9002 25.8611 40.751C27.2273 41.6614 28.3686 42.9146 29.1875 44.4034L21.9727 48.9025C21.1807 47.3871 20.7416 45.6876 20.693 43.9494C20.6948 43.4877 20.747 43.0278 20.8487 42.5792L20.3133 41.6262Z" fill="#455A64"/>
<path d="M23.9477 41.9318C26.6969 43.6414 28.9297 47.8051 28.9297 51.2285C28.9297 54.6519 26.6969 56.0384 23.9477 54.3288C21.1985 52.6191 18.9467 48.4473 18.9467 45.032C18.9467 41.6168 21.1947 40.2221 23.9477 41.9318Z" fill="#37474F"/>
<path d="M21.4102 49.3529L26.4795 52.5064C26.5403 52.5432 26.5858 52.5064 26.5858 52.3959V47.5533C26.587 47.5063 26.578 47.4597 26.5596 47.4171C26.5411 47.3745 26.5137 47.3371 26.4795 47.3079L21.4102 44.1544C21.3532 44.1176 21.3039 44.1544 21.3039 44.2649V49.1116C21.3033 49.1579 21.3125 49.2037 21.331 49.2456C21.3494 49.2874 21.3765 49.3241 21.4102 49.3529Z" fill="#FAFAFA"/>
<path d="M22.9432 45.4353C23.0001 45.4721 23.0495 45.4353 23.0495 45.3249V44.5886L24.8304 45.6971V46.4333C24.8297 46.4806 24.8393 46.5275 24.8584 46.5701C24.8775 46.6127 24.9056 46.6499 24.9405 46.6787C24.9975 46.7155 25.0468 46.6787 25.0468 46.5682V45.6521C25.0474 45.6058 25.0382 45.5599 25.0197 45.5181C25.0013 45.4762 24.9742 45.4395 24.9405 45.4107L22.9432 44.1837C22.8824 44.1469 22.8369 44.1837 22.8369 44.2942V45.1817C22.8338 45.2301 22.8419 45.2786 22.8605 45.3229C22.879 45.3671 22.9074 45.4057 22.9432 45.4353Z" fill="#FAFAFA"/>
<path d="M22.9432 44.5208L24.9405 45.7479C24.9975 45.7847 25.0469 45.7479 25.0469 45.6374V45.2284C25.0472 45.1816 25.0378 45.1352 25.0194 45.0928C25.0011 45.0503 24.9741 45.0128 24.9405 44.983L22.9432 43.756C22.8824 43.7192 22.8369 43.756 22.8369 43.8664V44.2754C22.8357 44.3224 22.8447 44.3691 22.8631 44.4117C22.8816 44.4543 22.909 44.4916 22.9432 44.5208Z" fill="#FAFAFA"/>
<path d="M23.2235 47.5396L24.674 48.4394C24.7158 48.468 24.75 48.4394 24.75 48.3576V48.0631C24.7506 48.0295 24.744 47.9962 24.7309 47.9657C24.7177 47.9352 24.6983 47.9084 24.674 47.8873L23.2235 46.9874C23.1779 46.9588 23.1437 46.9874 23.1437 47.0651V47.3596C23.143 47.3943 23.1498 47.4286 23.1637 47.4599C23.1775 47.4911 23.198 47.5184 23.2235 47.5396Z" fill="#37474F"/>
<path d="M20.3222 21.6206L22.3651 20.3567H22.3841C23.2841 19.8087 24.5182 19.8905 25.8852 20.7412C28.6382 22.4549 30.8672 26.6145 30.8672 30.0379C30.8672 31.7476 30.3128 32.9501 29.4128 33.5104L27.5674 34.6434L27.1269 33.8499C26.6241 33.7311 26.1412 33.5297 25.6953 33.2527C22.9461 31.539 20.7133 27.3794 20.7133 23.956C20.7148 23.4929 20.7671 23.0316 20.869 22.5817L20.3222 21.6206Z" fill="#0077B5"/>
<path d="M30.8516 30.0456C30.8516 31.7553 30.2972 32.9577 29.3972 33.5181L27.5518 34.651L27.1113 33.8576C26.6085 33.7388 26.1256 33.5374 25.6797 33.2604C24.1029 32.186 22.825 30.6724 21.9812 28.8799L29.196 24.3809C30.213 26.0733 30.7851 28.0309 30.8516 30.0456Z" fill="#263238"/>
<path d="M20.3133 21.6188L22.3411 20.355H22.36C23.26 19.811 24.4941 19.8887 25.8611 20.7395C27.2273 21.6499 28.3686 22.9031 29.1875 24.3919L21.9727 28.891C21.1855 27.3826 20.7478 25.6919 20.6968 23.9624C20.6983 23.4993 20.7506 23.0381 20.8525 22.5882L20.3133 21.6188Z" fill="#455A64"/>
<path d="M23.9477 21.9241C26.6969 23.6378 28.9297 27.7975 28.9297 31.2208C28.9297 34.6442 26.6969 36.0349 23.9477 34.3211C21.1985 32.6074 18.9467 28.4478 18.9467 25.0244C18.9467 21.601 21.1947 20.2308 23.9477 21.9241Z" fill="#37474F"/>
<path d="M25.7812 27.3733C25.7812 26.5962 25.4015 25.7373 24.9307 25.4346C24.4598 25.1319 24.0801 25.5368 24.0801 26.318C24.0801 27.0993 24.4598 27.9541 24.9307 28.2567C25.4015 28.5594 25.7812 28.1545 25.7812 27.3733Z" fill="white"/>
<path d="M23.4101 31.2972L26.5391 33.244L26.372 31.0027C26.2998 30.0497 25.8328 29.0722 25.2784 28.7286L24.6746 28.3523C24.1202 28.0087 23.6531 28.4014 23.581 29.2685L23.4101 31.2972Z" fill="white"/>
<path d="M23.7188 25.0334C23.7188 24.2563 23.339 23.3974 22.8682 23.0948C22.3973 22.7921 22.0176 23.197 22.0176 23.9782C22.0176 24.7594 22.3973 25.6142 22.8682 25.9169C23.339 26.2196 23.7188 25.8146 23.7188 25.0334Z" fill="white"/>
<path d="M21.3539 28.9648L23.2715 30.1591L23.3588 29.0875C23.4234 28.3349 23.7386 27.8605 24.1562 27.8605C24.0092 27.274 23.6777 26.7608 23.2183 26.4085L22.6146 26.0363C22.0602 25.6886 21.5931 26.0813 21.521 26.9484L21.3539 28.9648Z" fill="white"/>
<path d="M72.298 105.226C72.298 102.69 73.8548 100.154 76.9686 98.2194C83.1923 94.3461 93.2968 94.3461 99.5091 98.2194C102.623 100.154 104.18 102.69 104.18 105.226V109.901C104.18 112.437 102.623 114.972 99.5091 116.911C93.2854 120.78 83.1809 120.78 76.9686 116.911C73.8548 114.972 72.298 112.437 72.298 109.901V105.226ZM98.7382 99.655C95.9586 97.9249 92.2297 96.976 88.2388 96.976C84.2479 96.976 80.519 97.9249 77.7394 99.655C75.2257 101.217 73.8397 103.197 73.8397 105.226C73.8397 107.254 75.2257 109.234 77.7394 110.796C80.519 112.527 84.2593 113.479 88.2388 113.479C92.2183 113.479 95.9586 112.527 98.7382 110.796C101.252 109.234 102.638 107.254 102.638 105.226C102.638 103.197 101.252 101.209 98.7382 99.655Z" fill="#0077B5"/>
<path opacity="0.3" d="M99.507 112.248C93.2795 116.117 83.1788 116.117 76.9627 112.248C70.7466 108.379 70.739 102.101 76.9627 98.2316C83.1864 94.3624 93.2909 94.3583 99.507 98.2316C105.723 102.105 105.731 108.363 99.507 112.248ZM102.632 105.238C102.632 103.193 101.25 101.23 98.7361 99.6672C95.9565 97.9371 92.2238 96.9882 88.2329 96.9882C84.242 96.9882 80.5131 97.9371 77.7335 99.6672C75.2197 101.23 73.8375 103.209 73.8375 105.238C73.8375 107.267 75.2197 109.246 77.7335 110.809C80.5131 112.522 84.2534 113.475 88.2329 113.475C92.2124 113.475 95.9565 112.522 98.7361 110.792C101.25 109.23 102.632 107.25 102.632 105.222V105.238Z" fill="white"/>
<path d="M102.633 105.224C102.624 106.05 102.408 106.858 102.01 107.564C101.38 106.386 100.267 105.277 98.733 104.329C95.9573 102.598 92.2246 101.645 88.2336 101.645C84.2427 101.645 80.5138 102.598 77.7342 104.329C76.4005 105.085 75.2705 106.199 74.4534 107.564C74.0577 106.857 73.844 106.05 73.8345 105.224C73.8345 103.179 75.2205 101.216 77.7342 99.6536C80.5138 97.9276 84.2427 96.9746 88.2336 96.9746C92.2246 96.9746 95.9573 97.9276 98.733 99.6536C101.251 101.208 102.633 103.196 102.633 105.224Z" fill="#0077B5"/>
<path opacity="0.1" d="M102.633 105.224C102.624 106.05 102.408 106.858 102.01 107.564C101.38 106.386 100.267 105.277 98.733 104.329C95.9573 102.598 92.2246 101.645 88.2336 101.645C84.2427 101.645 80.5138 102.598 77.7342 104.329C76.4005 105.085 75.2705 106.199 74.4534 107.564C74.0577 106.857 73.844 106.05 73.8345 105.224C73.8345 103.179 75.2205 101.216 77.7342 99.6536C80.5138 97.9276 84.2427 96.9746 88.2336 96.9746C92.2246 96.9746 95.9573 97.9276 98.733 99.6536C101.251 101.208 102.633 103.196 102.633 105.224Z" fill="black"/>
<path opacity="0.4" d="M98.7409 101.773C95.9614 100.047 92.2287 99.0938 88.2377 99.0938C84.2468 99.0938 80.5179 100.047 77.7384 101.773C75.6651 103.065 74.3626 104.636 73.9677 106.272C74.3474 107.908 75.6651 109.495 77.7384 110.771C80.5179 112.53 84.2582 113.483 88.2377 113.483C92.2173 113.483 95.9614 112.53 98.7409 110.8C100.814 109.511 102.117 107.936 102.508 106.3C102.105 104.636 100.814 103.065 98.7409 101.773Z" fill="white"/>
<path opacity="0.1" d="M91.9923 114.861V119.532C94.6291 119.18 97.1795 118.29 99.5071 116.91C102.621 114.972 104.178 112.436 104.178 109.9V105.225C104.177 104.708 104.113 104.194 103.988 103.695C104.747 106.714 103.251 109.908 99.5109 112.235C97.1824 113.617 94.6306 114.508 91.9923 114.861Z" fill="black"/>
<path d="M99.0401 115.203C99.0596 114.786 99.1701 114.38 99.3628 114.017C99.5554 113.655 99.8248 113.346 100.149 113.117C100.261 113.029 100.393 112.974 100.531 112.958C100.669 112.942 100.808 112.966 100.935 113.027L106.285 116.336C106.4 116.42 106.491 116.537 106.549 116.673C106.607 116.81 106.628 116.96 106.612 117.109C106.595 117.525 106.488 117.93 106.3 118.293C106.111 118.656 105.846 118.966 105.526 119.199C105.413 119.288 105.281 119.343 105.142 119.358C105.003 119.373 104.863 119.348 104.736 119.285L99.3705 115.988C99.2555 115.901 99.1642 115.782 99.1061 115.644C99.048 115.506 99.0252 115.354 99.0401 115.203Z" fill="#37474F"/>
<path d="M99.3625 115.986C99.2481 115.899 99.1572 115.781 99.0992 115.643C99.0411 115.506 99.018 115.355 99.0322 115.205C99.0368 114.894 99.1001 114.588 99.2182 114.305L106.141 118.567C105.974 118.821 105.763 119.036 105.518 119.201C105.405 119.289 105.273 119.344 105.134 119.359C104.995 119.374 104.855 119.349 104.728 119.286L99.3625 115.99V115.986Z" fill="#263238"/>
<path d="M104.624 119.208C104.649 118.664 104.792 118.134 105.043 117.662C105.294 117.189 105.645 116.787 106.067 116.488C106.211 116.375 106.38 116.305 106.558 116.284C106.735 116.263 106.914 116.293 107.077 116.369L124.875 126.595L122.217 131.65L105.038 120.198C104.895 120.086 104.782 119.936 104.709 119.762C104.636 119.588 104.607 119.397 104.624 119.208Z" fill="#0077B5"/>
<path opacity="0.1" d="M122.227 131.645L105.048 120.193C104.899 120.082 104.781 119.929 104.705 119.751C104.63 119.573 104.6 119.377 104.619 119.183C104.641 118.601 104.807 118.036 105.101 117.547L123.594 129.024L122.227 131.645Z" fill="black"/>
<path d="M123.57 131.471C124.125 131.08 124.586 130.553 124.916 129.933C125.246 129.313 125.435 128.618 125.469 127.905C125.469 126.596 124.611 126.068 123.57 126.727C123.016 127.118 122.554 127.644 122.225 128.263C121.895 128.882 121.705 129.576 121.672 130.289C121.664 131.619 122.518 132.146 123.57 131.471Z" fill="#0077B5"/>
<g opacity="0.2">
<path d="M123.57 131.473C124.125 131.082 124.586 130.555 124.916 129.935C125.246 129.315 125.435 128.62 125.469 127.907C125.469 126.598 124.611 126.07 123.57 126.729C123.016 127.12 122.554 127.646 122.225 128.265C121.895 128.884 121.705 129.578 121.672 130.291C121.664 131.621 122.518 132.148 123.57 131.473Z" fill="black"/>
</g>
<path d="M18.6645 86.3041C18.4708 78.5329 19.0442 76.6638 20.9694 75.2363L21.7289 79.7354C21.7289 79.7354 20.8517 85.0525 20.9466 86.8153C21.0264 88.3696 21.1669 90.3164 21.5086 91.5721C21.5712 91.793 21.7061 91.982 21.8884 92.1038C22.2864 92.4091 22.6418 92.7741 22.944 93.1877C23.2326 93.5149 23.4794 93.5967 23.4414 93.6989C23.3861 93.8131 23.2927 93.9005 23.1801 93.9437C23.0674 93.9869 22.9438 93.9828 22.8339 93.9321C22.5876 93.8268 22.3543 93.6894 22.139 93.523C22.3091 93.9999 22.5488 94.4445 22.8491 94.84C23.5364 95.744 23.5667 96.3002 22.1808 96.3166C21.3112 96.3166 20.6163 95.748 19.9632 93.6866C19.7107 92.9309 19.5064 92.1574 19.3518 91.3717C19.0267 89.6992 18.7972 88.0068 18.6645 86.3041Z" fill="#FFA8A7"/>
<path d="M22.5859 74.6481C21.9953 74.5344 21.3863 74.6304 20.8508 74.9218C20.3152 75.2132 19.882 75.6841 19.6165 76.2637C18.8115 77.8138 18.614 80.4846 18.5229 83.1391C18.5229 83.1391 20.1215 84.5829 22.0429 83.8753L22.5859 74.6481Z" fill="#0077B5"/>
<path d="M19.892 117.43C19.7477 117.491 19.7097 117.79 19.687 118.383C19.687 118.833 19.5844 119.61 20.0667 119.777C20.5489 119.945 21.2742 119.851 21.5856 119.43C21.9653 118.898 22.2425 118.436 22.8007 117.794C23.2867 117.233 23.8108 116.71 24.0044 115.925C24.1829 115.213 24.0348 114.906 23.5867 114.698C22.9678 114.415 21.9957 115.344 21.5096 115.487C21.0995 115.61 20.0401 117.373 19.892 117.43Z" fill="#263238"/>
<path d="M19.8902 116.881V117.609C20.1444 117.785 20.4383 117.882 20.7401 117.891C21.042 117.899 21.3403 117.819 21.6028 117.658C21.6332 117.589 21.7812 116.615 21.7812 116.615L19.8902 116.881Z" fill="#FFA8A7"/>
<path d="M25.3826 121.66C25.2628 122.051 25.1626 122.448 25.0826 122.85C24.9991 123.292 24.8775 124.028 25.0218 124.36C25.1661 124.691 25.7243 124.908 26.5939 124.9C27.3154 124.995 28.0094 125.255 28.6292 125.664C29.4375 126.034 30.3176 126.184 31.1924 126.102C31.9518 126.008 32.7644 125.525 32.8897 125.182C33.015 124.838 32.848 124.478 31.0291 123.644C31.0291 123.644 28.5001 122.756 27.6116 121.709L25.3826 121.66Z" fill="#263238"/>
<path d="M25.3873 120.84V121.691C25.3873 122.001 25.7214 122.464 26.6024 122.427C27.2175 122.402 27.6504 122.226 27.6238 121.678V120.889L25.3873 120.84Z" fill="#FFA8A7"/>
<path d="M19.4508 107.197C19.6013 105.904 19.8697 104.63 20.252 103.393C20.252 103.393 20.009 100.121 19.895 97.0045C19.7697 93.6465 19.895 89.4215 19.8419 88.583C19.8419 88.583 29.9046 86.3907 30.0945 90.2763C30.2843 94.1619 29.7147 104.043 29.578 105.749C29.4413 107.455 29.1983 108.96 28.8603 111.725C28.5224 114.49 27.63 120.899 27.63 120.899C27.2823 121.09 26.8962 121.185 26.506 121.176C26.1159 121.168 25.7337 121.056 25.3935 120.85C25.3935 120.85 24.6834 113.078 24.7593 111.119C24.8163 109.66 25.0486 108.215 25.4504 106.821C25.4504 106.821 25.2606 103.618 25.0935 100.833C24.9264 98.0474 24.7441 96.71 24.7138 95.5157L24.4973 95.4011C24.4973 95.4011 24.2771 100.207 24.1556 101.913C24.034 103.618 23.7758 105.254 23.3278 108.42C22.9291 111.168 21.7481 116.984 21.7481 116.984C20.6089 117.655 19.9102 116.899 19.9102 116.899C19.9102 116.899 19.1432 109.581 19.4508 107.197Z" fill="#37474F"/>
<path d="M24.6953 95.4872C24.6953 95.4872 22.2537 94.1907 21.031 93.0332C21.031 93.0332 22.1701 94.7551 23.6549 95.5159C23.6549 95.5159 24.1865 101.487 24.1827 101.369L24.4903 95.4872H24.6953Z" fill="#263238"/>
<path d="M26.8672 73.4164L26.271 76.9461L23.313 76.713L23.9319 72.7129L26.8672 73.4164Z" fill="#FFA8A7"/>
<path d="M20.1791 76.4566C20.4753 75.4954 21.6031 74.4525 22.7347 74.6774C24.4103 74.9869 26.0618 75.4326 27.6749 76.0108C28.7116 76.4198 29.6533 77.3728 29.7406 81.0416C29.7406 81.0416 30.0862 89.598 30.0938 91.2668C27.9324 92.1802 25.5784 92.4308 23.2929 91.9907C20.1791 91.2586 19.8032 89.868 19.8032 89.868C19.8032 89.868 19.7652 83.7329 19.8564 81.0579C19.9513 78.788 19.9779 77.1151 20.1791 76.4566Z" fill="#F5F5F5"/>
<path d="M29.1539 69.123C29.1539 69.123 29.9133 70.4114 29.8108 70.5341C29.7083 70.6568 29.1463 70.755 29.1463 70.755L29.1539 69.123Z" fill="#FFA8A7"/>
<path d="M27.0651 65.559C28.6296 65.968 29.0663 66.7124 29.1612 69.4037C29.2562 72.2218 28.9714 73.0848 28.6182 73.4692C28.3828 73.7187 27.0993 73.7351 26.45 73.5265C25.6412 73.2647 23.8223 72.5203 22.9907 71.0725C22.0148 69.3833 21.7946 67.1214 22.8996 66.2216C24.4488 64.9701 26.4272 65.3995 27.0651 65.559Z" fill="#FFA8A7"/>
<path d="M29.1429 66.256C28.7833 66.8201 28.2756 67.2559 27.6848 67.5075C27.3848 67.8756 27.5519 69.3112 27.0241 69.5526C27.0241 69.5526 26.7962 68.5055 25.9798 68.6159C25.1634 68.7264 25.0267 69.843 25.528 70.5464C26.0292 71.2499 26.5152 70.9923 26.5152 70.9923C26.5152 70.9923 26.4583 72.477 25.8279 73.3032C25.1732 73.4404 24.4974 73.4067 23.8572 73.205C23.0749 73.0046 21.9851 71.9166 21.5408 70.7837C20.5991 68.391 20.5763 66.256 21.9965 65.6506C22.1712 64.5586 22.98 64.0882 23.8951 63.8878C25.8659 63.4502 27.1342 64.7754 28.6493 64.6567C29.5189 64.579 29.6821 65.2621 29.1429 66.256Z" fill="#263238"/>
<path d="M21.9615 66.0062L21.0349 65.3846C21.0705 65.3139 21.119 65.2518 21.1777 65.2022C21.2363 65.1525 21.3038 65.1163 21.3759 65.0957C21.448 65.0752 21.5233 65.0708 21.597 65.0827C21.6708 65.0947 21.7415 65.1228 21.8048 65.1652C21.8681 65.2077 21.9227 65.2637 21.9652 65.3298C22.0077 65.3958 22.0371 65.4705 22.0518 65.5493C22.0665 65.6281 22.066 65.7092 22.0505 65.7878C22.035 65.8664 22.0047 65.9407 21.9615 66.0062Z" fill="#263238"/>
<path d="M40.2069 82.3626C39.7208 82.5957 33.987 87.1602 33.0908 86.6285C32.1947 86.0968 27.6114 80.3216 27.6114 80.3216C27.224 79.6764 27.0179 78.9243 27.0179 78.1559C27.0179 77.3875 27.224 76.6355 27.6114 75.9902C28.5074 76.1987 29.3032 76.7493 29.8518 77.5404C30.6112 78.7919 33.9452 83.2665 33.9452 83.2665C34.7654 82.8248 35.5856 82.3748 36.3982 81.9208C37.0704 81.5446 37.7463 81.1724 38.4032 80.7674C38.5885 80.6776 38.7621 80.5621 38.9196 80.4239C39.2462 80.0803 39.1892 79.2418 39.1816 78.7878C39.1842 78.5761 39.1754 78.3645 39.155 78.1539C39.1247 77.8921 39.0791 77.2582 39.5158 77.4586C39.5972 77.5026 39.6675 77.5671 39.7208 77.6467C39.7897 77.7424 39.8424 77.8504 39.8765 77.9657C39.9601 78.2398 39.9335 78.5424 40.0056 78.8165C40.0146 78.8583 40.0344 78.8966 40.0626 78.9269C40.0811 78.9444 40.1029 78.9574 40.1265 78.9651C40.15 78.9729 40.1748 78.9752 40.1993 78.9719C40.8296 78.9514 41.4296 77.9985 41.7182 77.4913C41.8233 77.2505 41.9891 77.0465 42.1966 76.9023C42.3794 76.8429 42.5754 76.8509 42.7536 76.925C42.9317 76.9991 43.0818 77.135 43.1801 77.3113C43.4531 77.7529 43.5653 78.2873 43.4953 78.8124C43.4389 79.5256 43.1465 80.1933 42.6713 80.6938C41.9454 81.3991 41.1116 81.9636 40.2069 82.3626Z" fill="#FFA8A7"/>
<path d="M27.1007 75.8066C27.731 75.8844 28.6196 75.7576 29.8575 77.1932C30.8568 78.4219 31.7887 79.7125 32.6484 81.0583C32.485 81.7647 32.1364 82.4055 31.6443 82.9044C31.1521 83.4034 30.5371 83.7393 29.8726 83.8723C29.8726 83.8723 27.7044 81.4755 27.1007 80.1585C26.4969 78.8415 26.3526 76.6983 27.1007 75.8066Z" fill="#0077B5"/>
</svg>
