<svg width="191" height="114" viewBox="0 0 191 114" fill="none" xmlns="http://www.w3.org/2000/svg">
<path d="M75.5016 92.3919C74.2377 92.3919 73.1106 92.1407 72.1205 91.6383C71.1515 91.1166 70.3826 90.4017 69.8138 89.4936C69.266 88.5855 68.9922 87.5421 68.9922 86.3634V77.0019H73.3213V85.7838C73.3213 86.7499 73.6267 87.5227 74.2377 88.1024C74.8697 88.6821 75.7123 88.9719 76.7656 88.9719C77.4819 88.9719 78.1244 88.8463 78.6932 88.5951C79.283 88.3246 79.7675 87.9478 80.1467 87.4648V77.0019H84.4758V92.1021H80.1467V90.8848C78.8828 91.8895 77.3344 92.3919 75.5016 92.3919ZM103.52 92.3919C101.898 92.3919 100.433 92.0538 99.1273 91.3775C97.8212 90.6819 96.789 89.7448 96.0306 88.5661C95.2722 87.3682 94.893 86.035 94.893 84.5665C94.893 83.0787 95.2722 81.7455 96.0306 80.5668C96.789 79.3882 97.8212 78.451 99.1273 77.7555C100.433 77.0599 101.898 76.7121 103.52 76.7121C104.826 76.7121 106.069 76.9439 107.248 77.4077C108.449 77.8714 109.481 78.538 110.345 79.4075L107.691 81.987C107.08 81.3687 106.437 80.9146 105.763 80.6248C105.11 80.3156 104.394 80.161 103.614 80.161C102.772 80.161 102.013 80.3543 101.339 80.7407C100.686 81.1272 100.16 81.6488 99.7593 82.3058C99.3801 82.9627 99.1906 83.7163 99.1906 84.5665C99.1906 85.378 99.3801 86.1219 99.7593 86.7982C100.16 87.4551 100.707 87.9768 101.402 88.3633C102.098 88.7304 102.867 88.9139 103.709 88.9139C104.447 88.9139 105.131 88.7787 105.763 88.5082C106.416 88.2183 107.038 87.7933 107.628 87.2329L110.219 89.7255C109.376 90.5563 108.365 91.2133 107.185 91.6963C106.005 92.16 104.784 92.3919 103.52 92.3919ZM112.154 92.1021V71.8139L116.483 71.1473V83.3492L123.593 77.0019H128.491L120.717 83.9288L128.965 92.1021H123.435L116.483 85.2041V92.1021H112.154ZM154.417 92.1021V77.0019H158.746V92.1021H154.417ZM156.566 75.2049C155.892 75.2049 155.312 74.9827 154.828 74.5383C154.343 74.0939 154.101 73.5626 154.101 72.9443C154.101 72.3066 154.343 71.7753 154.828 71.3502C155.312 70.9058 155.892 70.6836 156.566 70.6836C157.261 70.6836 157.84 70.9058 158.304 71.3502C158.788 71.7753 159.03 72.3066 159.03 72.9443C159.03 73.5626 158.788 74.0939 158.304 74.5383C157.84 74.9827 157.261 75.2049 156.566 75.2049ZM161.815 92.1021V77.0019H166.144V78.6829C166.671 78.026 167.303 77.5236 168.04 77.1758C168.778 76.828 169.61 76.6541 170.537 76.6541C171.337 76.6734 171.938 76.7894 172.338 77.0019V80.4799C172.022 80.3446 171.674 80.248 171.295 80.19C170.916 80.1127 170.526 80.0741 170.126 80.0741C169.283 80.0741 168.514 80.2673 167.819 80.6538C167.124 81.0402 166.566 81.5909 166.144 82.3058V92.1021H161.815ZM181.809 92.3919C180.165 92.3919 178.67 92.0441 177.321 91.3485C175.994 90.6529 174.941 89.7158 174.162 88.5371C173.382 87.3585 172.992 86.035 172.992 84.5665C172.992 83.098 173.361 81.7744 174.098 80.5958C174.857 79.4172 175.878 78.48 177.163 77.7844C178.449 77.0888 179.881 76.7411 181.461 76.7411C183.041 76.7411 184.442 77.0985 185.664 77.8134C186.886 78.5283 187.844 79.4944 188.539 80.7117C189.255 81.929 189.614 83.3105 189.614 84.8563V85.8997H177.416C177.606 86.4987 177.911 87.0397 178.333 87.5227C178.775 88.0058 179.312 88.3826 179.944 88.6531C180.597 88.9236 181.292 89.0588 182.03 89.0588C182.767 89.0588 183.441 88.9526 184.052 88.74C184.684 88.5275 185.221 88.228 185.664 87.8416L188.508 90.2182C187.496 90.9717 186.454 91.5224 185.379 91.8702C184.326 92.218 183.136 92.3919 181.809 92.3919ZM177.353 83.0594H185.348C185.2 82.4604 184.926 81.9387 184.526 81.4943C184.147 81.0305 183.683 80.6731 183.136 80.4219C182.609 80.1514 182.019 80.0161 181.366 80.0161C180.692 80.0161 180.081 80.1417 179.533 80.3929C178.986 80.6441 178.522 81.0016 178.143 81.4653C177.785 81.9097 177.522 82.4411 177.353 83.0594Z" fill="#202430"/>
<path d="M88.2155 85.3399L87.6186 69.3993H92.4989L91.902 85.3399H88.2155ZM90.0412 92.4247C89.2688 92.4247 88.6017 92.1671 88.0399 91.6518C87.4781 91.1366 87.1973 90.5247 87.1973 89.8162C87.1973 89.0865 87.4781 88.4637 88.0399 87.9484C88.6017 87.4332 89.2688 87.1755 90.0412 87.1755C90.8368 87.1755 91.5158 87.4332 92.0776 87.9484C92.6394 88.4637 92.9202 89.0865 92.9202 89.8162C92.9202 90.5247 92.6394 91.1366 92.0776 91.6518C91.5158 92.1671 90.8368 92.4247 90.0412 92.4247ZM149.533 91.3588L145.629 92.6392V82.8146H135.823V91.3588L131.919 92.6392V82.8146H128.903L130.298 80.3066H131.919V67.8696L135.823 66.5898V80.3066H145.629V67.8696L149.533 66.5898V91.3588Z" fill="#0077B5"/>
<mask id="mask0_230_25645" style="mask-type:luminance" maskUnits="userSpaceOnUse" x="68" y="65" width="123" height="30">
<path d="M190.999 65.0508H68.1133V94.0338H190.999V65.0508Z" fill="white"/>
<path d="M75.4997 92.3919C74.2357 92.3919 73.1087 92.1407 72.1186 91.6383C71.1495 91.1166 70.3806 90.4017 69.8118 89.4936C69.2641 88.5855 68.9902 87.5421 68.9902 86.3634V77.0019H73.3193V85.7838C73.3193 86.7499 73.6248 87.5227 74.2357 88.1024C74.8677 88.6821 75.7103 88.9719 76.7637 88.9719C77.4799 88.9719 78.1224 88.8463 78.6912 88.5951C79.2811 88.3246 79.7656 87.9478 80.1448 87.4648V77.0019H84.4739V92.1021H80.1448V90.8848C78.8808 91.8895 77.3324 92.3919 75.4997 92.3919ZM103.518 92.3919C101.896 92.3919 100.431 92.0538 99.1254 91.3775C97.8193 90.6819 96.7871 89.7448 96.0287 88.5661C95.2703 87.3682 94.8911 86.035 94.8911 84.5665C94.8911 83.0787 95.2703 81.7455 96.0287 80.5668C96.7871 79.3882 97.8193 78.451 99.1254 77.7555C100.431 77.0599 101.896 76.7121 103.518 76.7121C104.824 76.7121 106.067 76.9439 107.246 77.4077C108.447 77.8714 109.479 78.538 110.343 79.4075L107.689 81.987C107.078 81.3687 106.435 80.9146 105.761 80.6248C105.108 80.3156 104.392 80.161 103.612 80.161C102.77 80.161 102.011 80.3543 101.337 80.7407C100.684 81.1272 100.158 81.6488 99.7574 82.3058C99.3782 82.9627 99.1886 83.7163 99.1886 84.5665C99.1886 85.378 99.3782 86.1219 99.7574 86.7982C100.158 87.4551 100.705 87.9768 101.401 88.3633C102.096 88.7304 102.865 88.9139 103.707 88.9139C104.445 88.9139 105.129 88.7787 105.761 88.5082C106.414 88.2183 107.036 87.7933 107.626 87.2329L110.217 89.7255C109.374 90.5563 108.363 91.2133 107.183 91.6963C106.004 92.16 104.782 92.3919 103.518 92.3919ZM112.152 92.1021V71.8139L116.481 71.1473V83.3492L123.591 77.0019H128.489L120.715 83.9288L128.963 92.1021H123.433L116.481 85.2041V92.1021H112.152ZM154.415 92.1021V77.0019H158.744V92.1021H154.415ZM156.564 75.2049C155.89 75.2049 155.31 74.9827 154.826 74.5383C154.341 74.0939 154.099 73.5626 154.099 72.9443C154.099 72.3066 154.341 71.7753 154.826 71.3502C155.31 70.9058 155.89 70.6836 156.564 70.6836C157.259 70.6836 157.838 70.9058 158.302 71.3502C158.786 71.7753 159.028 72.3066 159.028 72.9443C159.028 73.5626 158.786 74.0939 158.302 74.5383C157.838 74.9827 157.259 75.2049 156.564 75.2049ZM161.813 92.1021V77.0019H166.143V78.6829C166.669 78.026 167.301 77.5236 168.038 77.1758C168.776 76.828 169.608 76.6541 170.535 76.6541C171.335 76.6734 171.936 76.7894 172.336 77.0019V80.4799C172.02 80.3446 171.672 80.248 171.293 80.19C170.914 80.1127 170.524 80.0741 170.124 80.0741C169.281 80.0741 168.512 80.2673 167.817 80.6538C167.122 81.0402 166.564 81.5909 166.143 82.3058V92.1021H161.813ZM181.807 92.3919C180.163 92.3919 178.668 92.0441 177.32 91.3485C175.992 90.6529 174.939 89.7158 174.16 88.5371C173.38 87.3585 172.99 86.035 172.99 84.5665C172.99 83.098 173.359 81.7744 174.096 80.5958C174.855 79.4172 175.876 78.48 177.162 77.7844C178.447 77.0888 179.879 76.7411 181.459 76.7411C183.039 76.7411 184.44 77.0985 185.662 77.8134C186.884 78.5283 187.842 79.4944 188.537 80.7117C189.254 81.929 189.612 83.3105 189.612 84.8563V85.8997H177.414C177.604 86.4987 177.909 87.0397 178.331 87.5227C178.773 88.0058 179.31 88.3826 179.942 88.6531C180.595 88.9236 181.291 89.0588 182.028 89.0588C182.765 89.0588 183.439 88.9526 184.05 88.74C184.682 88.5275 185.219 88.228 185.662 87.8416L188.506 90.2182C187.494 90.9717 186.452 91.5224 185.377 91.8702C184.324 92.218 183.134 92.3919 181.807 92.3919ZM177.351 83.0594H185.346C185.198 82.4604 184.924 81.9387 184.524 81.4943C184.145 81.0305 183.682 80.6731 183.134 80.4219C182.607 80.1514 182.017 80.0161 181.364 80.0161C180.69 80.0161 180.079 80.1417 179.531 80.3929C178.984 80.6441 178.52 81.0016 178.141 81.4653C177.783 81.9097 177.52 82.4411 177.351 83.0594Z" fill="black"/>
<path d="M88.2135 85.338L87.6166 69.3973H92.497L91.9001 85.338H88.2135ZM90.0392 92.4227C89.2668 92.4227 88.5997 92.1651 88.038 91.6499C87.4762 91.1346 87.1953 90.5227 87.1953 89.8143C87.1953 89.0845 87.4762 88.4617 88.038 87.9465C88.5997 87.4312 89.2668 87.1736 90.0392 87.1736C90.8348 87.1736 91.5139 87.4312 92.0756 87.9465C92.6374 88.4617 92.9183 89.0845 92.9183 89.8143C92.9183 90.5227 92.6374 91.1346 92.0756 91.6499C91.5139 92.1651 90.8348 92.4227 90.0392 92.4227ZM149.531 91.3568L145.627 92.6372V82.8126H135.821V91.3568L131.917 92.6372V82.8126H128.901L130.296 80.3046H131.917V67.8677L135.821 66.5879V80.3046H145.627V67.8677L149.531 66.5879V91.3568Z" fill="black"/>
</mask>
<g mask="url(#mask0_230_25645)">
<path d="M72.1196 91.6388L71.7643 92.194L71.772 92.1985L71.7797 92.2024L72.1196 91.6388ZM69.8128 89.494L69.1984 89.8058L69.2012 89.8103L69.204 89.8148L69.8128 89.494ZM68.9913 77.0024V76.3583H68.2891V77.0024H68.9913ZM73.3204 77.0024H74.0226V76.3583H73.3204V77.0024ZM74.2367 88.1029L73.7319 88.5505L73.7361 88.5544L73.7403 88.5582L74.2367 88.1029ZM78.6922 88.5956L78.997 89.1759L79.0019 89.174L79.0061 89.1714L78.6922 88.5956ZM80.1458 87.4652L80.716 87.8414L80.848 87.6733V87.4652H80.1458ZM80.1458 77.0024V76.3583H79.4436V77.0024H80.1458ZM84.4749 77.0024H85.1771V76.3583H84.4749V77.0024ZM84.4749 92.1025V92.7466H85.1771V92.1025H84.4749ZM80.1458 92.1025H79.4436V92.7466H80.1458V92.1025ZM80.1458 90.8852H80.848V89.4747L79.6859 90.3983L80.1458 90.8852ZM75.5007 92.3924V91.7483C74.3414 91.7483 73.3337 91.519 72.4595 91.0752L72.1196 91.6388L71.7797 92.2024C72.8857 92.7633 74.1321 93.0364 75.5007 93.0364V92.3924ZM72.1196 91.6388L72.4749 91.0836C71.6133 90.6192 70.9308 89.9861 70.4217 89.1733L69.8128 89.494L69.204 89.8148C69.8325 90.8183 70.6878 91.615 71.7643 92.194L72.1196 91.6388ZM69.8128 89.494L70.4273 89.1823C69.9446 88.3818 69.6935 87.4485 69.6935 86.3639H68.9913H68.2891C68.2891 87.6366 68.5857 88.7901 69.1984 89.8058L69.8128 89.494ZM68.9913 86.3639H69.6935V77.0024H68.9913H68.2891V86.3639H68.9913ZM68.9913 77.0024V77.6464H73.3204V77.0024V76.3583H68.9913V77.0024ZM73.3204 77.0024H72.6182V85.7842H73.3204H74.0226V77.0024H73.3204ZM73.3204 85.7842H72.6182C72.6182 86.8824 72.97 87.8278 73.7319 88.5505L74.2367 88.1029L74.7416 87.6552C74.2817 87.2186 74.0226 86.6183 74.0226 85.7842H73.3204ZM74.2367 88.1029L73.7403 88.5582C74.5275 89.2802 75.5611 89.6164 76.7647 89.6164V88.9724V88.3283C75.8617 88.3283 75.21 88.0848 74.7332 87.6475L74.2367 88.1029ZM76.7647 88.9724V89.6164C77.5722 89.6164 78.3208 89.4741 78.997 89.1759L78.6922 88.5956L78.3875 88.0153C77.9261 88.2194 77.3897 88.3283 76.7647 88.3283V88.9724ZM78.6922 88.5956L79.0061 89.1714C79.6964 88.8551 80.2687 88.4107 80.716 87.8414L80.1458 87.4652L79.5756 87.0891C79.2645 87.4859 78.8678 87.795 78.3784 88.0198L78.6922 88.5956ZM80.1458 87.4652H80.848V77.0024H80.1458H79.4436V87.4652H80.1458ZM80.1458 77.0024V77.6464H84.4749V77.0024V76.3583H80.1458V77.0024ZM84.4749 77.0024H83.7727V92.1025H84.4749H85.1771V77.0024H84.4749ZM84.4749 92.1025V91.4585H80.1458V92.1025V92.7466H84.4749V92.1025ZM80.1458 92.1025H80.848V90.8852H80.1458H79.4436V92.1025H80.1458ZM80.1458 90.8852L79.6859 90.3983C78.5623 91.2916 77.1818 91.7483 75.5007 91.7483V92.3924V93.0364C77.4851 93.0364 79.2013 92.4883 80.6058 91.3722L80.1458 90.8852ZM88.2142 85.3398L87.5119 85.3617L87.5358 85.9839H88.2142V85.3398ZM87.6173 69.3991V68.7551H86.8905L86.9151 69.421L87.6173 69.3991ZM92.4976 69.3991L93.1991 69.421L93.2244 68.7551H92.4976V69.3991ZM91.9007 85.3398V85.9839H92.5791L92.6022 85.3617L91.9007 85.3398ZM88.2142 85.3398L88.9157 85.3179L88.3188 69.3772L87.6173 69.3991L86.9151 69.421L87.5119 85.3617L88.2142 85.3398ZM87.6173 69.3991V70.0432H92.4976V69.3991V68.7551H87.6173V69.3991ZM92.4976 69.3991L91.7954 69.3772L91.1985 85.3179L91.9007 85.3398L92.6022 85.3617L93.1991 69.421L92.4976 69.3991ZM91.9007 85.3398V84.6957H88.2142V85.3398V85.9839H91.9007V85.3398ZM90.0399 92.4246V91.7805C89.4592 91.7805 88.969 91.5944 88.5351 91.1963L88.0386 91.6517L87.5421 92.107C88.231 92.7395 89.0751 93.0686 90.0399 93.0686V92.4246ZM88.0386 91.6517L88.5351 91.1963C88.1004 90.7976 87.8982 90.3481 87.8982 89.8161H87.196H86.4938C86.4938 90.701 86.8526 91.4752 87.5421 92.107L88.0386 91.6517ZM87.196 89.8161H87.8982C87.8982 89.2564 88.1053 88.7978 88.5351 88.4036L88.0386 87.9483L87.5421 87.4929C86.8484 88.1293 86.4938 88.9157 86.4938 89.8161H87.196ZM88.0386 87.9483L88.5351 88.4036C88.969 88.0056 89.4592 87.8195 90.0399 87.8195V87.1754V86.5313C89.0751 86.5313 88.231 86.8605 87.5421 87.4929L88.0386 87.9483ZM90.0399 87.1754V87.8195C90.6494 87.8195 91.1501 88.0095 91.5798 88.4036L92.0763 87.9483L92.5727 87.4929C91.879 86.8566 91.0216 86.5313 90.0399 86.5313V87.1754ZM92.0763 87.9483L91.5798 88.4036C92.0096 88.7978 92.2167 89.2564 92.2167 89.8161H92.9189H93.6211C93.6211 88.9157 93.2665 88.1293 92.5727 87.4929L92.0763 87.9483ZM92.9189 89.8161H92.2167C92.2167 90.3481 92.0138 90.7976 91.5798 91.1963L92.0763 91.6517L92.5727 92.107C93.2616 91.4752 93.6211 90.701 93.6211 89.8161H92.9189ZM92.0763 91.6517L91.5798 91.1963C91.1501 91.5905 90.6494 91.7805 90.0399 91.7805V92.4246V93.0686C91.0216 93.0686 91.879 92.7434 92.5727 92.107L92.0763 91.6517ZM99.1264 91.378L98.7739 91.9351L98.7816 91.9389L99.1264 91.378ZM96.0297 88.5666L95.423 88.8899L95.4251 88.8938L96.0297 88.5666ZM107.247 77.4081L106.971 78L106.975 78.002L107.247 77.4081ZM110.344 79.408L110.855 79.8498L111.302 79.4157L110.864 78.9745L110.344 79.408ZM107.69 81.9874L107.17 82.4203L107.679 82.9362L108.201 82.4293L107.69 81.9874ZM105.762 80.6252L105.441 81.1978L105.453 81.203L105.465 81.2081L105.762 80.6252ZM101.338 80.7412L100.966 80.195L100.962 80.1976L100.958 80.2002L101.338 80.7412ZM99.7584 82.3063L99.1454 81.992L99.1419 81.9984L99.1384 82.0048L99.7584 82.3063ZM99.7584 86.7986L99.1342 87.093L99.1398 87.1033L99.1454 87.1129L99.7584 86.7986ZM101.402 88.3637L101.038 88.9144L101.045 88.9183L101.051 88.9221L101.402 88.3637ZM105.762 88.5086L106.059 89.0922L106.068 89.0883L105.762 88.5086ZM107.627 87.2334L108.135 86.789L107.63 86.3033L107.122 86.7857L107.627 87.2334ZM110.218 89.7259L110.732 90.1645L111.183 89.7208L110.726 89.2815L110.218 89.7259ZM107.184 91.6968L107.461 92.2887L107.466 92.2867L107.471 92.2848L107.184 91.6968ZM103.519 92.3924V91.7483C102.008 91.7483 100.664 91.4346 99.4719 90.817L99.1264 91.378L98.7816 91.9389C100.202 92.6738 101.786 93.0364 103.519 93.0364V92.3924ZM99.1264 91.378L99.4789 90.8208C98.2761 90.18 97.3309 89.3214 96.635 88.2394L96.0297 88.5666L95.4251 88.8938C96.2453 90.169 97.3653 91.1847 98.7739 91.9351L99.1264 91.378ZM96.0297 88.5666L96.6371 88.2433C95.9447 87.1496 95.5943 85.9291 95.5943 84.5669H94.8921H94.1899C94.1899 86.1417 94.5986 87.5876 95.423 88.8899L96.0297 88.5666ZM94.8921 84.5669H95.5943C95.5943 83.1841 95.9454 81.9655 96.635 80.8945L96.0297 80.5673L95.4251 80.2401C94.5972 81.5263 94.1899 82.9742 94.1899 84.5669H94.8921ZM96.0297 80.5673L96.635 80.8945C97.3309 79.8124 98.2761 78.9539 99.4789 78.313L99.1264 77.7559L98.7739 77.1988C97.3653 77.9491 96.2453 78.9648 95.4251 80.2401L96.0297 80.5673ZM99.1264 77.7559L99.4789 78.313C100.671 77.6786 102.011 77.3566 103.519 77.3566V76.7125V76.0685C101.782 76.0685 100.195 76.442 98.7739 77.1988L99.1264 77.7559ZM103.519 76.7125V77.3566C104.731 77.3566 105.88 77.5711 106.971 78L107.247 77.4081L107.524 76.8162C106.256 76.3177 104.918 76.0685 103.519 76.0685V76.7125ZM107.247 77.4081L106.975 78.002C108.084 78.4296 109.031 79.0421 109.825 79.8414L110.344 79.408L110.864 78.9745C109.93 78.0348 108.813 77.3141 107.52 76.8143L107.247 77.4081ZM110.344 79.408L109.834 78.9661L107.179 81.5456L107.69 81.9874L108.201 82.4293L110.855 79.8498L110.344 79.408ZM107.69 81.9874L108.21 81.5546C107.551 80.8874 106.835 80.3753 106.061 80.0424L105.762 80.6252L105.465 81.2081C106.038 81.4548 106.608 81.8509 107.17 82.4203L107.69 81.9874ZM105.762 80.6252L106.085 80.0527C105.326 79.6939 104.498 79.5174 103.614 79.5174V80.1615V80.8056C104.288 80.8056 104.893 80.9383 105.441 81.1978L105.762 80.6252ZM103.614 80.1615V79.5174C102.648 79.5174 101.759 79.7409 100.966 80.195L101.338 80.7412L101.711 81.2873C102.267 80.9685 102.894 80.8056 103.614 80.8056V80.1615ZM101.338 80.7412L100.958 80.2002C100.203 80.6465 99.599 81.2487 99.1454 81.992L99.7584 82.3063L100.371 82.6206C100.719 82.0499 101.168 81.6087 101.719 81.2822L101.338 80.7412ZM99.7584 82.3063L99.1384 82.0048C98.6981 82.7674 98.4874 83.6272 98.4874 84.5669H99.1896H99.8918C99.8918 83.8063 100.061 83.159 100.379 82.6077L99.7584 82.3063ZM99.1896 84.5669H98.4874C98.4874 85.4738 98.7002 86.3194 99.1342 87.093L99.7584 86.7986L100.383 86.5043C100.058 85.9253 99.8918 85.2831 99.8918 84.5669H99.1896ZM99.7584 86.7986L99.1454 87.1129C99.6046 87.8659 100.238 88.47 101.038 88.9144L101.402 88.3637L101.766 87.813C101.175 87.4846 100.713 87.0453 100.371 86.4843L99.7584 86.7986ZM101.402 88.3637L101.051 88.9221C101.859 89.3478 102.749 89.5585 103.708 89.5585V88.9144V88.2703C102.982 88.2703 102.336 88.1138 101.752 87.8053L101.402 88.3637ZM103.708 88.9144V89.5585C104.543 89.5585 105.329 89.4045 106.059 89.0922L105.762 88.5086L105.465 87.9251C104.932 88.1538 104.349 88.2703 103.708 88.2703V88.9144ZM105.762 88.5086L106.068 89.0883C106.807 88.7605 107.495 88.2864 108.132 87.681L107.627 87.2334L107.122 86.7857C106.58 87.301 106.023 87.6771 105.457 87.929L105.762 88.5086ZM107.627 87.2334L107.119 87.6778L109.71 90.1703L110.218 89.7259L110.726 89.2815L108.135 86.789L107.627 87.2334ZM110.218 89.7259L109.704 89.2873C108.929 90.0518 107.996 90.6592 106.898 91.1087L107.184 91.6968L107.471 92.2848C108.733 91.7683 109.822 91.0617 110.732 90.1645L110.218 89.7259ZM107.184 91.6968L106.908 91.1049C105.814 91.5345 104.686 91.7483 103.519 91.7483V92.3924V93.0364C104.88 93.0364 106.196 92.7865 107.461 92.2887L107.184 91.6968ZM112.153 92.1025H111.451V92.7466H112.153V92.1025ZM112.153 71.8144L112.036 71.1793L111.451 71.2695V71.8144H112.153ZM116.482 71.1478H117.184V70.3865L116.366 70.5127L116.482 71.1478ZM116.482 83.3496H115.78V84.8754L116.972 83.8114L116.482 83.3496ZM123.592 77.0024V76.3583H123.306L123.102 76.5406L123.592 77.0024ZM128.49 77.0024L128.979 77.4642L130.22 76.3583H128.49V77.0024ZM120.716 83.9293L120.227 83.4675L119.735 83.9055L120.201 84.3666L120.716 83.9293ZM128.964 92.1025V92.7466H130.571L129.479 91.6652L128.964 92.1025ZM123.434 92.1025L122.918 92.5399L123.126 92.7466H123.434V92.1025ZM116.482 85.2046L116.998 84.7672L115.78 83.559V85.2046H116.482ZM116.482 92.1025V92.7466H117.184V92.1025H116.482ZM112.153 92.1025H112.855V71.8144H112.153H111.451V92.1025H112.153ZM112.153 71.8144L112.269 72.4494L116.598 71.7828L116.482 71.1478L116.366 70.5127L112.036 71.1793L112.153 71.8144ZM116.482 71.1478H115.78V83.3496H116.482H117.184V71.1478H116.482ZM116.482 83.3496L116.972 83.8114L124.081 77.4642L123.592 77.0024L123.102 76.5406L115.992 82.8878L116.482 83.3496ZM123.592 77.0024V77.6464H128.49V77.0024V76.3583H123.592V77.0024ZM128.49 77.0024L128 76.5406L120.227 83.4675L120.716 83.9293L121.205 84.3911L128.979 77.4642L128.49 77.0024ZM120.716 83.9293L120.201 84.3666L128.448 92.5399L128.964 92.1025L129.479 91.6652L121.231 83.492L120.716 83.9293ZM128.964 92.1025V91.4585H123.434V92.1025V92.7466H128.964V92.1025ZM123.434 92.1025L123.949 91.6652L116.998 84.7672L116.482 85.2046L115.966 85.6419L122.918 92.5399L123.434 92.1025ZM116.482 85.2046H115.78V92.1025H116.482H117.184V85.2046H116.482ZM116.482 92.1025V91.4585H112.153V92.1025V92.7466H116.482V92.1025ZM149.531 91.3586L149.768 91.9653L150.234 91.8127V91.3586H149.531ZM145.628 92.639H144.926V93.553L145.865 93.2451L145.628 92.639ZM145.628 82.8144H146.33V82.1704H145.628V82.8144ZM135.822 82.8144V82.1704H135.119V82.8144H135.822ZM135.822 91.3586L136.058 91.9653L136.524 91.8127V91.3586H135.822ZM131.918 92.639H131.216V93.553L132.155 93.2451L131.918 92.639ZM131.918 82.8144H132.62V82.1704H131.918V82.8144ZM128.901 82.8144L128.276 82.5214L127.754 83.4585H128.901V82.8144ZM130.297 80.3064V79.6624H129.866L129.671 80.0134L130.297 80.3064ZM131.918 80.3064V80.9505H132.62V80.3064H131.918ZM131.918 67.8695L131.682 67.2634L131.216 67.416V67.8695H131.918ZM135.822 66.5897H136.524V65.6758L135.586 65.9836L135.822 66.5897ZM135.822 80.3064H135.119V80.9505H135.822V80.3064ZM145.628 80.3064V80.9505H146.33V80.3064H145.628ZM145.628 67.8695L145.392 67.2634L144.926 67.416V67.8695H145.628ZM149.531 66.5897H150.234V65.6758L149.296 65.9836L149.531 66.5897ZM149.531 91.3586L149.296 90.7526L145.392 92.0323L145.628 92.639L145.865 93.2451L149.768 91.9653L149.531 91.3586ZM145.628 92.639H146.33V82.8144H145.628H144.926V92.639H145.628ZM145.628 82.8144V82.1704H135.822V82.8144V83.4585H145.628V82.8144ZM135.822 82.8144H135.119V91.3586H135.822H136.524V82.8144H135.822ZM135.822 91.3586L135.586 90.7526L131.682 92.0323L131.918 92.639L132.155 93.2451L136.058 91.9653L135.822 91.3586ZM131.918 92.639H132.62V82.8144H131.918H131.216V92.639H131.918ZM131.918 82.8144V82.1704H128.901V82.8144V83.4585H131.918V82.8144ZM128.901 82.8144L129.526 83.1068L130.922 80.5988L130.297 80.3064L129.671 80.0134L128.276 82.5214L128.901 82.8144ZM130.297 80.3064V80.9505H131.918V80.3064V79.6624H130.297V80.3064ZM131.918 80.3064H132.62V67.8695H131.918H131.216V80.3064H131.918ZM131.918 67.8695L132.155 68.4762L136.058 67.1964L135.822 66.5897L135.586 65.9836L131.682 67.2634L131.918 67.8695ZM135.822 66.5897H135.119V80.3064H135.822H136.524V66.5897H135.822ZM135.822 80.3064V80.9505H145.628V80.3064V79.6624H135.822V80.3064ZM145.628 80.3064H146.33V67.8695H145.628H144.926V80.3064H145.628ZM145.628 67.8695L145.865 68.4762L149.768 67.1964L149.531 66.5897L149.296 65.9836L145.392 67.2634L145.628 67.8695ZM149.531 66.5897H148.829V91.3586H149.531H150.234V66.5897H149.531ZM154.416 92.1025H153.714V92.7466H154.416V92.1025ZM154.416 77.0024V76.3583H153.714V77.0024H154.416ZM158.745 77.0024H159.447V76.3583H158.745V77.0024ZM158.745 92.1025V92.7466H159.447V92.1025H158.745ZM154.827 71.3507L155.312 71.8163L155.318 71.8112L155.323 71.806L154.827 71.3507ZM158.303 71.3507L157.795 71.7957L157.806 71.806L157.818 71.8163L158.303 71.3507ZM158.303 74.5388L157.806 74.0834L157.801 74.0886L157.795 74.0937L158.303 74.5388ZM154.416 92.1025H155.118V77.0024H154.416H153.714V92.1025H154.416ZM154.416 77.0024V77.6464H158.745V77.0024V76.3583H154.416V77.0024ZM158.745 77.0024H158.043V92.1025H158.745H159.447V77.0024H158.745ZM158.745 92.1025V91.4585H154.416V92.1025V92.7466H158.745V92.1025ZM156.565 75.2054V74.5613C156.08 74.5613 155.679 74.4093 155.323 74.0834L154.827 74.5388L154.33 74.9942C154.944 75.5571 155.701 75.8495 156.565 75.8495V75.2054ZM154.827 74.5388L155.323 74.0834C154.968 73.7575 154.802 73.3891 154.802 72.9447H154.1H153.398C153.398 73.7369 153.717 74.4312 154.33 74.9942L154.827 74.5388ZM154.1 72.9447H154.802C154.802 72.4758 154.972 72.1145 155.312 71.8163L154.827 71.3507L154.342 70.885C153.713 71.437 153.398 72.1384 153.398 72.9447H154.1ZM154.827 71.3507L155.323 71.806C155.679 71.4801 156.08 71.3281 156.565 71.3281V70.6841V70.04C155.701 70.04 154.944 70.3324 154.33 70.8953L154.827 71.3507ZM156.565 70.6841V71.3281C157.076 71.3281 157.47 71.4833 157.795 71.7957L158.303 71.3507L158.81 70.9056C158.209 70.3292 157.444 70.04 156.565 70.04V70.6841ZM158.303 71.3507L157.818 71.8163C158.158 72.1145 158.327 72.4758 158.327 72.9447H159.03H159.732C159.732 72.1384 159.417 71.437 158.788 70.885L158.303 71.3507ZM159.03 72.9447H158.327C158.327 73.3891 158.162 73.7575 157.806 74.0834L158.303 74.5388L158.799 74.9942C159.413 74.4312 159.732 73.7369 159.732 72.9447H159.03ZM158.303 74.5388L157.795 74.0937C157.47 74.4061 157.076 74.5613 156.565 74.5613V75.2054V75.8495C157.444 75.8495 158.209 75.5603 158.81 74.9838L158.303 74.5388ZM161.814 92.1025H161.112V92.7466H161.814V92.1025ZM161.814 77.0024V76.3583H161.112V77.0024H161.814ZM166.144 77.0024H166.846V76.3583H166.144V77.0024ZM166.144 78.6834H165.441V80.6465L166.71 79.0647L166.144 78.6834ZM170.536 76.6546L170.555 76.0105H170.546H170.536V76.6546ZM172.337 77.0024H173.039V76.6307L172.689 76.4452L172.337 77.0024ZM172.337 80.4803L172.041 81.0638L173.039 81.4915V80.4803H172.337ZM171.294 80.1905L171.142 80.8191L171.161 80.823L171.179 80.8255L171.294 80.1905ZM166.144 82.3063L165.526 81.9997L165.441 82.1433V82.3063H166.144ZM166.144 92.1025V92.7466H166.846V92.1025H166.144ZM161.814 92.1025H162.517V77.0024H161.814H161.112V92.1025H161.814ZM161.814 77.0024V77.6464H166.144V77.0024V76.3583H161.814V77.0024ZM166.144 77.0024H165.441V78.6834H166.144H166.846V77.0024H166.144ZM166.144 78.6834L166.71 79.0647C167.177 78.4824 167.727 78.0483 168.361 77.7488L168.04 77.1763L167.719 76.6037C166.878 76.9998 166.165 77.5704 165.578 78.3021L166.144 78.6834ZM168.04 77.1763L168.361 77.7488C168.987 77.4532 169.707 77.2986 170.536 77.2986V76.6546V76.0105C169.511 76.0105 168.567 76.2037 167.719 76.6037L168.04 77.1763ZM170.536 76.6546L170.518 77.2986C171.275 77.3167 171.736 77.4274 171.985 77.5595L172.337 77.0024L172.689 76.4452C172.138 76.1522 171.398 76.0311 170.555 76.0105L170.536 76.6546ZM172.337 77.0024H171.635V80.4803H172.337H173.039V77.0024H172.337ZM172.337 80.4803L172.634 79.8968C172.255 79.7345 171.845 79.6218 171.41 79.5554L171.294 80.1905L171.179 80.8255C171.502 80.8751 171.788 80.9556 172.041 81.0638L172.337 80.4803ZM171.294 80.1905L171.447 79.5619C171.016 79.4743 170.575 79.4305 170.125 79.4305V80.0746V80.7186C170.476 80.7186 170.815 80.7521 171.142 80.8191L171.294 80.1905ZM170.125 80.0746V79.4305C169.16 79.4305 168.264 79.654 167.455 80.1035L167.818 80.6542L168.183 81.2049C168.764 80.8816 169.406 80.7186 170.125 80.7186V80.0746ZM167.818 80.6542L167.455 80.1035C166.643 80.5544 166.001 81.194 165.526 81.9997L166.144 82.3063L166.762 82.6128C167.129 81.9887 167.603 81.5269 168.183 81.2049L167.818 80.6542ZM166.144 82.3063H165.441V92.1025H166.144H166.846V82.3063H166.144ZM166.144 92.1025V91.4585H161.814V92.1025V92.7466H166.144V92.1025ZM177.321 91.349L176.972 91.908L176.976 91.9106L177.321 91.349ZM174.097 80.5963L173.492 80.2691L173.488 80.2755L174.097 80.5963ZM188.538 80.7122L187.916 81.011L187.92 81.0181L188.538 80.7122ZM189.613 85.9002V86.5442H190.315V85.9002H189.613ZM177.415 85.9002V85.2561H176.48L176.741 86.0798L177.415 85.9002ZM178.332 87.5232L177.783 87.9257L177.788 87.9315L177.794 87.9373L178.332 87.5232ZM179.943 88.6535L179.646 89.2371L179.654 89.2403L179.943 88.6535ZM184.051 88.7405L183.809 88.1357L183.802 88.1383L184.051 88.7405ZM185.663 87.842L186.135 87.3661L185.652 86.9616L185.178 87.3757L185.663 87.842ZM188.507 90.2186L188.949 90.7184L189.582 90.2463L188.979 89.7427L188.507 90.2186ZM185.378 91.8707L185.145 91.2633L185.14 91.2646L185.378 91.8707ZM177.352 83.0598L176.671 82.9033L176.453 83.7039H177.352V83.0598ZM185.347 83.0598V83.7039H186.225L186.031 82.9181L185.347 83.0598ZM184.525 81.4947L183.963 81.8812L183.973 81.8934L183.984 81.905L184.525 81.4947ZM183.135 80.4224L182.791 80.9846L182.806 80.9917L182.82 80.9982L183.135 80.4224ZM178.142 81.4657L177.58 81.0793L177.578 81.0832L178.142 81.4657ZM181.808 92.3924V91.7483C180.277 91.7483 178.901 91.4256 177.665 90.7873L177.321 91.349L176.976 91.9106C178.436 92.6635 180.051 93.0364 181.808 93.0364V92.3924ZM177.321 91.349L177.669 90.7899C176.444 90.1471 175.477 89.2873 174.761 88.2033L174.161 88.5376L173.56 88.8719C174.402 90.1452 175.543 91.1596 176.972 91.908L177.321 91.349ZM174.161 88.5376L174.761 88.2033C174.053 87.1323 173.694 85.9259 173.694 84.5669H172.991H172.289C172.289 86.1449 172.71 87.5857 173.56 88.8719L174.161 88.5376ZM172.991 84.5669H173.694C173.694 83.2015 174.035 81.99 174.706 80.917L174.097 80.5963L173.488 80.2755C172.685 81.5598 172.289 82.9954 172.289 84.5669H172.991ZM174.097 80.5963L174.702 80.9234C175.4 79.8388 176.337 78.9796 177.519 78.3394L177.163 77.7849L176.805 77.2304C175.418 77.9813 174.311 78.9964 173.492 80.2691L174.097 80.5963ZM177.163 77.7849L177.519 78.3394C178.69 77.7057 179.998 77.3856 181.46 77.3856V76.7415V76.0974C179.762 76.0974 178.205 76.4729 176.805 77.2304L177.163 77.7849ZM181.46 76.7415V77.3856C182.919 77.3856 184.186 77.7141 185.285 78.3568L185.663 77.8139L186.041 77.2709C184.695 76.4839 183.161 76.0974 181.46 76.0974V76.7415ZM185.663 77.8139L185.285 78.3568C186.4 79.0093 187.276 79.8897 187.916 81.011L188.538 80.7122L189.16 80.4133C188.41 79.1001 187.369 78.0483 186.041 77.2709L185.663 77.8139ZM188.538 80.7122L187.92 81.0181C188.575 82.1311 188.91 83.405 188.91 84.8568H189.613H190.315C190.315 83.217 189.934 81.7279 189.156 80.4063L188.538 80.7122ZM189.613 84.8568H188.91V85.9002H189.613H190.315V84.8568H189.613ZM189.613 85.9002V85.2561H177.415V85.9002V86.5442H189.613V85.9002ZM177.415 85.9002L176.741 86.0798C176.956 86.7593 177.304 87.3757 177.783 87.9257L178.332 87.5232L178.88 87.1207C178.516 86.7046 178.254 86.2389 178.089 85.7205L177.415 85.9002ZM178.332 87.5232L177.794 87.9373C178.303 88.4932 178.923 88.9273 179.646 89.2371L179.943 88.6535L180.24 88.07C179.7 87.8388 179.245 87.5193 178.869 87.1091L178.332 87.5232ZM179.943 88.6535L179.654 89.2403C180.4 89.5494 181.195 89.7034 182.029 89.7034V89.0593V88.4152C181.388 88.4152 180.792 88.298 180.232 88.0668L179.943 88.6535ZM182.029 89.0593V89.7034C182.84 89.7034 183.6 89.5862 184.3 89.3427L184.051 88.7405L183.802 88.1383C183.28 88.3199 182.692 88.4152 182.029 88.4152V89.0593ZM184.051 88.7405L184.293 89.3453C185.006 89.1057 185.628 88.7617 186.147 88.3083L185.663 87.842L185.178 87.3757C184.812 87.6952 184.36 87.9502 183.809 88.1357L184.051 88.7405ZM185.663 87.842L185.189 88.318L188.033 90.6946L188.507 90.2186L188.979 89.7427L186.135 87.3661L185.663 87.842ZM188.507 90.2186L188.064 89.7188C187.106 90.4325 186.133 90.9432 185.145 91.2633L185.378 91.8707L185.612 92.478C186.772 92.1025 187.885 91.5119 188.949 90.7184L188.507 90.2186ZM185.378 91.8707L185.14 91.2646C184.176 91.5828 183.068 91.7483 181.808 91.7483V92.3924V93.0364C183.201 93.0364 184.474 92.8542 185.616 92.4767L185.378 91.8707ZM177.352 83.0598V83.7039H185.347V83.0598V82.4157H177.352V83.0598ZM185.347 83.0598L186.031 82.9181C185.861 82.227 185.541 81.6119 185.067 81.0845L184.525 81.4947L183.984 81.905C184.309 82.2663 184.536 82.6946 184.661 83.2015L185.347 83.0598ZM184.525 81.4947L185.087 81.1083C184.645 80.5673 184.097 80.1435 183.449 79.8466L183.135 80.4224L182.82 80.9982C183.268 81.2036 183.647 81.4947 183.963 81.8812L184.525 81.4947ZM183.135 80.4224L183.478 79.8601C182.838 79.5316 182.128 79.3725 181.365 79.3725V80.0166V80.6607C181.908 80.6607 182.378 80.7721 182.791 80.9846L183.135 80.4224ZM181.365 80.0166V79.3725C180.593 79.3725 179.873 79.5168 179.218 79.8176L179.533 80.3934L179.846 80.9692C180.287 80.7676 180.789 80.6607 181.365 80.6607V80.0166ZM179.533 80.3934L179.218 79.8176C178.57 80.1145 178.023 80.5383 177.58 81.0793L178.142 81.4657L178.704 81.8522C179.02 81.4657 179.399 81.1746 179.846 80.9692L179.533 80.3934ZM178.142 81.4657L177.578 81.0832C177.157 81.6049 176.858 82.2161 176.671 82.9033L177.352 83.0598L178.033 83.2163C178.183 82.6669 178.411 82.2154 178.707 81.8483L178.142 81.4657Z" fill="#E8F4FA"/>
</g>
<path d="M33.2567 88.4179C23.6693 88.4179 16.3888 86.3021 11.4153 82.07C6.50171 77.8378 4.04492 71.3527 4.04492 62.614C4.04492 57.3927 5.03363 52.9135 7.01104 49.1761C9.04835 45.3839 12.1942 42.4709 16.4487 40.4374C20.763 38.3489 26.3657 37.3047 33.2567 37.3047H36.043C42.8142 37.3047 48.297 38.3215 52.4915 40.355C56.746 42.3885 59.8619 45.3014 61.8393 49.0937C63.8167 52.886 64.8054 57.3927 64.8054 62.614C64.8054 71.2425 62.3786 77.7006 57.5249 81.9875C52.7312 86.2744 45.5706 88.4179 36.043 88.4179H33.2567ZM34.1555 81.7402H35.1442C39.6383 81.7402 43.3235 81.1354 46.1997 79.9265C49.076 78.7176 51.2032 76.739 52.5814 73.9908C54.0195 71.1878 54.7386 67.3955 54.7386 62.614C54.7386 57.9424 54.0195 54.26 52.5814 51.5669C51.1433 48.8189 48.9861 46.8678 46.1099 45.7136C43.2336 44.5045 39.5784 43.8999 35.1442 43.8999H34.1555C29.6614 43.8999 25.9163 44.5045 22.9202 45.7136C19.9841 46.9227 17.7669 48.9013 16.2689 51.6494C14.8308 54.3974 14.1117 58.0522 14.1117 62.614C14.1117 67.3408 14.8308 71.1054 16.2689 73.9083C17.7669 76.7113 20.014 78.7176 23.0101 79.9265C26.0062 81.1354 29.7213 81.7402 34.1555 81.7402ZM55.0082 102.598C52.132 102.598 49.7651 102.103 47.9075 101.114C46.05 100.179 44.462 98.998 43.1437 97.5688C41.8255 96.195 40.5971 94.7935 39.4586 93.3643C38.38 91.9905 37.1815 90.8087 35.8633 89.8194C34.6049 88.8848 33.0469 88.4179 31.1894 88.4179C29.3917 88.4179 28.0435 88.72 27.1447 89.3247C26.3058 89.9843 25.8863 90.7539 25.8863 91.6331C25.8863 92.1825 25.9762 92.7596 26.156 93.3643C26.3956 94.0239 26.6054 94.5733 26.7852 95.0132C26.186 94.6286 25.2871 94.2435 24.0887 93.859C22.9502 93.5292 21.7218 93.3643 20.4035 93.3643C20.4035 90.4512 21.542 88.2253 23.819 86.6866C26.0961 85.0926 28.8525 84.2959 32.0882 84.2959C35.2041 84.2959 37.8407 84.7358 39.9979 85.6149C42.2149 86.4393 44.1025 87.4563 45.6605 88.6652C47.2783 89.9295 48.7464 91.1661 50.0647 92.375C51.3829 93.6394 52.7013 94.6834 54.0195 95.5078C55.3977 96.3869 56.9556 96.8268 58.6934 96.8268C60.3113 96.8268 61.4498 96.3599 62.1089 95.4254C62.7681 94.5462 63.0976 93.6117 63.0976 92.6224C63.0976 91.5229 62.8879 90.589 62.4685 89.8194C62.1089 89.1051 61.7194 88.6375 61.3 88.4179H67.6816C67.6816 89.9018 67.4719 91.4682 67.0525 93.117C66.6929 94.7658 66.0338 96.3045 65.075 97.7337C64.1163 99.1629 62.828 100.317 61.2101 101.196C59.5922 102.131 57.5249 102.598 55.0082 102.598Z" fill="#0077B5"/>
<path d="M29.641 96.916L15.6503 95.7934C14.3911 95.6922 13.2797 96.6287 13.1592 97.8917L12.6237 103.506L12.5401 104.383L12.1552 108.418C12.0347 109.681 12.952 110.78 14.2111 110.881L28.2018 112.004C29.461 112.105 30.5723 111.169 30.6928 109.906L31.0777 105.87L31.1614 104.993L31.6969 99.3795C31.8174 98.1159 30.9001 97.0171 29.641 96.916ZM29.9829 103.308C27.3616 104.37 24.589 104.802 21.8608 104.583C19.1326 104.364 16.4838 103.498 14.1035 102.034C13.9369 101.932 13.8487 101.748 13.8688 101.537C13.9057 101.151 14.3505 100.922 14.6818 101.143C19.1411 103.905 24.6674 104.349 29.5819 102.339C29.9484 102.192 30.3447 102.47 30.3079 102.857C30.2895 103.049 30.1661 103.234 29.9829 103.308ZM25.8605 95.9054C25.5632 95.8816 25.3576 95.6356 25.3861 95.3374C25.4513 94.6527 24.961 94.0653 24.279 94.0112L21.4809 93.7865C20.7988 93.7317 20.2048 94.2321 20.1395 94.9161C20.1111 95.2143 19.8619 95.4243 19.5647 95.4005C19.2674 95.3767 19.0618 95.13 19.0902 94.8318C19.2107 93.5688 20.3221 92.6329 21.5813 92.734L24.3794 92.9582C25.6386 93.0593 26.5558 94.1581 26.4354 95.4217C26.4069 95.7199 26.1578 95.9293 25.8605 95.9054Z" fill="#0077B5"/>
</svg>
