<svg width="19" height="22" viewBox="0 0 19 22" fill="none" xmlns="http://www.w3.org/2000/svg">
<path fill-rule="evenodd" clip-rule="evenodd" d="M7.32423 19.1374C7.84223 19.7153 8.50723 20.0328 9.19723 20.0328H9.19823C9.89123 20.0328 10.5592 19.7153 11.0782 19.1364C11.3562 18.8289 11.8302 18.8038 12.1372 19.0813C12.4452 19.3587 12.4702 19.8345 12.1932 20.142C11.3852 21.0405 10.3222 21.5353 9.19823 21.5353H9.19623C8.07523 21.5343 7.01423 21.0395 6.20923 20.141C5.93223 19.8335 5.95723 19.3577 6.26523 19.0813C6.57323 18.8028 7.04723 18.8279 7.32423 19.1374ZM9.24703 0C13.692 0 16.678 3.46768 16.678 6.70599C16.678 8.37172 17.101 9.07788 17.55 9.82711C17.994 10.5663 18.497 11.4057 18.497 12.9923C18.148 17.0459 13.923 17.3765 9.24703 17.3765C4.57103 17.3765 0.345027 17.0459 1.32363e-05 13.0564C-0.00297341 11.4057 0.500027 10.5663 0.944027 9.82711L1.10077 9.56283C1.4867 8.89844 1.81603 8.17575 1.81603 6.70599C1.81603 3.46768 4.80203 0 9.24703 0ZM9.24703 1.50246C5.75203 1.50246 3.31603 4.24496 3.31603 6.70599C3.31603 8.78841 2.73903 9.75098 2.22903 10.6004C1.82003 11.2825 1.49703 11.8214 1.49703 12.9923C1.66403 14.8814 2.90903 15.874 9.24703 15.874C15.55 15.874 16.834 14.8373 17 12.9272C16.997 11.8214 16.674 11.2825 16.265 10.6004C15.755 9.75098 15.178 8.78841 15.178 6.70599C15.178 4.24496 12.742 1.50246 9.24703 1.50246Z" fill="#007FAF"/>
</svg>
