<svg width="20" height="20" viewBox="0 0 20 20" fill="none" xmlns="http://www.w3.org/2000/svg">
<g clip-path="url(#clip0_505_17295)">
<path d="M5.19849 10.1335L10.0002 10.0002" stroke="#007FAF" stroke-width="2" stroke-linecap="round" stroke-linejoin="round"/>
<path d="M18.1629 10.1336L3.7261 16.91C3.64383 16.9406 3.55452 16.9469 3.46877 16.9282C3.38303 16.9094 3.30446 16.8665 3.2424 16.8045C3.18034 16.7424 3.1374 16.6638 3.11869 16.5781C3.09998 16.4923 3.10628 16.403 3.13685 16.3208L5.19924 10.1336L3.13685 3.94638C3.10628 3.86411 3.09998 3.7748 3.11869 3.68905C3.1374 3.60331 3.18034 3.52474 3.2424 3.46268C3.30446 3.40062 3.38303 3.35769 3.46877 3.33898C3.55452 3.32026 3.64383 3.32656 3.7261 3.35713L18.1629 10.1336Z" stroke="#007FAF" stroke-width="2" stroke-linecap="round" stroke-linejoin="round"/>
</g>
<defs>
<clipPath id="clip0_505_17295">
<rect width="20" height="20" fill="white"/>
</clipPath>
</defs>
</svg>
