<svg width="20" height="22" viewBox="0 0 20 22" fill="none" xmlns="http://www.w3.org/2000/svg">
<path d="M19.2089 8.05448L13.2581 7.11719L10.5979 1.27246C10.5253 1.11243 10.4057 0.982887 10.2581 0.904145C9.88777 0.706018 9.43777 0.871124 9.25262 1.27246L6.59246 7.11719L0.641682 8.05448C0.47762 8.07988 0.32762 8.16371 0.212776 8.29071C0.0739361 8.44537 -0.00257088 8.65344 6.5967e-05 8.8692C0.00270281 9.08495 0.0842678 9.29075 0.226838 9.44137L4.53231 13.9907L3.51512 20.4145C3.49127 20.564 3.50652 20.7177 3.55916 20.8582C3.6118 20.9987 3.69972 21.1204 3.81294 21.2095C3.92616 21.2986 4.06015 21.3516 4.19973 21.3624C4.3393 21.3732 4.47888 21.3414 4.60262 21.2705L9.92527 18.2377L15.2479 21.2705C15.3932 21.3544 15.562 21.3823 15.7237 21.3518C16.1315 21.2756 16.4057 20.8565 16.3354 20.4145L15.3182 13.9907L19.6237 9.44137C19.7409 9.31691 19.8182 9.15434 19.8417 8.97653C19.905 8.53202 19.619 8.12053 19.2089 8.05448Z" fill="#FFB836"/>
</svg>
