<svg width="622" height="407" viewBox="0 0 622 407" fill="none" xmlns="http://www.w3.org/2000/svg">
<path d="M189.212 70.8322H152.367V58.8704C152.367 48.8843 160.615 40.7891 170.789 40.7891C180.963 40.7891 189.211 48.8843 189.211 58.8704V70.8322H189.212Z" fill="white" stroke="#263238" stroke-miterlimit="10" stroke-linecap="round" stroke-linejoin="round"/>
<path d="M170.789 40.7891V20.7598" stroke="#263238" stroke-miterlimit="10" stroke-linecap="round" stroke-linejoin="round"/>
<path d="M456.192 70.8322H419.348V58.8704C419.348 48.8843 427.595 40.7891 437.77 40.7891C447.944 40.7891 456.192 48.8843 456.192 58.8704L456.192 70.8322Z" fill="white" stroke="#263238" stroke-miterlimit="10" stroke-linecap="round" stroke-linejoin="round"/>
<path d="M437.77 40.7891V20.7598" stroke="#263238" stroke-miterlimit="10" stroke-linecap="round" stroke-linejoin="round"/>
<path d="M573.512 67.2441H470.82V190.435H573.512V67.2441Z" fill="white" stroke="#263238" stroke-miterlimit="10" stroke-linecap="round" stroke-linejoin="round"/>
<path d="M573.512 67.248H470.824V190.439H573.512V67.248Z" fill="white" stroke="#263238" stroke-miterlimit="10" stroke-linecap="round" stroke-linejoin="round"/>
<path d="M573.512 67.248V114.9C567.682 120.565 560.5 125.872 551.991 129.25C525.353 139.824 490.77 128.135 510.607 90.8622C515.633 81.4279 519.241 73.6298 521.828 67.248H573.512Z" fill="white" stroke="#263238" stroke-miterlimit="10" stroke-linecap="round" stroke-linejoin="round"/>
<path d="M573.51 145.146V190.437H564.885C552.545 186.278 539.051 179.79 537.252 170.975C534.797 158.911 559.586 149.461 573.51 145.146Z" fill="white" stroke="#263238" stroke-miterlimit="10" stroke-linecap="round" stroke-linejoin="round"/>
<path d="M513.294 190.439H470.824V171.375C488.696 154.354 515.758 131.806 520.244 146.499C525.386 163.308 514.679 180.427 513.294 190.439Z" fill="white" stroke="#263238" stroke-miterlimit="10" stroke-linecap="round" stroke-linejoin="round"/>
<path d="M498.706 112.001C498.706 119.457 483.505 124.259 470.824 126.978V83.0547C481.34 90.0958 498.706 103.079 498.706 112.001Z" fill="white" stroke="#263238" stroke-miterlimit="10" stroke-linecap="round" stroke-linejoin="round"/>
<path d="M535.267 118.122C543.25 118.122 549.721 112.268 549.721 105.047C549.721 97.8263 543.25 91.9727 535.267 91.9727C527.284 91.9727 520.812 97.8263 520.812 105.047C520.812 112.268 527.284 118.122 535.267 118.122Z" fill="white" stroke="#263238" stroke-miterlimit="10" stroke-linecap="round" stroke-linejoin="round"/>
<path d="M497.574 137.595C497.574 140.054 495.29 142.046 492.472 142.046C489.655 142.046 487.371 140.054 487.371 137.595C487.371 135.137 489.655 133.145 492.472 133.145C495.29 133.145 497.574 135.138 497.574 137.595Z" fill="white" stroke="#263238" stroke-miterlimit="10" stroke-linecap="round" stroke-linejoin="round"/>
<path d="M542.353 150.948C542.353 154.328 539.561 157.067 536.118 157.067C532.674 157.067 529.883 154.328 529.883 150.948C529.883 147.568 532.674 144.828 536.118 144.828C539.561 144.828 542.353 147.568 542.353 150.948Z" fill="white" stroke="#263238" stroke-miterlimit="10" stroke-linecap="round" stroke-linejoin="round"/>
<path d="M555.39 168.194C555.39 169.423 554.375 170.42 553.123 170.42C551.871 170.42 550.855 169.423 550.855 168.194C550.855 166.965 551.871 165.969 553.123 165.969C554.375 165.969 555.39 166.965 555.39 168.194Z" fill="white" stroke="#263238" stroke-miterlimit="10" stroke-linecap="round" stroke-linejoin="round"/>
<path d="M515.385 91.662C519.591 87.534 519.591 80.8411 515.385 76.713C511.179 72.585 504.36 72.585 500.154 76.713C495.949 80.8411 495.949 87.5339 500.154 91.662C504.36 95.79 511.179 95.79 515.385 91.662Z" fill="white" stroke="#263238" stroke-miterlimit="10" stroke-linecap="round" stroke-linejoin="round"/>
<path d="M540.016 257.779C544.663 257.779 548.43 248.081 548.43 236.117C548.43 224.154 544.663 214.455 540.016 214.455C535.369 214.455 531.602 224.154 531.602 236.117C531.602 248.081 535.369 257.779 540.016 257.779Z" fill="#0077B5" stroke="#263238" stroke-miterlimit="10"/>
<path d="M513.871 222.758C516.501 230.884 521.554 236.56 525.158 235.437C528.761 234.314 529.55 226.815 526.919 218.69C524.289 210.564 519.236 204.888 515.632 206.011C512.029 207.133 511.24 214.632 513.871 222.758Z" fill="#0077B5" stroke="#263238" stroke-miterlimit="10"/>
<path d="M575.612 271.756C584.177 270.333 590.608 266.212 589.976 262.553C589.345 258.894 581.889 257.083 573.325 258.508C564.76 259.931 558.329 264.052 558.961 267.711C559.593 271.369 567.048 273.18 575.612 271.756Z" fill="#0077B5" stroke="#263238" stroke-miterlimit="10"/>
<path d="M505.951 251.73C513.105 258.693 521.556 261.713 524.829 258.474C528.101 255.235 524.955 246.965 517.801 240.002C510.647 233.038 502.196 230.019 498.923 233.258C495.651 236.496 498.797 244.766 505.951 251.73Z" fill="#0077B5" stroke="#263238" stroke-miterlimit="10"/>
<path d="M555.244 232.629C548.327 242.48 546.266 252.865 550.64 255.824C555.015 258.784 564.169 253.198 571.087 243.347C578.004 233.496 580.065 223.111 575.69 220.152C571.316 217.193 562.161 222.779 555.244 232.629Z" fill="#0077B5" stroke="#263238" stroke-miterlimit="10"/>
<path d="M539.424 256.699L538.773 322.598" stroke="#263238" stroke-miterlimit="10" stroke-linecap="round"/>
<path d="M540.21 228.062L539.426 256.699" stroke="#263238" stroke-miterlimit="10" stroke-linecap="round"/>
<path d="M540.152 223.391L540.209 225.584" stroke="#263238" stroke-miterlimit="10" stroke-linecap="round"/>
<path d="M550.67 254.418C546.452 263.112 543.023 273.673 542.359 285.671V326.429" stroke="#263238" stroke-miterlimit="10" stroke-linecap="round"/>
<path d="M565.125 232.713C561.203 237.157 555.435 244.597 550.672 254.417" stroke="#263238" stroke-miterlimit="10" stroke-linecap="round"/>
<path d="M569.674 227.994C569.674 227.994 568.801 228.776 567.367 230.273" stroke="#263238" stroke-miterlimit="10" stroke-linecap="round"/>
<path d="M524.305 257.475C529.214 264.134 534.144 272.851 537.946 284.045" stroke="#263238" stroke-miterlimit="10" stroke-linecap="round"/>
<path d="M514.625 246.557C517.596 249.323 520.946 252.917 524.305 257.475" stroke="#263238" stroke-miterlimit="10" stroke-linecap="round"/>
<path d="M504.289 238.824C504.289 238.824 507.29 240.334 511.66 243.951" stroke="#263238" stroke-miterlimit="10" stroke-linecap="round"/>
<path d="M524.66 233.424C529.321 247.822 535.579 269.098 538.498 287.566" stroke="#263238" stroke-miterlimit="10" stroke-linecap="round"/>
<path d="M521.82 224.883C522.65 227.311 523.615 230.194 524.66 233.423" stroke="#263238" stroke-miterlimit="10" stroke-linecap="round"/>
<path d="M518.91 216.621C518.91 216.621 519.725 218.825 521.036 222.606" stroke="#263238" stroke-miterlimit="10" stroke-linecap="round"/>
<path d="M559.391 265.715C553.567 267.883 545.603 273.929 542.84 281.848" stroke="#263238" stroke-miterlimit="10" stroke-linecap="round"/>
<path d="M570.149 263.568C567.014 263.749 563.173 264.307 559.391 265.715" stroke="#263238" stroke-miterlimit="10" stroke-linecap="round"/>
<path d="M577.122 263.736C577.122 263.736 576.085 263.591 574.375 263.525" stroke="#263238" stroke-miterlimit="10" stroke-linecap="round"/>
<path d="M558.81 303.43C566.681 307.038 574.358 307.237 575.958 303.874C577.558 300.512 572.474 294.862 564.603 291.255C556.731 287.648 549.054 287.449 547.454 290.811C545.855 294.174 550.938 299.824 558.81 303.43Z" fill="#0077B5" stroke="#263238" stroke-miterlimit="10"/>
<path d="M559.059 293.647C556.375 292.047 552.892 290.363 548.964 289.411C548.964 289.411 546.334 287.688 543.548 289.51C542.483 290.207 542.838 295.431 542.838 295.431V322.598" stroke="#263238" stroke-miterlimit="10" stroke-linecap="round"/>
<path d="M564.7 297.677C564.7 297.677 563.931 296.979 562.562 295.971" stroke="#263238" stroke-miterlimit="10" stroke-linecap="round"/>
<path d="M502.317 271.756C493.753 270.333 487.321 266.212 487.953 262.553C488.584 258.894 496.04 257.083 504.604 258.508C513.169 259.931 519.6 264.052 518.968 267.711C518.336 271.369 510.882 273.18 502.317 271.756Z" fill="#0077B5" stroke="#263238" stroke-miterlimit="10"/>
<path d="M518.352 265.646C519.377 266.021 520.4 266.457 521.404 266.964C528.481 270.542 532.809 277.829 532.809 285.642V321.553" stroke="#263238" stroke-miterlimit="10" stroke-linecap="round"/>
<path d="M506.879 263.525C510.112 263.646 514.26 264.154 518.354 265.647" stroke="#263238" stroke-miterlimit="10" stroke-linecap="round"/>
<path d="M500.809 263.737C500.809 263.737 501.492 263.641 502.663 263.57" stroke="#263238" stroke-miterlimit="10" stroke-linecap="round"/>
<path d="M510.916 296.355C503.39 300.613 495.758 301.458 493.871 298.243C491.983 295.027 496.554 288.97 504.08 284.712C511.606 280.455 519.238 279.609 521.125 282.825C523.013 286.04 518.442 292.098 510.916 296.355Z" fill="#0077B5" stroke="#263238" stroke-miterlimit="10"/>
<path d="M509.09 287.158C511.661 285.229 515.187 283.027 519.312 281.618C519.312 281.618 528.648 280.106 530.778 286.027" stroke="#263238" stroke-miterlimit="10" stroke-linecap="round"/>
<path d="M504.547 291.117C504.547 291.117 505.011 290.616 505.868 289.828" stroke="#263238" stroke-miterlimit="10" stroke-linecap="round"/>
<path d="M529.358 286.376C529.358 286.376 540.358 284.286 540.358 291.6C540.358 298.914 532.552 304.835 529.358 313.194C526.164 321.553 520.131 321.901 516.938 313.542C513.744 305.183 518.358 289.858 529.358 286.376Z" fill="#0077B5" stroke="#263238" stroke-miterlimit="10"/>
<path d="M536.81 286.725C536.81 286.725 527.229 290.556 524.391 302.746L536.81 286.725Z" fill="#0077B5"/>
<path d="M536.81 286.725C536.81 286.725 527.229 290.556 524.391 302.746" stroke="#263238" stroke-miterlimit="10"/>
<path d="M536.098 302.746V322.598" stroke="#263238" stroke-miterlimit="10" stroke-linecap="round"/>
<path d="M518.475 361.258C515.962 353.567 514.496 344.688 514.496 335.846C514.496 330.369 515.063 325.134 516.088 320.309H560.907C561.931 325.134 562.499 330.37 562.499 335.846C562.499 344.688 561.032 353.568 558.519 361.258H518.475Z" fill="#263238"/>
<path d="M562.059 327.572C562.188 328.766 562.287 329.978 562.36 331.204H514.641C514.714 329.978 514.812 328.766 514.941 327.572H562.059Z" fill="#7A7A7A"/>
<path d="M515.148 346.136C514.998 344.932 514.868 343.722 514.77 342.504H562.229C562.13 343.722 562 344.932 561.851 346.136H515.148Z" fill="#7A7A7A"/>
<path d="M556.707 336.049C556.707 337.06 557.572 337.878 558.639 337.878C559.705 337.878 560.57 337.06 560.57 336.049C560.57 335.038 559.706 334.219 558.639 334.219C557.572 334.218 556.707 335.038 556.707 336.049Z" fill="#8C8C8C"/>
<path d="M547.051 336.049C547.051 337.06 547.916 337.878 548.982 337.878C550.049 337.878 550.914 337.06 550.914 336.049C550.914 335.038 550.049 334.219 548.982 334.219C547.916 334.218 547.051 335.038 547.051 336.049Z" fill="#8C8C8C"/>
<path d="M537.395 336.049C537.395 337.06 538.26 337.878 539.326 337.878C540.393 337.878 541.258 337.06 541.258 336.049C541.258 335.038 540.393 334.219 539.326 334.219C538.26 334.218 537.395 335.038 537.395 336.049Z" fill="#8C8C8C"/>
<path d="M527.738 336.049C527.738 337.06 528.603 337.878 529.67 337.878C530.736 337.878 531.601 337.06 531.601 336.049C531.601 335.038 530.736 334.219 529.67 334.219C528.603 334.218 527.738 335.038 527.738 336.049Z" fill="#8C8C8C"/>
<path d="M518.082 336.049C518.082 337.06 518.946 337.878 520.014 337.878C521.08 337.878 521.945 337.06 521.945 336.049C521.945 335.038 521.081 334.219 520.014 334.219C518.947 334.218 518.082 335.038 518.082 336.049Z" fill="#8C8C8C"/>
<path d="M440.677 179.829L439.193 174.812C439.193 174.812 438.699 170.605 437.875 169.634C437.05 168.662 433.918 167.044 432.763 165.912C431.609 164.78 430.62 164.779 430.455 165.75C430.29 166.721 430.621 168.177 431.115 168.501C431.609 168.825 433.258 170.282 433.258 170.282C433.258 170.282 429.582 168.023 428.593 167.214C427.603 166.404 424.025 164.618 423.531 165.265C423.036 165.912 423.696 167.368 423.696 167.368C423.696 167.368 421.554 166.908 421.554 168.365C421.554 169.821 422.547 170.313 422.547 170.313C422.547 170.313 421.135 170.775 421.464 171.908C421.794 173.041 423.72 173.945 423.72 173.945C423.72 173.945 421.828 174.245 422.817 175.54C423.807 176.834 427.982 179.506 430.125 180.477C432.268 181.448 434.906 182.257 434.906 182.257L440.183 185.979L440.677 179.829Z" fill="white" stroke="#263238" stroke-miterlimit="10" stroke-linecap="round" stroke-linejoin="round"/>
<path d="M423.695 167.369C423.695 167.369 426.828 169.634 427.487 170.282C428.146 170.929 429.947 171.908 429.947 171.908" stroke="#263238" stroke-miterlimit="10" stroke-linecap="round" stroke-linejoin="round"/>
<path d="M422.645 170.455L427.921 173.53L428.681 174.033" stroke="#263238" stroke-miterlimit="10" stroke-linecap="round" stroke-linejoin="round"/>
<path d="M433.258 170.281L433.917 173.033" stroke="#263238" stroke-miterlimit="10" stroke-linecap="round" stroke-linejoin="round"/>
<path d="M454.859 187.436L440.68 179.83L438.207 186.465L452.88 199.573L454.859 187.436Z" fill="#0077B5" stroke="#263238" stroke-miterlimit="10" stroke-linecap="round" stroke-linejoin="round"/>
<path d="M465.634 154.191C465.634 154.191 453.12 166.796 451.967 173.907C450.815 181.018 450.156 217.542 450.156 217.542C450.156 217.542 458.883 218.996 459.706 218.996C460.529 218.996 464.975 218.996 464.975 218.996C464.975 218.996 462.834 186.513 464.316 175.362C465.798 164.211 471.232 154.191 471.232 154.191C471.232 154.191 468.927 153.221 465.634 154.191Z" fill="#0077B5" stroke="#263238" stroke-miterlimit="10" stroke-linecap="round" stroke-linejoin="round"/>
<path d="M456.495 215.32L457.326 237.071C457.326 237.071 452.34 252.569 455.941 269.427C459.542 286.284 459.819 300.151 459.819 300.151C459.819 300.151 461.481 312.115 461.481 317.824C461.481 323.534 459.542 346.374 459.542 346.374C459.542 346.374 457.603 349.092 455.387 351.811C453.171 354.53 447.63 356.161 446.799 358.337C445.968 360.512 450.123 359.696 453.448 359.696C456.772 359.696 462.589 358.337 464.251 357.521C465.913 356.706 469.514 357.249 470.346 356.706C471.177 356.162 472.285 352.899 472.008 350.452C471.731 348.005 474.224 326.525 475.886 318.096C477.548 309.667 475.055 293.354 475.055 293.354C475.055 293.354 480.042 249.307 480.318 246.588C480.595 243.869 483.642 231.362 483.088 226.739C482.534 222.117 481.98 214.776 481.98 213.688C481.981 212.601 456.495 215.32 456.495 215.32Z" fill="#263238" stroke="#263238" stroke-miterlimit="10" stroke-linecap="round" stroke-linejoin="round"/>
<path d="M468.958 240.335C468.958 240.335 466.188 268.341 467.296 281.391C468.404 294.442 470.343 309.124 471.728 312.66C473.113 316.194 474.775 334.683 474.775 339.849C474.775 345.014 475.052 353.715 475.052 353.715C475.052 353.715 470.066 358.609 466.464 360.241C462.863 361.872 461.478 363.232 463.417 364.047C465.356 364.863 468.957 365.679 475.052 364.863C481.147 364.047 486.41 364.047 487.241 361.872C488.072 359.697 487.795 353.987 487.795 353.987C487.795 353.987 489.18 327.885 489.18 315.378C489.18 302.871 485.302 288.461 485.302 288.461L488.626 265.078C488.626 265.078 495.274 252.571 495.551 240.879C495.828 229.188 489.18 215.593 488.626 214.778C488.072 213.962 464.802 216.409 464.802 216.409" fill="#263238"/>
<path d="M468.958 240.335C468.958 240.335 466.188 268.341 467.296 281.391C468.404 294.442 470.343 309.124 471.728 312.66C473.113 316.194 474.775 334.683 474.775 339.849C474.775 345.014 475.052 353.715 475.052 353.715C475.052 353.715 470.066 358.609 466.464 360.241C462.863 361.872 461.478 363.232 463.417 364.047C465.356 364.863 468.957 365.679 475.052 364.863C481.147 364.047 486.41 364.047 487.241 361.872C488.072 359.697 487.795 353.987 487.795 353.987C487.795 353.987 489.18 327.885 489.18 315.378C489.18 302.871 485.302 288.461 485.302 288.461L488.626 265.078C488.626 265.078 495.274 252.571 495.551 240.879C495.828 229.188 489.18 215.593 488.626 214.778C488.072 213.962 464.802 216.409 464.802 216.409" stroke="#263238" stroke-miterlimit="10" stroke-linecap="round" stroke-linejoin="round"/>
<path d="M461.203 239.52C461.203 239.52 462.034 242.782 465.912 244.685" stroke="white" stroke-miterlimit="10" stroke-linecap="round" stroke-linejoin="round"/>
<path d="M472.008 350.453C472.002 350.399 471.999 350.323 471.995 350.25C466.143 353.007 460.373 350.997 460.373 350.997C460.373 350.997 460.373 350.997 460.373 349.909C460.373 348.822 459.542 346.375 459.542 346.375C459.542 346.375 457.603 349.094 455.387 351.813C453.171 354.531 447.63 356.163 446.799 358.338C445.968 360.513 450.123 359.698 453.448 359.698C456.772 359.698 462.589 358.338 464.251 357.523C465.913 356.707 469.514 357.251 470.346 356.707C471.177 356.163 472.285 352.9 472.008 350.453Z" fill="white" stroke="#263238" stroke-miterlimit="10" stroke-linecap="round" stroke-linejoin="round"/>
<path d="M487.244 361.872C487.884 360.196 487.866 356.429 487.825 354.786C483.814 355.914 478.657 356.434 478.657 356.434C478.657 356.434 478.657 356.434 477.826 354.531C476.995 352.628 475.056 353.716 475.056 353.716C475.056 353.716 470.07 358.609 466.468 360.241C462.867 361.873 461.482 363.232 463.421 364.048C465.36 364.863 468.961 365.679 475.056 364.863C481.15 364.047 486.413 364.047 487.244 361.872Z" fill="white" stroke="#263238" stroke-miterlimit="10" stroke-linecap="round" stroke-linejoin="round"/>
<path d="M465.304 157.745C465.304 157.745 453.284 172.129 452.955 175.522C452.626 178.916 455.59 216.895 456.083 217.218C456.577 217.541 462.67 218.996 464.975 218.996C467.279 218.996 470.079 218.673 470.079 218.673C470.079 218.673 468.762 181.179 469.75 173.26C470.738 165.342 477.324 158.231 478.641 154.837C479.958 151.443 474.689 151.281 473.207 151.767C471.725 152.25 465.304 157.745 465.304 157.745Z" fill="white" stroke="#263238" stroke-miterlimit="10" stroke-linecap="round" stroke-linejoin="round"/>
<path d="M459.046 115.404C459.046 115.404 453.612 122.838 453.942 124.939C454.271 127.04 454.6 128.656 453.942 129.788C453.283 130.919 449.661 132.05 449.99 133.827C450.319 135.605 453.283 137.06 453.283 137.06C453.283 137.06 454.929 146.11 456.741 147.079C458.552 148.049 463.327 146.756 463.327 146.756L464.48 155.16C464.48 155.16 459.87 162.109 462.998 162.271C466.126 162.433 479.957 151.443 479.957 151.443L478.64 146.595C478.64 146.595 481.604 140.131 481.768 133.666C481.933 127.202 475.676 116.536 470.736 114.273C465.797 112.01 462.009 113.302 459.046 115.404Z" fill="white" stroke="#263238" stroke-miterlimit="10" stroke-linecap="round" stroke-linejoin="round"/>
<path d="M463.328 146.757L467.773 145.787L464.151 151.444L463.328 146.757Z" fill="#263238" stroke="#263238" stroke-miterlimit="10" stroke-linecap="round" stroke-linejoin="round"/>
<path d="M456.082 137.22C456.082 137.22 458.881 138.19 461.187 135.119" stroke="#263238" stroke-miterlimit="10" stroke-linecap="round" stroke-linejoin="round"/>
<path d="M459.706 128.657C459.706 129.549 459.3 130.273 458.8 130.273C458.3 130.273 457.895 129.549 457.895 128.657C457.895 127.765 458.3 127.041 458.8 127.041C459.3 127.04 459.706 127.764 459.706 128.657Z" fill="#263238"/>
<path d="M456.742 124.776C456.742 124.776 459.541 122.514 461.023 125.262" stroke="#263238" stroke-miterlimit="10" stroke-linecap="round" stroke-linejoin="round"/>
<path d="M460.363 115.565C460.363 115.565 464.644 122.029 467.772 126.07C470.9 130.11 474.194 135.605 473.206 138.514C472.218 141.424 468.76 140.292 469.749 142.231C470.736 144.17 476.499 147.079 480.122 146.756C483.744 146.433 487.367 142.231 490.166 138.19C492.965 134.15 497.082 126.716 492.142 117.666C487.203 108.616 480.123 104.414 473.043 104.091C465.963 103.768 454.107 106.192 452.955 111.04C451.802 115.888 456.412 119.444 456.412 119.444L460.363 115.565Z" fill="#263238" stroke="#263238" stroke-miterlimit="10" stroke-linecap="round" stroke-linejoin="round"/>
<path d="M472.052 156.291C472.052 156.291 458.88 174.877 458.221 179.887C457.563 184.897 461.35 219.967 461.35 219.967C461.35 219.967 469.912 221.098 478.145 219.967C486.377 218.835 494.445 214.956 494.445 214.956C494.445 214.956 489.835 196.048 489.835 193.139C489.835 190.23 490.988 170.352 488.024 164.049C485.059 157.746 479.956 151.443 479.956 151.443C479.956 151.443 478.968 151.281 478.474 151.281C477.98 151.281 474.852 153.382 472.052 156.291Z" fill="#0077B5" stroke="#263238" stroke-miterlimit="10" stroke-linecap="round" stroke-linejoin="round"/>
<path d="M441.922 184.572L437.641 182.31C437.641 182.31 436.159 177.946 435.337 176.654C434.513 175.361 432.208 175.684 431.22 175.846C430.232 176.008 427.268 175.199 425.457 174.391C423.646 173.583 422.822 174.553 423.481 175.522C424.14 176.492 425.622 177.623 425.622 177.623C425.622 177.623 418.048 177.946 417.554 177.946C417.061 177.946 414.097 177.138 414.755 179.239C415.414 181.34 421.012 185.057 423.811 185.542C426.61 186.027 433.856 185.704 433.856 185.704L438.137 188.936L441.922 184.572Z" fill="white" stroke="#263238" stroke-miterlimit="10" stroke-linecap="round" stroke-linejoin="round"/>
<path d="M425.621 177.623L429.738 178.916L431.878 179.562" stroke="#263238" stroke-miterlimit="10" stroke-linecap="round" stroke-linejoin="round"/>
<path d="M415.043 178.223C415.043 178.223 418.549 180.435 419.3 180.804C420.051 181.173 425.686 181.541 425.686 181.541" stroke="#263238" stroke-miterlimit="10" stroke-linecap="round" stroke-linejoin="round"/>
<path d="M416.297 181.295C416.297 181.295 422.057 183.507 422.683 183.507C423.309 183.507 426.064 183.384 426.064 183.384" stroke="#263238" stroke-miterlimit="10" stroke-linecap="round" stroke-linejoin="round"/>
<path d="M473.208 166.797L462.011 194.432L441.923 184.574L436.16 191.685C436.16 191.685 459.871 209.624 461.681 210.432C463.493 211.24 466.786 211.564 467.444 211.078C468.103 210.593 486.215 180.857 486.215 180.857" fill="#0077B5"/>
<path d="M473.208 166.797L462.011 194.432L441.923 184.574L436.16 191.685C436.16 191.685 459.871 209.624 461.681 210.432C463.493 211.24 466.786 211.564 467.444 211.078C468.103 210.593 486.215 180.857 486.215 180.857" stroke="#263238" stroke-miterlimit="10" stroke-linecap="round" stroke-linejoin="round"/>
<path d="M468.502 245.781C468.502 245.781 466.801 276.793 468.502 288.721C470.204 300.648 473.12 318.54 473.12 318.54" stroke="white" stroke-miterlimit="10" stroke-linecap="round" stroke-linejoin="round"/>
<path d="M355.928 218.644C355.928 218.644 353.93 253.402 353.553 259.899C353.177 266.396 353.936 299.844 356.192 303.213C358.449 306.582 361.197 339.549 361.197 339.549C361.197 339.549 359.194 340.271 359.125 341.474C359.055 342.677 359.105 346.047 359.105 346.047C359.105 346.047 352.424 351.341 348.663 352.784C344.902 354.228 345.049 355.912 347.228 356.393C349.407 356.874 355.466 358.078 359.935 357.115C364.403 356.152 368.942 353.987 370.932 353.506C372.921 353.025 375.59 353.506 376.9 352.062C378.209 350.618 377.494 346.046 377.494 346.046C377.494 346.046 378.299 344.843 377.569 340.511C376.839 336.18 375.984 334.014 376.054 332.811C376.124 331.608 375.916 292.866 375.916 292.866L375.987 249.311C375.987 249.311 379.649 291.903 380.505 294.069C381.36 296.235 387.744 329.923 388.137 331.608C388.529 333.292 388.616 340.27 388.616 340.27C388.616 340.27 386.746 342.918 386.704 343.64C386.663 344.362 387.582 349.656 387.582 349.656C387.582 349.656 381.552 356.393 378.267 358.078C374.982 359.762 378.766 362.169 381.939 362.41C385.112 362.651 388.776 362.891 393.287 361.207C397.797 359.522 403.784 353.506 405.094 352.063C406.403 350.619 405.548 348.454 405.127 347.25C404.706 346.047 404.026 345.084 404.327 344.121C404.629 343.159 406.272 335.94 406.468 332.571C406.663 329.202 406.845 326.073 406.845 326.073C406.845 326.073 407.238 306.582 405.996 298.401C404.754 290.219 401.941 275.299 401.941 275.299C401.941 275.299 399.647 238.723 399.989 237.038C400.332 235.354 401.709 229.61 401.204 224.525C400.7 219.441 399.948 216.584 399.948 216.584L355.928 218.644Z" fill="#263238" stroke="#263238" stroke-miterlimit="10" stroke-linecap="round" stroke-linejoin="round"/>
<path d="M374.951 151.384C374.951 151.384 355.485 157.6 355.452 159.034C355.42 160.469 350.661 191.069 350.661 191.069L326.875 207.022C326.875 207.022 330.234 209.253 330.837 211.325C331.439 213.397 331.439 213.397 331.439 213.397L356.338 205.572C356.338 205.572 355.087 217.686 355.715 218.641C356.343 219.598 360.056 220.554 360.056 220.554C360.056 220.554 382.273 221.829 389.588 221.511C396.902 221.191 399.998 220.714 400.514 219.439C401.03 218.164 401.344 218.642 401.388 216.729C401.432 214.817 414.765 157.121 414.788 156.165C414.809 155.209 414.193 153.774 412.908 153.137C411.624 152.5 394.362 147.559 394.362 147.559L374.951 151.384Z" fill="white" stroke="#263238" stroke-miterlimit="10" stroke-linecap="round" stroke-linejoin="round"/>
<path d="M371.87 158.238L373.625 166.764L365.23 207.882L368.163 219.381L376.97 206.837L376.828 166.416L383.788 157.008L380.713 151.574L371.87 158.238Z" fill="#0077B5" stroke="#263238" stroke-miterlimit="10" stroke-linecap="round" stroke-linejoin="round"/>
<path d="M365.895 204.622L374.587 210.229L376.969 206.837L376.962 204.943L367.124 198.598L365.895 204.622Z" fill="#263238"/>
<path d="M370.861 180.299L369.535 186.795L376.922 193.324L376.895 185.632L370.861 180.299Z" fill="#263238"/>
<path d="M372.516 161.385L373.623 166.764L373.061 169.516L376.849 172.847L376.826 166.416L377.382 165.665L372.516 161.385Z" fill="#263238"/>
<path d="M359.68 173.117L360.087 169.395" stroke="#263238" stroke-miterlimit="10" stroke-linecap="round" stroke-linejoin="round"/>
<path d="M356.395 203.184L359.229 177.262" stroke="#263238" stroke-miterlimit="10" stroke-linecap="round" stroke-linejoin="round"/>
<path d="M374.212 162.742L368.945 151.227L375.864 146.924L374.212 162.742Z" fill="white" stroke="#263238" stroke-miterlimit="10" stroke-linecap="round" stroke-linejoin="round"/>
<path d="M368.946 151.227L366.945 160.63L371.872 158.239L368.946 151.227Z" fill="white" stroke="#263238" stroke-miterlimit="10" stroke-linecap="round" stroke-linejoin="round"/>
<path d="M374.794 108.005C374.794 108.005 369.243 126.396 368.845 134.059C368.447 141.722 370.825 145.007 372.818 145.664L374.588 146.321L374.213 162.741L380.203 154.422L380.713 151.575L392.345 140.409L394.964 133.183C394.964 133.183 399.405 134.059 400.834 130.118C402.262 126.177 400.528 123.988 400.528 123.988C400.528 123.988 406.468 117.857 404.407 110.413C402.346 102.969 396.939 95.5254 386.678 95.5254C376.417 95.5254 369.362 101.656 374.794 108.005Z" fill="white" stroke="#263238" stroke-miterlimit="10" stroke-linecap="round" stroke-linejoin="round"/>
<path d="M404.409 110.413C402.348 102.969 396.942 95.5254 386.68 95.5254C376.419 95.5254 369.364 101.656 374.796 108.005C374.796 108.005 378.3 110.851 380.764 110.413C383.228 109.976 384.829 108.224 389.018 110.413C393.206 112.603 393.612 114.354 392.209 117.201C390.806 120.047 390.999 121.36 391.642 122.455C391.714 122.575 391.787 122.717 391.86 122.869L387.838 132.746C387.838 132.746 386.559 130.118 381.256 127.929C375.952 125.739 369.631 129.024 369.631 129.024C365.479 146.722 374.59 146.321 374.59 146.321C374.59 146.321 385.342 144.35 388.53 141.504C391.718 138.658 392.209 136.688 392.502 133.622C392.677 131.802 392.666 127.742 392.628 124.745C392.914 125.53 393.119 126.178 393.119 126.178C393.119 126.178 394.056 124.207 396.302 123.551C398.547 122.894 400.53 123.989 400.53 123.989C400.53 123.989 406.469 117.857 404.409 110.413Z" fill="#263238" stroke="#263238" stroke-miterlimit="10" stroke-linecap="round" stroke-linejoin="round"/>
<path d="M379.044 117.42L377.135 122.893C377.135 122.893 370.804 126.616 372.132 127.053C373.461 127.491 377.952 126.177 377.952 126.177" stroke="#263238" stroke-miterlimit="10" stroke-linecap="round" stroke-linejoin="round"/>
<path d="M372.008 132.307C372.008 132.307 374.624 134.935 379.607 131.65" stroke="white" stroke-miterlimit="10" stroke-linecap="round" stroke-linejoin="round"/>
<path d="M383.331 122.268C383.182 123.03 382.652 123.579 382.146 123.495C381.64 123.41 381.351 122.724 381.5 121.962C381.649 121.2 382.179 120.651 382.685 120.735C383.191 120.82 383.48 121.506 383.331 122.268Z" fill="#263238"/>
<path d="M375.46 121.192C375.311 121.954 374.781 122.503 374.275 122.418C373.769 122.334 373.48 121.648 373.629 120.886C373.778 120.124 374.308 119.574 374.814 119.659C375.32 119.744 375.609 120.429 375.46 121.192Z" fill="#263238"/>
<path d="M373.66 116.626C373.66 116.626 375.327 115.657 377.717 116.626" stroke="#263238" stroke-miterlimit="10" stroke-linecap="round" stroke-linejoin="round"/>
<path d="M382.09 117.164C382.09 117.164 384.729 116.841 386.651 119.102" stroke="#263238" stroke-miterlimit="10" stroke-linecap="round" stroke-linejoin="round"/>
<path d="M380.203 154.42L382.201 160.948L396.66 146.445L392.345 140.408L380.714 151.575L380.203 154.42Z" fill="white" stroke="#263238" stroke-miterlimit="10" stroke-linecap="round" stroke-linejoin="round"/>
<path d="M339.143 218.994C339.143 218.994 336.029 217.39 337.435 217.161C338.84 216.932 341.27 217.848 341.27 217.848C341.27 217.848 338.286 215.671 339.8 215.786C341.314 215.9 343.724 217.733 343.724 217.733C343.724 217.733 342.951 215.786 344.455 216.358C345.959 216.931 346.755 217.847 346.755 217.847C346.755 217.847 345.076 219.794 343.671 220.023C342.266 220.252 342.611 220.482 341.685 220.138C340.759 219.795 339.143 218.994 339.143 218.994Z" fill="white" stroke="#263238" stroke-miterlimit="10" stroke-linecap="round" stroke-linejoin="round"/>
<path d="M360.486 208.762C360.486 208.762 352.512 208.764 351.343 209.703C350.173 210.641 348.588 213.082 348.005 213.458C347.423 213.833 341.107 214.021 341.268 215.335C341.429 216.649 345.25 216.837 345.25 216.837L342.508 219.653C342.508 219.653 336.625 217.588 336.217 218.714C335.809 219.841 342.448 222.281 343.978 222.281C345.508 222.281 348.59 221.343 349.177 220.78C349.764 220.216 356.058 214.605 356.058 214.605C356.333 215.226 360.907 214.179 361.104 213.524C361.276 212.95 360.486 208.762 360.486 208.762Z" fill="white" stroke="#263238" stroke-miterlimit="10" stroke-linecap="round" stroke-linejoin="round"/>
<path d="M345.25 216.836C345.25 216.836 348.754 217.159 350.16 216.931C351.565 216.702 353.244 214.754 353.244 214.754" stroke="#263238" stroke-miterlimit="10" stroke-linecap="round" stroke-linejoin="round"/>
<path d="M399.324 164.932L391.643 195.533L360.488 208.761L361.309 215.456C361.309 215.456 388.078 212.458 394.61 210.864C401.141 209.27 409.2 204.808 410.254 201.301C411.308 197.794 416.642 160.31 416.545 157.441C416.448 154.573 416.131 154.253 414.85 153.457C413.57 152.66 404.029 150.906 404.029 150.906" fill="white"/>
<path d="M399.324 164.932L391.643 195.533L360.488 208.761L361.309 215.456C361.309 215.456 388.078 212.458 394.61 210.864C401.141 209.27 409.2 204.808 410.254 201.301C411.308 197.794 416.642 160.31 416.545 157.441C416.448 154.573 416.131 154.253 414.85 153.457C413.57 152.66 404.029 150.906 404.029 150.906" stroke="#263238" stroke-miterlimit="10" stroke-linecap="round" stroke-linejoin="round"/>
<path d="M365.238 207.008L366.38 213.861" stroke="#263238" stroke-miterlimit="10" stroke-linecap="round" stroke-linejoin="round"/>
<path d="M330.004 205.111C330.004 205.111 335.182 205.908 334.571 211.327" stroke="#263238" stroke-miterlimit="10" stroke-linecap="round" stroke-linejoin="round"/>
<path d="M326.876 207.024L322.491 209.102C322.491 209.102 319.639 208.351 318.874 208.351C318.109 208.351 317.131 209.29 314.858 208.351C312.584 207.413 310.701 206.098 310.662 207.788C310.623 209.478 311.741 210.791 312.881 211.167C314.02 211.542 315.346 212.105 315.346 212.105L308.105 219.239C308.105 219.239 304.39 222.806 305.333 223.369C306.276 223.933 314.735 222.055 316.083 221.68C317.43 221.304 325.15 218.301 326.332 216.799C327.513 215.297 328.109 214.358 328.109 214.358L331.44 213.399C331.44 213.399 330.601 208.701 326.876 207.024Z" stroke="#263238" stroke-miterlimit="10" stroke-linecap="round" stroke-linejoin="round"/>
<path d="M323.699 214.734C323.699 214.734 319.887 214.171 318.339 214.922C316.792 215.673 314.611 219.052 314.611 219.052C314.611 219.052 309.603 220.554 308.43 221.681" stroke="#263238" stroke-miterlimit="10" stroke-linecap="round" stroke-linejoin="round"/>
<path d="M597.09 355.598H15.0312" stroke="#263238" stroke-miterlimit="10" stroke-linecap="round" stroke-linejoin="round"/>
<path d="M139.287 239.815C139.287 239.815 140.01 244.708 140.664 246.204C141.317 247.7 141.97 249.837 141.099 251.333C140.228 252.829 133.231 255.889 133.231 255.889L133.043 236.801L138.946 235.881L139.287 239.815Z" fill="white" stroke="#263238" stroke-miterlimit="10" stroke-linecap="round" stroke-linejoin="round"/>
<path d="M137.582 244.336C137.582 244.336 137.398 246.417 136.962 248.768C136.526 251.119 136.441 253.842 133.828 253.629" fill="white"/>
<path d="M137.582 244.336C137.582 244.336 137.398 246.417 136.962 248.768C136.526 251.119 136.441 253.842 133.828 253.629" stroke="#263238" stroke-miterlimit="10" stroke-linecap="round" stroke-linejoin="round"/>
<path d="M131.953 155.375L136.308 202.178L139.355 237.654L132.174 237.865L128.469 206.239L131.953 155.375Z" fill="white" stroke="#263238" stroke-miterlimit="10" stroke-linecap="round" stroke-linejoin="round"/>
<path d="M85.4647 210.463C85.4647 210.463 83.354 228.707 83.7844 231.052C84.2149 233.398 85.6737 286.044 85.6737 286.044C85.6737 286.044 82.4898 304.549 82.6101 307.937C82.7304 311.325 83.7869 348.595 83.7869 348.595C83.7869 348.595 81.6265 355.632 81.294 357.195C80.9614 358.759 81.3918 361.105 82.4318 361.626C83.4718 362.147 90.342 362.929 93.2853 362.408C96.2286 361.887 99.7027 361.365 100.39 357.717C101.078 354.069 98.9115 348.856 99.244 347.292C99.5766 345.729 99.9656 342.862 100.044 341.037C100.121 339.213 100.189 337.65 100.189 337.65C100.189 337.65 105.647 303.247 105.692 302.205C105.737 301.163 108.993 268.584 108.993 268.584C108.993 268.584 108.618 314.454 108.305 321.751C107.993 329.049 106.849 337.129 106.804 338.171C106.759 339.212 105.681 351.984 105.901 353.026C106.122 354.069 107.947 354.85 109.529 355.111C111.112 355.371 115.371 355.111 116.167 355.111C116.964 355.111 122.75 356.414 126.468 356.414C130.186 356.414 134.456 355.893 133.76 353.547C133.064 351.201 127.057 348.856 125.244 347.813C123.43 346.77 121.042 340.516 121.042 340.516C121.042 340.516 122.848 335.564 122.96 332.958C123.072 330.351 131.088 292.04 132.343 281.354C133.598 270.669 132.502 221.931 132.502 221.931L133.482 210.727C133.485 210.727 102.202 216.457 85.4647 210.463Z" fill="#263238" stroke="#263238" stroke-miterlimit="10" stroke-linecap="round" stroke-linejoin="round"/>
<path d="M93.6331 141.483C93.6331 141.483 83.1819 149.818 78.3917 152.383C73.6014 154.947 68.1577 158.366 68.1577 158.366C68.1577 158.366 61.8431 210.726 62.4967 212.65C63.1502 214.573 65.7626 242.142 65.7626 242.142L75.343 241.714L77.7381 208.161L82.7465 191.919L83.4 211.153C83.4 211.153 82.9646 213.932 85.3597 215C87.7548 216.069 108.657 217.993 119.109 217.351C129.561 216.71 132.827 212.864 133.262 210.726C133.697 208.589 134.348 171.063 134.566 167.003C134.784 162.943 132.635 152.335 127.465 146.41C126.048 144.787 110.182 141.911 110.182 141.911C110.182 141.911 99.2942 138.491 93.6331 141.483Z" fill="white" stroke="#263238" stroke-miterlimit="10" stroke-linecap="round" stroke-linejoin="round"/>
<path d="M107.258 151.474L113.163 159.315L111.079 207.04C111.079 207.04 115.593 212.835 116.288 213.858C116.983 214.882 122.54 205.677 122.54 205.677L115.941 159.996L118.719 151.815L117.143 147.028L109.341 144.656L107.258 151.474Z" fill="#0077B5" stroke="#263238" stroke-miterlimit="10" stroke-linecap="round" stroke-linejoin="round"/>
<path d="M112.309 178.888L118.139 175.206L117.136 168.264L112.649 171.097L112.309 178.888Z" fill="#263238"/>
<path d="M113.161 159.315L113.037 162.17L115.975 160.238L115.94 159.997L118.718 151.816L118.435 150.953L110.695 156.041L113.161 159.315Z" fill="#263238"/>
<path d="M122.54 205.677L121.745 200.172L111.158 205.222L111.078 207.04C111.078 207.04 112.645 209.051 114.074 210.913L121.484 207.379C122.114 206.383 122.54 205.677 122.54 205.677Z" fill="#263238"/>
<path d="M111.875 188.792L111.531 196.674L120.401 190.87L119.391 183.875L111.875 188.792Z" fill="#263238"/>
<path d="M82.7461 191.919L90.8022 174.395" stroke="#263238" stroke-miterlimit="10" stroke-linecap="round" stroke-linejoin="round"/>
<path d="M114.57 154.347L118.942 141.476L113.113 138.615L114.57 154.347Z" fill="white" stroke="#263238" stroke-miterlimit="10" stroke-linecap="round" stroke-linejoin="round"/>
<path d="M118.944 141.477L124.772 148.448L117.141 147.03L118.944 141.477Z" fill="white" stroke="#263238" stroke-miterlimit="10" stroke-linecap="round" stroke-linejoin="round"/>
<path d="M112.203 101.073C112.203 101.073 114.207 109.297 116.392 114.124C118.578 118.951 119.124 121.99 118.396 126.817C117.667 131.644 117.667 133.789 116.575 134.325C115.482 134.862 112.567 135.398 112.567 135.398L114.571 154.348L110.017 148.091L95.2633 134.325L87.2495 113.409C87.2495 113.409 83.0605 108.402 88.5242 102.146C93.9895 95.8889 108.561 96.6035 112.203 101.073Z" fill="white" stroke="#263238" stroke-miterlimit="10" stroke-linecap="round" stroke-linejoin="round"/>
<path d="M89.2534 119.666L91.8036 118.593C91.8036 118.593 89.6175 116.805 90.3465 114.123C91.0755 111.442 98.5428 109.832 97.6322 107.688C96.7216 105.543 88.1604 105.184 93.8073 102.682C99.4534 100.179 109.472 103.576 112.75 103.933C116.028 104.291 112.933 97.3188 112.933 97.3188C112.933 97.3188 118.761 96.2459 114.207 92.1344C109.653 88.0229 90.893 90.5251 85.611 96.0676C80.329 101.609 81.422 106.079 83.0608 109.119C84.7004 112.158 87.6147 119.309 87.6147 119.309L89.2534 119.666Z" fill="#263238" stroke="#263238" stroke-miterlimit="10" stroke-linecap="round" stroke-linejoin="round"/>
<path d="M91.8031 120.738C91.8031 120.738 88.1599 116.984 86.157 118.772C84.1533 120.559 87.0676 125.029 89.4354 126.637C91.8031 128.247 93.9892 126.28 93.9892 126.28" fill="white"/>
<path d="M91.8031 120.738C91.8031 120.738 88.1599 116.984 86.157 118.772C84.1533 120.559 87.0676 125.029 89.4354 126.637C91.8031 128.247 93.9892 126.28 93.9892 126.28" stroke="#263238" stroke-miterlimit="10" stroke-linecap="round" stroke-linejoin="round"/>
<path d="M112.204 107.867C112.204 107.867 110.383 106.437 109.472 108.404C108.561 110.37 109.108 112.515 109.108 112.515L114.937 121.097L109.29 122.348" stroke="#263238" stroke-miterlimit="10" stroke-linecap="round" stroke-linejoin="round"/>
<path d="M111.29 125.743C111.29 125.743 107.466 127.352 103.641 124.312" stroke="#263238" stroke-miterlimit="10" stroke-linecap="round" stroke-linejoin="round"/>
<path d="M104.552 109.475C104.552 109.475 99.817 107.687 97.4492 111.978" stroke="#263238" stroke-miterlimit="10" stroke-linecap="round" stroke-linejoin="round"/>
<path d="M104.098 116.983C104.752 116.983 105.283 116.183 105.283 115.196C105.283 114.209 104.752 113.408 104.098 113.408C103.444 113.408 102.914 114.209 102.914 115.196C102.914 116.183 103.444 116.983 104.098 116.983Z" fill="#263238"/>
<path d="M114.388 112.872C114.388 113.859 113.858 114.659 113.204 114.659C112.55 114.659 112.02 113.859 112.02 112.872C112.02 111.884 112.549 111.084 113.204 111.084C113.858 111.084 114.388 111.884 114.388 112.872Z" fill="#263238"/>
<path d="M112.566 135.397L104.188 134.682L113.477 146.481L112.566 135.397Z" fill="#263238" stroke="#263238" stroke-miterlimit="10"/>
<path d="M95.2663 134.324L91.4414 140.939L103.463 157.922L110.02 148.09L95.2663 134.324Z" fill="white" stroke="#263238" stroke-miterlimit="10" stroke-linecap="round" stroke-linejoin="round"/>
<path d="M82.0947 262.897H62.5938V254.775C62.5938 252.842 64.1902 251.275 66.1591 251.275H78.5302C80.4991 251.275 82.0955 252.842 82.0955 254.775L82.0947 262.897Z" stroke="#263238" stroke-width="4" stroke-miterlimit="10" stroke-linecap="round" stroke-linejoin="round"/>
<path d="M96.6223 298.966H47.5365C44.9183 298.966 42.7969 296.883 42.7969 294.314V265.22C42.7969 262.651 44.9191 260.568 47.5365 260.568H96.6223C99.2405 260.568 101.362 262.651 101.362 265.22V294.314C101.362 296.883 99.2405 298.966 96.6223 298.966Z" fill="#636363" stroke="#263238" stroke-miterlimit="10" stroke-linecap="round" stroke-linejoin="round"/>
<path d="M75.3414 241.715C75.3414 241.715 76.8658 244.066 78.3901 246.202C79.9144 248.339 82.7449 249.408 82.5268 250.477C82.3095 251.546 81.0025 252.186 80.1317 251.973C79.2609 251.759 75.7768 248.981 75.7768 248.981L76.4304 254.537C76.4304 254.537 77.3012 256.46 75.7768 257.102C74.2525 257.743 72.0755 257.743 71.6401 257.102C71.2047 256.46 70.7693 255.392 70.7693 255.392C70.7693 255.392 67.068 255.392 65.9791 254.751C64.8902 254.11 63.584 253.042 63.8013 250.263C64.0194 247.485 65.761 242.142 65.761 242.142L75.3414 241.715Z" fill="white" stroke="#263238" stroke-miterlimit="10" stroke-linecap="round" stroke-linejoin="round"/>
<path d="M232.138 228.869H210.535V236.82H232.138V228.869Z" fill="white" stroke="#263238" stroke-miterlimit="10" stroke-linecap="round" stroke-linejoin="round"/>
<path d="M263.147 232.578H179.529C177.637 232.578 176.102 231.072 176.102 229.214V171.782C176.102 169.925 177.636 168.418 179.529 168.418H263.148C265.04 168.418 266.575 169.924 266.575 171.782V229.214C266.574 231.072 265.04 232.578 263.147 232.578Z" fill="#263238" stroke="#263238" stroke-miterlimit="10" stroke-linecap="round" stroke-linejoin="round"/>
<path d="M176.102 222.242V229.214C176.102 231.072 177.636 232.578 179.529 232.578H263.148C265.04 232.578 266.575 231.072 266.575 229.214V222.242H176.102Z" fill="white" stroke="#263238" stroke-miterlimit="10" stroke-linecap="round" stroke-linejoin="round"/>
<path d="M324.737 168.731L296.979 168.957C296.979 168.957 295.143 168.731 294.685 170.083C294.685 170.083 289.867 182.017 289.637 186.295C289.408 190.573 290.555 189.898 288.719 195.527C286.884 201.156 281.608 214.441 278.625 225.251C274.616 239.777 273.572 255.194 273.318 270.188C273.277 272.594 271.812 293.297 275.627 293.297C278.794 293.297 308 297.096 308.352 291.57C309.754 269.544 305.702 248.021 313.496 226.599C316.524 218.28 319.995 209.493 322.564 200.79C325.142 192.051 325.582 183.041 327.261 174.135C328.408 168.056 324.737 168.731 324.737 168.731Z" fill="#263238" stroke="#263238" stroke-miterlimit="10"/>
<path d="M327.456 171.428C327.182 168.284 324.737 168.731 324.737 168.731L296.979 168.956C296.979 168.956 295.143 168.731 294.685 170.082C294.685 170.082 289.867 182.016 289.637 186.295C289.549 187.949 289.666 188.862 289.736 189.686L290.326 190.573C290.326 190.573 291.243 198.454 302.255 198.904C313.267 199.354 319.461 194.401 321.755 189.673C324.049 184.944 324.967 177.288 326.802 172.785C326.986 172.332 327.214 171.879 327.456 171.428Z" fill="#BABABA" stroke="#263238" stroke-miterlimit="10" stroke-linecap="round" stroke-linejoin="round"/>
<path d="M321.023 180.224C319.161 186.802 320.278 188.63 318.416 199.958C316.554 211.287 309.853 224.078 307.246 235.772C304.639 247.466 305.757 288.761 306.129 290.588C306.271 291.284 306.304 292.404 306.291 293.524C307.541 293.066 308.298 292.432 308.353 291.57C309.756 269.544 305.703 248.022 313.497 226.599C316.525 218.28 319.997 209.493 322.565 200.789C325.143 192.05 325.582 183.041 327.262 174.135C327.967 170.399 326.853 169.218 325.889 168.859L325.862 168.895C325.862 168.895 322.884 173.646 321.023 180.224Z" fill="#BABABA" stroke="#263238" stroke-miterlimit="10" stroke-linecap="round" stroke-linejoin="round"/>
<path d="M267.405 346.499L267.219 346.353V320.918H270.943V304.838H257.166V320.918H260.889V346.79L227.938 357.097V359.655C227.938 361.27 229.271 362.579 230.916 362.579C232.562 362.579 233.895 361.27 233.895 359.655V359.29L261.448 356.145V360.021C261.448 361.434 262.614 362.579 264.053 362.579C265.493 362.579 266.66 361.434 266.66 360.021V356.018L295.329 359.29V359.656C295.329 361.271 296.663 362.58 298.307 362.58C299.953 362.58 301.286 361.271 301.286 359.656V357.098L267.405 346.499Z" fill="#263238" stroke="#263238" stroke-miterlimit="10"/>
<path d="M307.145 307.801H224.403C222.571 307.801 221.086 306.343 221.086 304.545V292.406C221.086 290.608 222.571 289.15 224.403 289.15H307.145C308.977 289.15 310.462 290.608 310.462 292.406V304.545C310.462 306.344 308.978 307.801 307.145 307.801Z" fill="#263238" stroke="#263238" stroke-miterlimit="10"/>
<path d="M184.798 361.264H181.087L178.672 255.045H188.043L184.798 361.264Z" fill="#263238" stroke="#263238" stroke-miterlimit="10"/>
<path d="M368.314 361.264H364.603L362.188 255.045H371.559L368.314 361.264Z" fill="#263238" stroke="#263238" stroke-miterlimit="10"/>
<path d="M159.57 238.615L162.763 365.02H166.606L169.799 260.209H386.559L389.339 365.02H395.155L396.401 238.615H159.57Z" fill="white" stroke="#263238" stroke-miterlimit="10" stroke-linecap="round" stroke-linejoin="round"/>
<path d="M396.225 241.65H159.676V245.147H396.225V241.65Z" fill="#757575" stroke="#263238" stroke-miterlimit="10"/>
<path d="M398.066 236.543H154.582V242.069H398.066V236.543Z" fill="white" stroke="#263238" stroke-miterlimit="10" stroke-linecap="round" stroke-linejoin="round"/>
<path d="M183.556 39.7365C183.537 39.5929 183.545 39.4418 183.584 39.2929C183.741 38.6935 184.342 38.331 184.929 38.4868C185.245 38.5698 185.558 38.6565 185.868 38.7469C186.45 38.9167 186.787 39.5359 186.62 40.1335C186.45 40.7315 185.84 41.0786 185.258 40.9088C184.961 40.823 184.665 40.7405 184.367 40.6649C183.922 40.5446 183.616 40.1706 183.556 39.7365ZM194.598 44.2587C194.566 44.0238 194.605 43.7783 194.728 43.5568C195.026 43.013 195.696 42.8168 196.228 43.1141C199.737 45.0898 203.219 47.5825 206.574 50.5303C207.032 50.9351 207.083 51.6434 206.682 52.1125C206.282 52.5816 205.587 52.6384 205.129 52.2336C201.89 49.3885 198.534 46.9803 195.153 45.0821C194.841 44.9054 194.644 44.5949 194.598 44.2587ZM212.548 59.4222C212.499 59.0632 212.624 58.6817 212.909 58.4229C213.366 58.0087 214.061 58.0484 214.465 58.5112C217.058 61.4857 219.679 64.8589 222.261 68.5442C222.615 69.0478 222.498 69.7478 222.002 70.1113C221.505 70.4748 220.819 70.3604 220.465 69.8569C217.928 66.2381 215.354 62.9245 212.815 60.0086C212.664 59.8346 212.577 59.6311 212.548 59.4222ZM226.352 78.6786C226.294 78.2544 226.479 77.8139 226.857 77.5679C227.371 77.2351 228.053 77.3901 228.376 77.9114C229.953 80.4643 231.525 83.0843 233.051 85.6214L234.915 88.7209C235.232 89.2497 235.069 89.9401 234.551 90.2668C234.033 90.5935 233.353 90.4315 233.036 89.9059L231.168 86.8004C229.65 84.2721 228.078 81.6554 226.51 79.1147C226.425 78.9774 226.372 78.8287 226.352 78.6786ZM238.754 98.9325C238.697 98.5181 238.873 98.0823 239.242 97.8344C239.751 97.4923 240.434 97.6305 240.766 98.1472C243.294 102.054 245.646 105.4 247.958 108.373C248.335 108.857 248.252 109.565 247.771 109.95C247.294 110.337 246.6 110.257 246.225 109.77C243.877 106.742 241.489 103.348 238.924 99.3867C238.83 99.2508 238.776 99.0924 238.754 98.9325ZM253.281 117.599C253.235 117.262 253.34 116.907 253.592 116.646C254.023 116.206 254.719 116.199 255.151 116.635C256.386 117.883 257.655 119.079 258.923 120.19C260.699 121.744 262.596 123.22 264.564 124.569C265.066 124.914 265.197 125.61 264.856 126.127C264.514 126.641 263.83 126.779 263.325 126.435C261.285 125.037 259.319 123.511 257.478 121.896C256.17 120.749 254.863 119.518 253.591 118.235C253.416 118.058 253.313 117.833 253.281 117.599ZM272.442 131.093C272.414 130.888 272.44 130.674 272.531 130.474C272.783 129.907 273.436 129.657 273.991 129.911C277.667 131.595 281.561 132.965 285.567 133.981C286.156 134.13 286.511 134.739 286.361 135.341C286.212 135.943 285.611 136.309 285.021 136.16C280.887 135.113 276.869 133.699 273.074 131.959C272.721 131.795 272.493 131.462 272.442 131.093ZM295.044 137.114C295.032 137.026 295.03 136.936 295.04 136.845C295.099 136.226 295.643 135.776 296.246 135.833C300.31 136.224 304.443 136.276 308.534 135.981C309.143 135.937 309.665 136.405 309.704 137.022C309.743 137.643 309.283 138.177 308.674 138.221C304.466 138.524 300.209 138.47 296.026 138.067C295.508 138.017 295.113 137.613 295.044 137.114ZM318.412 135.661C318.333 135.083 318.706 134.532 319.274 134.404C323.311 133.498 327.261 132.244 331.014 130.671C331.577 130.434 332.219 130.708 332.448 131.28C332.677 131.852 332.404 132.509 331.841 132.746C327.97 134.367 323.895 135.662 319.734 136.593C319.14 136.725 318.555 136.343 318.426 135.739C318.423 135.713 318.416 135.687 318.412 135.661ZM340.17 126.779C340.111 126.348 340.302 125.903 340.688 125.663C344.209 123.451 347.501 120.9 350.465 118.089C350.911 117.666 351.608 117.689 352.023 118.14C352.435 118.592 352.408 119.302 351.962 119.728C348.891 122.642 345.484 125.283 341.836 127.573C341.318 127.9 340.638 127.738 340.321 127.209C340.24 127.071 340.19 126.926 340.17 126.779Z" fill="black"/>
</svg>
